<?xml version="1.0" encoding="utf-8" standalone="no"?>
<!DOCTYPE svg PUBLIC "-//W3C//DTD SVG 1.1//EN"
  "http://www.w3.org/Graphics/SVG/1.1/DTD/svg11.dtd">
<svg xmlns:xlink="http://www.w3.org/1999/xlink" width="460.8pt" height="230.4pt" viewBox="0 0 460.8 230.4" xmlns="http://www.w3.org/2000/svg" version="1.1">
 <metadata>
  <rdf:RDF xmlns:dc="http://purl.org/dc/elements/1.1/" xmlns:cc="http://creativecommons.org/ns#" xmlns:rdf="http://www.w3.org/1999/02/22-rdf-syntax-ns#">
   <cc:Work>
    <dc:type rdf:resource="http://purl.org/dc/dcmitype/StillImage"/>
    <dc:date>2026-07-01T22:14:39.749395</dc:date>
    <dc:format>image/svg+xml</dc:format>
    <dc:creator>
     <cc:Agent>
      <dc:title>Matplotlib v3.10.9, https://matplotlib.org/</dc:title>
     </cc:Agent>
    </dc:creator>
   </cc:Work>
  </rdf:RDF>
 </metadata>
 <defs>
  <style type="text/css">*{stroke-linejoin: round; stroke-linecap: butt}</style>
 </defs>
 <g id="figure_1">
  <g id="patch_1">
   <path d="M 0 230.4 
L 460.8 230.4 
L 460.8 0 
L 0 0 
z
" style="fill: #fcfcfb"/>
  </g>
  <g id="axes_1">
   <g id="patch_2">
    <path d="M 37.023365 198.979135 
L 447.780229 198.979135 
L 447.780229 16.598678 
L 37.023365 16.598678 
z
" style="fill: #fcfcfb"/>
   </g>
   <g id="matplotlib.axis_1">
    <g id="xtick_1">
     <g id="line2d_1">
      <path d="M 37.023365 198.979135 
L 37.023365 16.598678 
" clip-path="url(#pde55ec949a)" style="fill: none; stroke: #e1e0d9; stroke-width: 0.75; stroke-linecap: round"/>
     </g>
     <g id="line2d_2">
      <defs>
       <path id="m153f52cdb3" d="M 0 0 
L 0 3.5 
" style="stroke: #898781; stroke-width: 0.8"/>
      </defs>
      <g>
       <use xlink:href="#m153f52cdb3" x="37.023365" y="198.979135" style="fill: #898781; stroke: #898781; stroke-width: 0.8"/>
      </g>
     </g>
     <g id="text_1">
      <!-- −1.00 -->
      <g style="fill: #898781" transform="translate(23.232974 212.817729) scale(0.09 -0.09)">
       <defs>
        <path id="DejaVuSans-2212" d="M 678 2272 
L 4684 2272 
L 4684 1741 
L 678 1741 
L 678 2272 
z
" transform="scale(0.015625)"/>
        <path id="DejaVuSans-31" d="M 794 531 
L 1825 531 
L 1825 4091 
L 703 3866 
L 703 4441 
L 1819 4666 
L 2450 4666 
L 2450 531 
L 3481 531 
L 3481 0 
L 794 0 
L 794 531 
z
" transform="scale(0.015625)"/>
        <path id="DejaVuSans-2e" d="M 684 794 
L 1344 794 
L 1344 0 
L 684 0 
L 684 794 
z
" transform="scale(0.015625)"/>
        <path id="DejaVuSans-30" d="M 2034 4250 
Q 1547 4250 1301 3770 
Q 1056 3291 1056 2328 
Q 1056 1369 1301 889 
Q 1547 409 2034 409 
Q 2525 409 2770 889 
Q 3016 1369 3016 2328 
Q 3016 3291 2770 3770 
Q 2525 4250 2034 4250 
z
M 2034 4750 
Q 2819 4750 3233 4129 
Q 3647 3509 3647 2328 
Q 3647 1150 3233 529 
Q 2819 -91 2034 -91 
Q 1250 -91 836 529 
Q 422 1150 422 2328 
Q 422 3509 836 4129 
Q 1250 4750 2034 4750 
z
" transform="scale(0.015625)"/>
       </defs>
       <use xlink:href="#DejaVuSans-2212"/>
       <use xlink:href="#DejaVuSans-31" transform="translate(83.789062 0)"/>
       <use xlink:href="#DejaVuSans-2e" transform="translate(147.412109 0)"/>
       <use xlink:href="#DejaVuSans-30" transform="translate(179.199219 0)"/>
       <use xlink:href="#DejaVuSans-30" transform="translate(242.822266 0)"/>
      </g>
     </g>
    </g>
    <g id="xtick_2">
     <g id="line2d_3">
      <path d="M 88.367973 198.979135 
L 88.367973 16.598678 
" clip-path="url(#pde55ec949a)" style="fill: none; stroke: #e1e0d9; stroke-width: 0.75; stroke-linecap: round"/>
     </g>
     <g id="line2d_4">
      <g>
       <use xlink:href="#m153f52cdb3" x="88.367973" y="198.979135" style="fill: #898781; stroke: #898781; stroke-width: 0.8"/>
      </g>
     </g>
     <g id="text_2">
      <!-- −0.75 -->
      <g style="fill: #898781" transform="translate(74.577582 212.817729) scale(0.09 -0.09)">
       <defs>
        <path id="DejaVuSans-37" d="M 525 4666 
L 3525 4666 
L 3525 4397 
L 1831 0 
L 1172 0 
L 2766 4134 
L 525 4134 
L 525 4666 
z
" transform="scale(0.015625)"/>
        <path id="DejaVuSans-35" d="M 691 4666 
L 3169 4666 
L 3169 4134 
L 1269 4134 
L 1269 2991 
Q 1406 3038 1543 3061 
Q 1681 3084 1819 3084 
Q 2600 3084 3056 2656 
Q 3513 2228 3513 1497 
Q 3513 744 3044 326 
Q 2575 -91 1722 -91 
Q 1428 -91 1123 -41 
Q 819 9 494 109 
L 494 744 
Q 775 591 1075 516 
Q 1375 441 1709 441 
Q 2250 441 2565 725 
Q 2881 1009 2881 1497 
Q 2881 1984 2565 2268 
Q 2250 2553 1709 2553 
Q 1456 2553 1204 2497 
Q 953 2441 691 2322 
L 691 4666 
z
" transform="scale(0.015625)"/>
       </defs>
       <use xlink:href="#DejaVuSans-2212"/>
       <use xlink:href="#DejaVuSans-30" transform="translate(83.789062 0)"/>
       <use xlink:href="#DejaVuSans-2e" transform="translate(147.412109 0)"/>
       <use xlink:href="#DejaVuSans-37" transform="translate(179.199219 0)"/>
       <use xlink:href="#DejaVuSans-35" transform="translate(242.822266 0)"/>
      </g>
     </g>
    </g>
    <g id="xtick_3">
     <g id="line2d_5">
      <path d="M 139.712581 198.979135 
L 139.712581 16.598678 
" clip-path="url(#pde55ec949a)" style="fill: none; stroke: #e1e0d9; stroke-width: 0.75; stroke-linecap: round"/>
     </g>
     <g id="line2d_6">
      <g>
       <use xlink:href="#m153f52cdb3" x="139.712581" y="198.979135" style="fill: #898781; stroke: #898781; stroke-width: 0.8"/>
      </g>
     </g>
     <g id="text_3">
      <!-- −0.50 -->
      <g style="fill: #898781" transform="translate(125.92219 212.817729) scale(0.09 -0.09)">
       <use xlink:href="#DejaVuSans-2212"/>
       <use xlink:href="#DejaVuSans-30" transform="translate(83.789062 0)"/>
       <use xlink:href="#DejaVuSans-2e" transform="translate(147.412109 0)"/>
       <use xlink:href="#DejaVuSans-35" transform="translate(179.199219 0)"/>
       <use xlink:href="#DejaVuSans-30" transform="translate(242.822266 0)"/>
      </g>
     </g>
    </g>
    <g id="xtick_4">
     <g id="line2d_7">
      <path d="M 191.057189 198.979135 
L 191.057189 16.598678 
" clip-path="url(#pde55ec949a)" style="fill: none; stroke: #e1e0d9; stroke-width: 0.75; stroke-linecap: round"/>
     </g>
     <g id="line2d_8">
      <g>
       <use xlink:href="#m153f52cdb3" x="191.057189" y="198.979135" style="fill: #898781; stroke: #898781; stroke-width: 0.8"/>
      </g>
     </g>
     <g id="text_4">
      <!-- −0.25 -->
      <g style="fill: #898781" transform="translate(177.266798 212.817729) scale(0.09 -0.09)">
       <defs>
        <path id="DejaVuSans-32" d="M 1228 531 
L 3431 531 
L 3431 0 
L 469 0 
L 469 531 
Q 828 903 1448 1529 
Q 2069 2156 2228 2338 
Q 2531 2678 2651 2914 
Q 2772 3150 2772 3378 
Q 2772 3750 2511 3984 
Q 2250 4219 1831 4219 
Q 1534 4219 1204 4116 
Q 875 4013 500 3803 
L 500 4441 
Q 881 4594 1212 4672 
Q 1544 4750 1819 4750 
Q 2544 4750 2975 4387 
Q 3406 4025 3406 3419 
Q 3406 3131 3298 2873 
Q 3191 2616 2906 2266 
Q 2828 2175 2409 1742 
Q 1991 1309 1228 531 
z
" transform="scale(0.015625)"/>
       </defs>
       <use xlink:href="#DejaVuSans-2212"/>
       <use xlink:href="#DejaVuSans-30" transform="translate(83.789062 0)"/>
       <use xlink:href="#DejaVuSans-2e" transform="translate(147.412109 0)"/>
       <use xlink:href="#DejaVuSans-32" transform="translate(179.199219 0)"/>
       <use xlink:href="#DejaVuSans-35" transform="translate(242.822266 0)"/>
      </g>
     </g>
    </g>
    <g id="xtick_5">
     <g id="line2d_9">
      <path d="M 242.401797 198.979135 
L 242.401797 16.598678 
" clip-path="url(#pde55ec949a)" style="fill: none; stroke: #e1e0d9; stroke-width: 0.75; stroke-linecap: round"/>
     </g>
     <g id="line2d_10">
      <g>
       <use xlink:href="#m153f52cdb3" x="242.401797" y="198.979135" style="fill: #898781; stroke: #898781; stroke-width: 0.8"/>
      </g>
     </g>
     <g id="text_5">
      <!-- 0.00 -->
      <g style="fill: #898781" transform="translate(232.382266 212.817729) scale(0.09 -0.09)">
       <use xlink:href="#DejaVuSans-30"/>
       <use xlink:href="#DejaVuSans-2e" transform="translate(63.623047 0)"/>
       <use xlink:href="#DejaVuSans-30" transform="translate(95.410156 0)"/>
       <use xlink:href="#DejaVuSans-30" transform="translate(159.033203 0)"/>
      </g>
     </g>
    </g>
    <g id="xtick_6">
     <g id="line2d_11">
      <path d="M 293.746405 198.979135 
L 293.746405 16.598678 
" clip-path="url(#pde55ec949a)" style="fill: none; stroke: #e1e0d9; stroke-width: 0.75; stroke-linecap: round"/>
     </g>
     <g id="line2d_12">
      <g>
       <use xlink:href="#m153f52cdb3" x="293.746405" y="198.979135" style="fill: #898781; stroke: #898781; stroke-width: 0.8"/>
      </g>
     </g>
     <g id="text_6">
      <!-- 0.25 -->
      <g style="fill: #898781" transform="translate(283.726874 212.817729) scale(0.09 -0.09)">
       <use xlink:href="#DejaVuSans-30"/>
       <use xlink:href="#DejaVuSans-2e" transform="translate(63.623047 0)"/>
       <use xlink:href="#DejaVuSans-32" transform="translate(95.410156 0)"/>
       <use xlink:href="#DejaVuSans-35" transform="translate(159.033203 0)"/>
      </g>
     </g>
    </g>
    <g id="xtick_7">
     <g id="line2d_13">
      <path d="M 345.091013 198.979135 
L 345.091013 16.598678 
" clip-path="url(#pde55ec949a)" style="fill: none; stroke: #e1e0d9; stroke-width: 0.75; stroke-linecap: round"/>
     </g>
     <g id="line2d_14">
      <g>
       <use xlink:href="#m153f52cdb3" x="345.091013" y="198.979135" style="fill: #898781; stroke: #898781; stroke-width: 0.8"/>
      </g>
     </g>
     <g id="text_7">
      <!-- 0.50 -->
      <g style="fill: #898781" transform="translate(335.071482 212.817729) scale(0.09 -0.09)">
       <use xlink:href="#DejaVuSans-30"/>
       <use xlink:href="#DejaVuSans-2e" transform="translate(63.623047 0)"/>
       <use xlink:href="#DejaVuSans-35" transform="translate(95.410156 0)"/>
       <use xlink:href="#DejaVuSans-30" transform="translate(159.033203 0)"/>
      </g>
     </g>
    </g>
    <g id="xtick_8">
     <g id="line2d_15">
      <path d="M 396.435621 198.979135 
L 396.435621 16.598678 
" clip-path="url(#pde55ec949a)" style="fill: none; stroke: #e1e0d9; stroke-width: 0.75; stroke-linecap: round"/>
     </g>
     <g id="line2d_16">
      <g>
       <use xlink:href="#m153f52cdb3" x="396.435621" y="198.979135" style="fill: #898781; stroke: #898781; stroke-width: 0.8"/>
      </g>
     </g>
     <g id="text_8">
      <!-- 0.75 -->
      <g style="fill: #898781" transform="translate(386.41609 212.817729) scale(0.09 -0.09)">
       <use xlink:href="#DejaVuSans-30"/>
       <use xlink:href="#DejaVuSans-2e" transform="translate(63.623047 0)"/>
       <use xlink:href="#DejaVuSans-37" transform="translate(95.410156 0)"/>
       <use xlink:href="#DejaVuSans-35" transform="translate(159.033203 0)"/>
      </g>
     </g>
    </g>
    <g id="xtick_9">
     <g id="line2d_17">
      <path d="M 447.780229 198.979135 
L 447.780229 16.598678 
" clip-path="url(#pde55ec949a)" style="fill: none; stroke: #e1e0d9; stroke-width: 0.75; stroke-linecap: round"/>
     </g>
     <g id="line2d_18">
      <g>
       <use xlink:href="#m153f52cdb3" x="447.780229" y="198.979135" style="fill: #898781; stroke: #898781; stroke-width: 0.8"/>
      </g>
     </g>
     <g id="text_9">
      <!-- 1.00 -->
      <g style="fill: #898781" transform="translate(437.760697 212.817729) scale(0.09 -0.09)">
       <use xlink:href="#DejaVuSans-31"/>
       <use xlink:href="#DejaVuSans-2e" transform="translate(63.623047 0)"/>
       <use xlink:href="#DejaVuSans-30" transform="translate(95.410156 0)"/>
       <use xlink:href="#DejaVuSans-30" transform="translate(159.033203 0)"/>
      </g>
     </g>
    </g>
    <g id="text_10">
     <!-- window argument u (full aperture −1 … 1) -->
     <g style="fill: #52514e" transform="translate(146.648828 225.528041) scale(0.09 -0.09)">
      <defs>
       <path id="DejaVuSans-77" d="M 269 3500 
L 844 3500 
L 1563 769 
L 2278 3500 
L 2956 3500 
L 3675 769 
L 4391 3500 
L 4966 3500 
L 4050 0 
L 3372 0 
L 2619 2869 
L 1863 0 
L 1184 0 
L 269 3500 
z
" transform="scale(0.015625)"/>
       <path id="DejaVuSans-69" d="M 603 3500 
L 1178 3500 
L 1178 0 
L 603 0 
L 603 3500 
z
M 603 4863 
L 1178 4863 
L 1178 4134 
L 603 4134 
L 603 4863 
z
" transform="scale(0.015625)"/>
       <path id="DejaVuSans-6e" d="M 3513 2113 
L 3513 0 
L 2938 0 
L 2938 2094 
Q 2938 2591 2744 2837 
Q 2550 3084 2163 3084 
Q 1697 3084 1428 2787 
Q 1159 2491 1159 1978 
L 1159 0 
L 581 0 
L 581 3500 
L 1159 3500 
L 1159 2956 
Q 1366 3272 1645 3428 
Q 1925 3584 2291 3584 
Q 2894 3584 3203 3211 
Q 3513 2838 3513 2113 
z
" transform="scale(0.015625)"/>
       <path id="DejaVuSans-64" d="M 2906 2969 
L 2906 4863 
L 3481 4863 
L 3481 0 
L 2906 0 
L 2906 525 
Q 2725 213 2448 61 
Q 2172 -91 1784 -91 
Q 1150 -91 751 415 
Q 353 922 353 1747 
Q 353 2572 751 3078 
Q 1150 3584 1784 3584 
Q 2172 3584 2448 3432 
Q 2725 3281 2906 2969 
z
M 947 1747 
Q 947 1113 1208 752 
Q 1469 391 1925 391 
Q 2381 391 2643 752 
Q 2906 1113 2906 1747 
Q 2906 2381 2643 2742 
Q 2381 3103 1925 3103 
Q 1469 3103 1208 2742 
Q 947 2381 947 1747 
z
" transform="scale(0.015625)"/>
       <path id="DejaVuSans-6f" d="M 1959 3097 
Q 1497 3097 1228 2736 
Q 959 2375 959 1747 
Q 959 1119 1226 758 
Q 1494 397 1959 397 
Q 2419 397 2687 759 
Q 2956 1122 2956 1747 
Q 2956 2369 2687 2733 
Q 2419 3097 1959 3097 
z
M 1959 3584 
Q 2709 3584 3137 3096 
Q 3566 2609 3566 1747 
Q 3566 888 3137 398 
Q 2709 -91 1959 -91 
Q 1206 -91 779 398 
Q 353 888 353 1747 
Q 353 2609 779 3096 
Q 1206 3584 1959 3584 
z
" transform="scale(0.015625)"/>
       <path id="DejaVuSans-20" transform="scale(0.015625)"/>
       <path id="DejaVuSans-61" d="M 2194 1759 
Q 1497 1759 1228 1600 
Q 959 1441 959 1056 
Q 959 750 1161 570 
Q 1363 391 1709 391 
Q 2188 391 2477 730 
Q 2766 1069 2766 1631 
L 2766 1759 
L 2194 1759 
z
M 3341 1997 
L 3341 0 
L 2766 0 
L 2766 531 
Q 2569 213 2275 61 
Q 1981 -91 1556 -91 
Q 1019 -91 701 211 
Q 384 513 384 1019 
Q 384 1609 779 1909 
Q 1175 2209 1959 2209 
L 2766 2209 
L 2766 2266 
Q 2766 2663 2505 2880 
Q 2244 3097 1772 3097 
Q 1472 3097 1187 3025 
Q 903 2953 641 2809 
L 641 3341 
Q 956 3463 1253 3523 
Q 1550 3584 1831 3584 
Q 2591 3584 2966 3190 
Q 3341 2797 3341 1997 
z
" transform="scale(0.015625)"/>
       <path id="DejaVuSans-72" d="M 2631 2963 
Q 2534 3019 2420 3045 
Q 2306 3072 2169 3072 
Q 1681 3072 1420 2755 
Q 1159 2438 1159 1844 
L 1159 0 
L 581 0 
L 581 3500 
L 1159 3500 
L 1159 2956 
Q 1341 3275 1631 3429 
Q 1922 3584 2338 3584 
Q 2397 3584 2469 3576 
Q 2541 3569 2628 3553 
L 2631 2963 
z
" transform="scale(0.015625)"/>
       <path id="DejaVuSans-67" d="M 2906 1791 
Q 2906 2416 2648 2759 
Q 2391 3103 1925 3103 
Q 1463 3103 1205 2759 
Q 947 2416 947 1791 
Q 947 1169 1205 825 
Q 1463 481 1925 481 
Q 2391 481 2648 825 
Q 2906 1169 2906 1791 
z
M 3481 434 
Q 3481 -459 3084 -895 
Q 2688 -1331 1869 -1331 
Q 1566 -1331 1297 -1286 
Q 1028 -1241 775 -1147 
L 775 -588 
Q 1028 -725 1275 -790 
Q 1522 -856 1778 -856 
Q 2344 -856 2625 -561 
Q 2906 -266 2906 331 
L 2906 616 
Q 2728 306 2450 153 
Q 2172 0 1784 0 
Q 1141 0 747 490 
Q 353 981 353 1791 
Q 353 2603 747 3093 
Q 1141 3584 1784 3584 
Q 2172 3584 2450 3431 
Q 2728 3278 2906 2969 
L 2906 3500 
L 3481 3500 
L 3481 434 
z
" transform="scale(0.015625)"/>
       <path id="DejaVuSans-75" d="M 544 1381 
L 544 3500 
L 1119 3500 
L 1119 1403 
Q 1119 906 1312 657 
Q 1506 409 1894 409 
Q 2359 409 2629 706 
Q 2900 1003 2900 1516 
L 2900 3500 
L 3475 3500 
L 3475 0 
L 2900 0 
L 2900 538 
Q 2691 219 2414 64 
Q 2138 -91 1772 -91 
Q 1169 -91 856 284 
Q 544 659 544 1381 
z
M 1991 3584 
L 1991 3584 
z
" transform="scale(0.015625)"/>
       <path id="DejaVuSans-6d" d="M 3328 2828 
Q 3544 3216 3844 3400 
Q 4144 3584 4550 3584 
Q 5097 3584 5394 3201 
Q 5691 2819 5691 2113 
L 5691 0 
L 5113 0 
L 5113 2094 
Q 5113 2597 4934 2840 
Q 4756 3084 4391 3084 
Q 3944 3084 3684 2787 
Q 3425 2491 3425 1978 
L 3425 0 
L 2847 0 
L 2847 2094 
Q 2847 2600 2669 2842 
Q 2491 3084 2119 3084 
Q 1678 3084 1418 2786 
Q 1159 2488 1159 1978 
L 1159 0 
L 581 0 
L 581 3500 
L 1159 3500 
L 1159 2956 
Q 1356 3278 1631 3431 
Q 1906 3584 2284 3584 
Q 2666 3584 2933 3390 
Q 3200 3197 3328 2828 
z
" transform="scale(0.015625)"/>
       <path id="DejaVuSans-65" d="M 3597 1894 
L 3597 1613 
L 953 1613 
Q 991 1019 1311 708 
Q 1631 397 2203 397 
Q 2534 397 2845 478 
Q 3156 559 3463 722 
L 3463 178 
Q 3153 47 2828 -22 
Q 2503 -91 2169 -91 
Q 1331 -91 842 396 
Q 353 884 353 1716 
Q 353 2575 817 3079 
Q 1281 3584 2069 3584 
Q 2775 3584 3186 3129 
Q 3597 2675 3597 1894 
z
M 3022 2063 
Q 3016 2534 2758 2815 
Q 2500 3097 2075 3097 
Q 1594 3097 1305 2825 
Q 1016 2553 972 2059 
L 3022 2063 
z
" transform="scale(0.015625)"/>
       <path id="DejaVuSans-74" d="M 1172 4494 
L 1172 3500 
L 2356 3500 
L 2356 3053 
L 1172 3053 
L 1172 1153 
Q 1172 725 1289 603 
Q 1406 481 1766 481 
L 2356 481 
L 2356 0 
L 1766 0 
Q 1100 0 847 248 
Q 594 497 594 1153 
L 594 3053 
L 172 3053 
L 172 3500 
L 594 3500 
L 594 4494 
L 1172 4494 
z
" transform="scale(0.015625)"/>
       <path id="DejaVuSans-28" d="M 1984 4856 
Q 1566 4138 1362 3434 
Q 1159 2731 1159 2009 
Q 1159 1288 1364 580 
Q 1569 -128 1984 -844 
L 1484 -844 
Q 1016 -109 783 600 
Q 550 1309 550 2009 
Q 550 2706 781 3412 
Q 1013 4119 1484 4856 
L 1984 4856 
z
" transform="scale(0.015625)"/>
       <path id="DejaVuSans-66" d="M 2375 4863 
L 2375 4384 
L 1825 4384 
Q 1516 4384 1395 4259 
Q 1275 4134 1275 3809 
L 1275 3500 
L 2222 3500 
L 2222 3053 
L 1275 3053 
L 1275 0 
L 697 0 
L 697 3053 
L 147 3053 
L 147 3500 
L 697 3500 
L 697 3744 
Q 697 4328 969 4595 
Q 1241 4863 1831 4863 
L 2375 4863 
z
" transform="scale(0.015625)"/>
       <path id="DejaVuSans-6c" d="M 603 4863 
L 1178 4863 
L 1178 0 
L 603 0 
L 603 4863 
z
" transform="scale(0.015625)"/>
       <path id="DejaVuSans-70" d="M 1159 525 
L 1159 -1331 
L 581 -1331 
L 581 3500 
L 1159 3500 
L 1159 2969 
Q 1341 3281 1617 3432 
Q 1894 3584 2278 3584 
Q 2916 3584 3314 3078 
Q 3713 2572 3713 1747 
Q 3713 922 3314 415 
Q 2916 -91 2278 -91 
Q 1894 -91 1617 61 
Q 1341 213 1159 525 
z
M 3116 1747 
Q 3116 2381 2855 2742 
Q 2594 3103 2138 3103 
Q 1681 3103 1420 2742 
Q 1159 2381 1159 1747 
Q 1159 1113 1420 752 
Q 1681 391 2138 391 
Q 2594 391 2855 752 
Q 3116 1113 3116 1747 
z
" transform="scale(0.015625)"/>
       <path id="DejaVuSans-2026" d="M 2869 794 
L 3531 794 
L 3531 0 
L 2869 0 
L 2869 794 
z
M 4997 794 
L 5663 794 
L 5663 0 
L 4997 0 
L 4997 794 
z
M 738 794 
L 1403 794 
L 1403 0 
L 738 0 
L 738 794 
z
" transform="scale(0.015625)"/>
       <path id="DejaVuSans-29" d="M 513 4856 
L 1013 4856 
Q 1481 4119 1714 3412 
Q 1947 2706 1947 2009 
Q 1947 1309 1714 600 
Q 1481 -109 1013 -844 
L 513 -844 
Q 928 -128 1133 580 
Q 1338 1288 1338 2009 
Q 1338 2731 1133 3434 
Q 928 4138 513 4856 
z
" transform="scale(0.015625)"/>
      </defs>
      <use xlink:href="#DejaVuSans-77"/>
      <use xlink:href="#DejaVuSans-69" transform="translate(81.787109 0)"/>
      <use xlink:href="#DejaVuSans-6e" transform="translate(109.570312 0)"/>
      <use xlink:href="#DejaVuSans-64" transform="translate(172.949219 0)"/>
      <use xlink:href="#DejaVuSans-6f" transform="translate(236.425781 0)"/>
      <use xlink:href="#DejaVuSans-77" transform="translate(297.607422 0)"/>
      <use xlink:href="#DejaVuSans-20" transform="translate(379.394531 0)"/>
      <use xlink:href="#DejaVuSans-61" transform="translate(411.181641 0)"/>
      <use xlink:href="#DejaVuSans-72" transform="translate(472.460938 0)"/>
      <use xlink:href="#DejaVuSans-67" transform="translate(511.824219 0)"/>
      <use xlink:href="#DejaVuSans-75" transform="translate(575.300781 0)"/>
      <use xlink:href="#DejaVuSans-6d" transform="translate(638.679688 0)"/>
      <use xlink:href="#DejaVuSans-65" transform="translate(736.091797 0)"/>
      <use xlink:href="#DejaVuSans-6e" transform="translate(797.615234 0)"/>
      <use xlink:href="#DejaVuSans-74" transform="translate(860.994141 0)"/>
      <use xlink:href="#DejaVuSans-20" transform="translate(900.203125 0)"/>
      <use xlink:href="#DejaVuSans-75" transform="translate(931.990234 0)"/>
      <use xlink:href="#DejaVuSans-20" transform="translate(995.369141 0)"/>
      <use xlink:href="#DejaVuSans-28" transform="translate(1027.15625 0)"/>
      <use xlink:href="#DejaVuSans-66" transform="translate(1066.169922 0)"/>
      <use xlink:href="#DejaVuSans-75" transform="translate(1101.375 0)"/>
      <use xlink:href="#DejaVuSans-6c" transform="translate(1164.753906 0)"/>
      <use xlink:href="#DejaVuSans-6c" transform="translate(1192.537109 0)"/>
      <use xlink:href="#DejaVuSans-20" transform="translate(1220.320312 0)"/>
      <use xlink:href="#DejaVuSans-61" transform="translate(1252.107422 0)"/>
      <use xlink:href="#DejaVuSans-70" transform="translate(1313.386719 0)"/>
      <use xlink:href="#DejaVuSans-65" transform="translate(1376.863281 0)"/>
      <use xlink:href="#DejaVuSans-72" transform="translate(1438.386719 0)"/>
      <use xlink:href="#DejaVuSans-74" transform="translate(1479.5 0)"/>
      <use xlink:href="#DejaVuSans-75" transform="translate(1518.708984 0)"/>
      <use xlink:href="#DejaVuSans-72" transform="translate(1582.087891 0)"/>
      <use xlink:href="#DejaVuSans-65" transform="translate(1620.951172 0)"/>
      <use xlink:href="#DejaVuSans-20" transform="translate(1682.474609 0)"/>
      <use xlink:href="#DejaVuSans-2212" transform="translate(1714.261719 0)"/>
      <use xlink:href="#DejaVuSans-31" transform="translate(1798.050781 0)"/>
      <use xlink:href="#DejaVuSans-20" transform="translate(1861.673828 0)"/>
      <use xlink:href="#DejaVuSans-2026" transform="translate(1893.460938 0)"/>
      <use xlink:href="#DejaVuSans-20" transform="translate(1993.460938 0)"/>
      <use xlink:href="#DejaVuSans-31" transform="translate(2025.248047 0)"/>
      <use xlink:href="#DejaVuSans-29" transform="translate(2088.871094 0)"/>
     </g>
    </g>
   </g>
   <g id="matplotlib.axis_2">
    <g id="ytick_1">
     <g id="line2d_19">
      <path d="M 37.023365 198.979135 
L 447.780229 198.979135 
" clip-path="url(#pde55ec949a)" style="fill: none; stroke: #e1e0d9; stroke-width: 0.75; stroke-linecap: round"/>
     </g>
     <g id="line2d_20">
      <defs>
       <path id="m3431a29848" d="M 0 0 
L -3.5 0 
" style="stroke: #898781; stroke-width: 0.8"/>
      </defs>
      <g>
       <use xlink:href="#m3431a29848" x="37.023365" y="198.979135" style="fill: #898781; stroke: #898781; stroke-width: 0.8"/>
      </g>
     </g>
     <g id="text_11">
      <!-- 0.0 -->
      <g style="fill: #898781" transform="translate(15.710552 202.398432) scale(0.09 -0.09)">
       <use xlink:href="#DejaVuSans-30"/>
       <use xlink:href="#DejaVuSans-2e" transform="translate(63.623047 0)"/>
       <use xlink:href="#DejaVuSans-30" transform="translate(95.410156 0)"/>
      </g>
     </g>
    </g>
    <g id="ytick_2">
     <g id="line2d_21">
      <path d="M 37.023365 164.24 
L 447.780229 164.24 
" clip-path="url(#pde55ec949a)" style="fill: none; stroke: #e1e0d9; stroke-width: 0.75; stroke-linecap: round"/>
     </g>
     <g id="line2d_22">
      <g>
       <use xlink:href="#m3431a29848" x="37.023365" y="164.24" style="fill: #898781; stroke: #898781; stroke-width: 0.8"/>
      </g>
     </g>
     <g id="text_12">
      <!-- 0.2 -->
      <g style="fill: #898781" transform="translate(15.710552 167.659297) scale(0.09 -0.09)">
       <use xlink:href="#DejaVuSans-30"/>
       <use xlink:href="#DejaVuSans-2e" transform="translate(63.623047 0)"/>
       <use xlink:href="#DejaVuSans-32" transform="translate(95.410156 0)"/>
      </g>
     </g>
    </g>
    <g id="ytick_3">
     <g id="line2d_23">
      <path d="M 37.023365 129.500865 
L 447.780229 129.500865 
" clip-path="url(#pde55ec949a)" style="fill: none; stroke: #e1e0d9; stroke-width: 0.75; stroke-linecap: round"/>
     </g>
     <g id="line2d_24">
      <g>
       <use xlink:href="#m3431a29848" x="37.023365" y="129.500865" style="fill: #898781; stroke: #898781; stroke-width: 0.8"/>
      </g>
     </g>
     <g id="text_13">
      <!-- 0.4 -->
      <g style="fill: #898781" transform="translate(15.710552 132.920162) scale(0.09 -0.09)">
       <defs>
        <path id="DejaVuSans-34" d="M 2419 4116 
L 825 1625 
L 2419 1625 
L 2419 4116 
z
M 2253 4666 
L 3047 4666 
L 3047 1625 
L 3713 1625 
L 3713 1100 
L 3047 1100 
L 3047 0 
L 2419 0 
L 2419 1100 
L 313 1100 
L 313 1709 
L 2253 4666 
z
" transform="scale(0.015625)"/>
       </defs>
       <use xlink:href="#DejaVuSans-30"/>
       <use xlink:href="#DejaVuSans-2e" transform="translate(63.623047 0)"/>
       <use xlink:href="#DejaVuSans-34" transform="translate(95.410156 0)"/>
      </g>
     </g>
    </g>
    <g id="ytick_4">
     <g id="line2d_25">
      <path d="M 37.023365 94.761731 
L 447.780229 94.761731 
" clip-path="url(#pde55ec949a)" style="fill: none; stroke: #e1e0d9; stroke-width: 0.75; stroke-linecap: round"/>
     </g>
     <g id="line2d_26">
      <g>
       <use xlink:href="#m3431a29848" x="37.023365" y="94.761731" style="fill: #898781; stroke: #898781; stroke-width: 0.8"/>
      </g>
     </g>
     <g id="text_14">
      <!-- 0.6 -->
      <g style="fill: #898781" transform="translate(15.710552 98.181028) scale(0.09 -0.09)">
       <defs>
        <path id="DejaVuSans-36" d="M 2113 2584 
Q 1688 2584 1439 2293 
Q 1191 2003 1191 1497 
Q 1191 994 1439 701 
Q 1688 409 2113 409 
Q 2538 409 2786 701 
Q 3034 994 3034 1497 
Q 3034 2003 2786 2293 
Q 2538 2584 2113 2584 
z
M 3366 4563 
L 3366 3988 
Q 3128 4100 2886 4159 
Q 2644 4219 2406 4219 
Q 1781 4219 1451 3797 
Q 1122 3375 1075 2522 
Q 1259 2794 1537 2939 
Q 1816 3084 2150 3084 
Q 2853 3084 3261 2657 
Q 3669 2231 3669 1497 
Q 3669 778 3244 343 
Q 2819 -91 2113 -91 
Q 1303 -91 875 529 
Q 447 1150 447 2328 
Q 447 3434 972 4092 
Q 1497 4750 2381 4750 
Q 2619 4750 2861 4703 
Q 3103 4656 3366 4563 
z
" transform="scale(0.015625)"/>
       </defs>
       <use xlink:href="#DejaVuSans-30"/>
       <use xlink:href="#DejaVuSans-2e" transform="translate(63.623047 0)"/>
       <use xlink:href="#DejaVuSans-36" transform="translate(95.410156 0)"/>
      </g>
     </g>
    </g>
    <g id="ytick_5">
     <g id="line2d_27">
      <path d="M 37.023365 60.022596 
L 447.780229 60.022596 
" clip-path="url(#pde55ec949a)" style="fill: none; stroke: #e1e0d9; stroke-width: 0.75; stroke-linecap: round"/>
     </g>
     <g id="line2d_28">
      <g>
       <use xlink:href="#m3431a29848" x="37.023365" y="60.022596" style="fill: #898781; stroke: #898781; stroke-width: 0.8"/>
      </g>
     </g>
     <g id="text_15">
      <!-- 0.8 -->
      <g style="fill: #898781" transform="translate(15.710552 63.441893) scale(0.09 -0.09)">
       <defs>
        <path id="DejaVuSans-38" d="M 2034 2216 
Q 1584 2216 1326 1975 
Q 1069 1734 1069 1313 
Q 1069 891 1326 650 
Q 1584 409 2034 409 
Q 2484 409 2743 651 
Q 3003 894 3003 1313 
Q 3003 1734 2745 1975 
Q 2488 2216 2034 2216 
z
M 1403 2484 
Q 997 2584 770 2862 
Q 544 3141 544 3541 
Q 544 4100 942 4425 
Q 1341 4750 2034 4750 
Q 2731 4750 3128 4425 
Q 3525 4100 3525 3541 
Q 3525 3141 3298 2862 
Q 3072 2584 2669 2484 
Q 3125 2378 3379 2068 
Q 3634 1759 3634 1313 
Q 3634 634 3220 271 
Q 2806 -91 2034 -91 
Q 1263 -91 848 271 
Q 434 634 434 1313 
Q 434 1759 690 2068 
Q 947 2378 1403 2484 
z
M 1172 3481 
Q 1172 3119 1398 2916 
Q 1625 2713 2034 2713 
Q 2441 2713 2670 2916 
Q 2900 3119 2900 3481 
Q 2900 3844 2670 4047 
Q 2441 4250 2034 4250 
Q 1625 4250 1398 4047 
Q 1172 3844 1172 3481 
z
" transform="scale(0.015625)"/>
       </defs>
       <use xlink:href="#DejaVuSans-30"/>
       <use xlink:href="#DejaVuSans-2e" transform="translate(63.623047 0)"/>
       <use xlink:href="#DejaVuSans-38" transform="translate(95.410156 0)"/>
      </g>
     </g>
    </g>
    <g id="ytick_6">
     <g id="line2d_29">
      <path d="M 37.023365 25.283461 
L 447.780229 25.283461 
" clip-path="url(#pde55ec949a)" style="fill: none; stroke: #e1e0d9; stroke-width: 0.75; stroke-linecap: round"/>
     </g>
     <g id="line2d_30">
      <g>
       <use xlink:href="#m3431a29848" x="37.023365" y="25.283461" style="fill: #898781; stroke: #898781; stroke-width: 0.8"/>
      </g>
     </g>
     <g id="text_16">
      <!-- 1.0 -->
      <g style="fill: #898781" transform="translate(15.710552 28.702758) scale(0.09 -0.09)">
       <use xlink:href="#DejaVuSans-31"/>
       <use xlink:href="#DejaVuSans-2e" transform="translate(63.623047 0)"/>
       <use xlink:href="#DejaVuSans-30" transform="translate(95.410156 0)"/>
      </g>
     </g>
    </g>
    <g id="text_17">
     <!-- w(u) -->
     <g style="fill: #52514e" transform="translate(9.838834 117.832344) rotate(-90) scale(0.09 -0.09)">
      <use xlink:href="#DejaVuSans-77"/>
      <use xlink:href="#DejaVuSans-28" transform="translate(81.787109 0)"/>
      <use xlink:href="#DejaVuSans-75" transform="translate(120.800781 0)"/>
      <use xlink:href="#DejaVuSans-29" transform="translate(184.179688 0)"/>
     </g>
    </g>
   </g>
   <g id="line2d_31">
    <path d="M 37.023365 198.890748 
L 46.265394 198.595695 
L 53.45364 198.158954 
L 59.614993 197.580613 
L 65.262899 196.837905 
L 70.39736 195.947894 
L 75.018375 194.941756 
L 79.63939 193.713618 
L 84.260404 192.236433 
L 88.367973 190.692585 
L 92.475542 188.91238 
L 96.58311 186.87831 
L 100.690679 184.574084 
L 104.798248 181.98501 
L 108.905816 179.098379 
L 113.013385 175.903843 
L 117.120953 172.393783 
L 121.228522 168.56366 
L 125.336091 164.412333 
L 129.443659 159.942345 
L 133.551228 155.160161 
L 138.172243 149.420378 
L 142.793257 143.320497 
L 147.927718 136.155344 
L 153.575625 127.859768 
L 159.736978 118.407005 
L 167.952115 105.358533 
L 185.922728 76.660649 
L 192.084081 67.343315 
L 197.218542 59.993168 
L 201.839557 53.788051 
L 205.947125 48.657204 
L 209.541248 44.503099 
L 213.13537 40.69277 
L 216.216047 37.721069 
L 219.296723 35.037709 
L 222.3774 32.657027 
L 225.458076 30.591836 
L 228.025307 29.119964 
L 230.592537 27.880542 
L 233.159767 26.878273 
L 235.726998 26.116968 
L 238.294228 25.599532 
L 240.861459 25.32794 
L 243.428689 25.303231 
L 245.995919 25.525499 
L 248.56315 25.993895 
L 251.13038 26.706628 
L 253.697611 27.660981 
L 256.264841 28.85332 
L 258.832071 30.279121 
L 261.399302 31.932989 
L 264.479978 34.209852 
L 267.560655 36.79384 
L 270.641331 39.67111 
L 273.722008 42.826369 
L 277.31613 46.836612 
L 280.910253 51.174133 
L 285.017821 56.493056 
L 289.638836 62.880792 
L 294.773297 70.396375 
L 300.93465 79.858846 
L 309.149787 92.940943 
L 325.580062 119.208052 
L 332.254861 129.39707 
L 337.902768 137.618914 
L 343.037228 144.705798 
L 347.658243 150.72787 
L 352.279258 156.384468 
L 356.386827 161.089432 
L 360.494395 165.480204 
L 364.601964 169.55132 
L 368.709532 173.301182 
L 372.817101 176.73181 
L 376.92467 179.848543 
L 381.032238 182.659716 
L 385.139807 185.176302 
L 389.247376 187.411542 
L 393.354944 189.380565 
L 397.462513 191.1 
L 401.570082 192.587602 
L 406.191096 194.007107 
L 410.812111 195.183579 
L 415.946572 196.238575 
L 421.081033 197.063226 
L 426.728939 197.745878 
L 432.890292 198.271778 
L 440.078538 198.662661 
L 447.780229 198.890748 
L 447.780229 198.890748 
" clip-path="url(#pde55ec949a)" style="fill: none; stroke: #2a78d6; stroke-width: 1.5; stroke-linecap: round"/>
   </g>
   <g id="line2d_32">
    <path d="M 37.023365 198.972025 
L 52.940193 198.82625 
L 62.695669 198.52743 
L 70.39736 198.068763 
L 76.558713 197.488946 
L 82.20662 196.734244 
L 87.341081 195.815547 
L 91.962096 194.760731 
L 96.069664 193.612355 
L 100.177233 192.238968 
L 104.284801 190.614577 
L 107.878924 188.966987 
L 111.473047 187.090502 
L 115.067169 184.968952 
L 118.661292 182.587243 
L 122.255414 179.931718 
L 125.849537 176.990519 
L 129.443659 173.753952 
L 133.037782 170.214843 
L 136.631904 166.368888 
L 140.226027 162.214967 
L 144.333596 157.093726 
L 148.441164 151.582971 
L 152.548733 145.698979 
L 157.169748 138.662663 
L 161.790762 131.227737 
L 167.438669 121.681182 
L 174.113468 109.909725 
L 196.705096 69.589509 
L 201.326111 61.985855 
L 205.433679 55.614549 
L 209.027802 50.399333 
L 212.621924 45.569341 
L 215.702601 41.769796 
L 218.783277 38.312182 
L 221.863954 35.220574 
L 224.431184 32.939592 
L 226.998414 30.939177 
L 229.565645 29.229255 
L 232.132875 27.818355 
L 234.18666 26.909735 
L 236.240444 26.199969 
L 238.294228 25.691348 
L 240.348013 25.385516 
L 242.401797 25.283461 
L 244.455581 25.385516 
L 246.509366 25.691348 
L 248.56315 26.199969 
L 250.616934 26.909735 
L 252.670718 27.818355 
L 255.237949 29.229255 
L 257.805179 30.939177 
L 260.37241 32.939592 
L 262.93964 35.220574 
L 265.50687 37.770879 
L 268.587547 41.169105 
L 271.668223 44.913424 
L 275.262346 49.684678 
L 278.856469 54.847697 
L 282.964037 61.16779 
L 287.585052 68.725007 
L 292.719513 77.550831 
L 299.907758 90.390041 
L 315.824586 119.004456 
L 321.985939 129.526764 
L 327.1204 137.855327 
L 331.741415 144.93832 
L 335.848983 150.867474 
L 339.956552 156.425916 
L 344.064121 161.596502 
L 347.658243 165.794309 
L 351.252366 169.68427 
L 354.846488 173.267021 
L 358.440611 176.546433 
L 362.034733 179.529288 
L 365.628856 182.224944 
L 369.222979 184.644971 
L 372.817101 186.802793 
L 376.411224 188.713318 
L 380.005346 190.392586 
L 384.112915 192.05018 
L 388.220484 193.453518 
L 392.328052 194.628608 
L 396.949067 195.709701 
L 401.570082 196.569738 
L 406.704542 197.306634 
L 412.352449 197.899892 
L 419.027248 198.373446 
L 427.242386 198.714894 
L 438.024753 198.915112 
L 447.780229 198.972025 
L 447.780229 198.972025 
" clip-path="url(#pde55ec949a)" style="fill: none; stroke: #1baf7a; stroke-width: 1.5; stroke-linecap: round"/>
   </g>
   <g id="line2d_33">
    <path d="M 37.023365 198.978281 
L 61.155331 198.858943 
L 71.937698 198.589279 
L 79.63939 198.187918 
L 85.800743 197.666023 
L 91.448649 196.969527 
L 96.58311 196.102421 
L 101.204125 195.087075 
L 105.311694 193.962872 
L 109.419262 192.597814 
L 113.013385 191.180638 
L 116.607507 189.532785 
L 120.20163 187.632663 
L 123.795752 185.459285 
L 127.389875 182.992745 
L 130.983998 180.214742 
L 134.57812 177.109117 
L 138.172243 173.66241 
L 141.766365 169.86441 
L 145.360488 165.708692 
L 148.95461 161.193131 
L 152.548733 156.320364 
L 156.142855 151.098198 
L 160.250424 144.719512 
L 164.357993 137.931131 
L 168.979007 129.853643 
L 174.113468 120.415895 
L 180.274821 108.613731 
L 200.299218 69.833351 
L 204.920233 61.574042 
L 209.027802 54.69233 
L 212.621924 49.104312 
L 215.702601 44.685212 
L 218.783277 40.646381 
L 221.350508 37.595394 
L 223.917738 34.849543 
L 226.484968 32.42498 
L 229.052199 30.336089 
L 231.105983 28.915116 
L 233.159767 27.722465 
L 235.213552 26.762744 
L 237.267336 26.039669 
L 239.32112 25.55605 
L 241.374905 25.313769 
L 243.428689 25.313769 
L 245.482473 25.55605 
L 247.536258 26.039669 
L 249.590042 26.762744 
L 251.643826 27.722465 
L 253.697611 28.915116 
L 255.751395 30.336089 
L 258.318625 32.42498 
L 260.885856 34.849543 
L 263.453086 37.595394 
L 266.020317 40.646381 
L 269.100993 44.685212 
L 272.181669 49.104312 
L 275.775792 54.69233 
L 279.369915 60.687942 
L 283.477483 67.957295 
L 288.611944 77.52603 
L 295.800189 91.476283 
L 309.149787 117.506266 
L 314.797694 128.001831 
L 319.932155 137.055617 
L 324.55317 144.719512 
L 328.660738 151.098198 
L 332.768307 157.038106 
L 336.362429 161.860196 
L 339.956552 166.324397 
L 343.550675 170.428777 
L 347.144797 174.176105 
L 350.73892 177.573379 
L 354.333042 180.631307 
L 357.927165 183.363771 
L 361.521287 185.787267 
L 365.11541 187.920359 
L 368.709532 189.783138 
L 372.303655 191.396708 
L 375.897778 192.782707 
L 380.005346 194.115921 
L 384.112915 195.212224 
L 388.73393 196.200676 
L 393.354944 196.969527 
L 398.489405 197.612251 
L 404.650758 198.152264 
L 411.839003 198.54835 
L 421.081033 198.816177 
L 434.430631 198.952977 
L 447.780229 198.978281 
L 447.780229 198.978281 
" clip-path="url(#pde55ec949a)" style="fill: none; stroke: #eda100; stroke-width: 1.5; stroke-linecap: round"/>
   </g>
   <g id="patch_3">
    <path d="M 37.023365 198.979135 
L 37.023365 16.598678 
" style="fill: none; stroke: #c3c2b7; stroke-width: 0.75; stroke-linejoin: miter; stroke-linecap: square"/>
   </g>
   <g id="patch_4">
    <path d="M 37.023365 198.979135 
L 447.780229 198.979135 
" style="fill: none; stroke: #c3c2b7; stroke-width: 0.75; stroke-linejoin: miter; stroke-linecap: square"/>
   </g>
   <g id="text_18">
    <g id="patch_5">
     <path d="M 108.462253 158.730079 
L 126.463659 158.730079 
L 126.463659 148.463673 
L 108.462253 148.463673 
z
" style="fill: #fcfcfb"/>
    </g>
    <!-- fast -->
    <g style="fill: #52514e" transform="translate(109.482253 155.942345) scale(0.085 -0.085)">
     <defs>
      <path id="DejaVuSans-73" d="M 2834 3397 
L 2834 2853 
Q 2591 2978 2328 3040 
Q 2066 3103 1784 3103 
Q 1356 3103 1142 2972 
Q 928 2841 928 2578 
Q 928 2378 1081 2264 
Q 1234 2150 1697 2047 
L 1894 2003 
Q 2506 1872 2764 1633 
Q 3022 1394 3022 966 
Q 3022 478 2636 193 
Q 2250 -91 1575 -91 
Q 1294 -91 989 -36 
Q 684 19 347 128 
L 347 722 
Q 666 556 975 473 
Q 1284 391 1588 391 
Q 1994 391 2212 530 
Q 2431 669 2431 922 
Q 2431 1156 2273 1281 
Q 2116 1406 1581 1522 
L 1381 1569 
Q 847 1681 609 1914 
Q 372 2147 372 2553 
Q 372 3047 722 3315 
Q 1072 3584 1716 3584 
Q 2034 3584 2315 3537 
Q 2597 3491 2834 3397 
z
" transform="scale(0.015625)"/>
     </defs>
     <use xlink:href="#DejaVuSans-66"/>
     <use xlink:href="#DejaVuSans-61" transform="translate(35.205078 0)"/>
     <use xlink:href="#DejaVuSans-73" transform="translate(96.484375 0)"/>
     <use xlink:href="#DejaVuSans-74" transform="translate(148.583984 0)"/>
    </g>
   </g>
   <g id="text_19">
    <g id="patch_6">
     <path d="M 85.561394 172.541686 
L 126.463659 172.541686 
L 126.463659 162.27528 
L 85.561394 162.27528 
z
" style="fill: #fcfcfb"/>
    </g>
    <!-- balanced -->
    <g style="fill: #52514e" transform="translate(86.581394 169.753952) scale(0.085 -0.085)">
     <defs>
      <path id="DejaVuSans-62" d="M 3116 1747 
Q 3116 2381 2855 2742 
Q 2594 3103 2138 3103 
Q 1681 3103 1420 2742 
Q 1159 2381 1159 1747 
Q 1159 1113 1420 752 
Q 1681 391 2138 391 
Q 2594 391 2855 752 
Q 3116 1113 3116 1747 
z
M 1159 2969 
Q 1341 3281 1617 3432 
Q 1894 3584 2278 3584 
Q 2916 3584 3314 3078 
Q 3713 2572 3713 1747 
Q 3713 922 3314 415 
Q 2916 -91 2278 -91 
Q 1894 -91 1617 61 
Q 1341 213 1159 525 
L 1159 0 
L 581 0 
L 581 4863 
L 1159 4863 
L 1159 2969 
z
" transform="scale(0.015625)"/>
      <path id="DejaVuSans-63" d="M 3122 3366 
L 3122 2828 
Q 2878 2963 2633 3030 
Q 2388 3097 2138 3097 
Q 1578 3097 1268 2742 
Q 959 2388 959 1747 
Q 959 1106 1268 751 
Q 1578 397 2138 397 
Q 2388 397 2633 464 
Q 2878 531 3122 666 
L 3122 134 
Q 2881 22 2623 -34 
Q 2366 -91 2075 -91 
Q 1284 -91 818 406 
Q 353 903 353 1747 
Q 353 2603 823 3093 
Q 1294 3584 2113 3584 
Q 2378 3584 2631 3529 
Q 2884 3475 3122 3366 
z
" transform="scale(0.015625)"/>
     </defs>
     <use xlink:href="#DejaVuSans-62"/>
     <use xlink:href="#DejaVuSans-61" transform="translate(63.476562 0)"/>
     <use xlink:href="#DejaVuSans-6c" transform="translate(124.755859 0)"/>
     <use xlink:href="#DejaVuSans-61" transform="translate(152.539062 0)"/>
     <use xlink:href="#DejaVuSans-6e" transform="translate(213.818359 0)"/>
     <use xlink:href="#DejaVuSans-63" transform="translate(277.197266 0)"/>
     <use xlink:href="#DejaVuSans-65" transform="translate(332.177734 0)"/>
     <use xlink:href="#DejaVuSans-64" transform="translate(393.701172 0)"/>
    </g>
   </g>
   <g id="text_20">
    <g id="patch_7">
     <path d="M 74.715925 180.232279 
L 126.463659 180.232279 
L 126.463659 169.965873 
L 74.715925 169.965873 
z
" style="fill: #fcfcfb"/>
    </g>
    <!-- transparent -->
    <g style="fill: #52514e" transform="translate(75.735925 177.444545) scale(0.085 -0.085)">
     <use xlink:href="#DejaVuSans-74"/>
     <use xlink:href="#DejaVuSans-72" transform="translate(39.208984 0)"/>
     <use xlink:href="#DejaVuSans-61" transform="translate(80.322266 0)"/>
     <use xlink:href="#DejaVuSans-6e" transform="translate(141.601562 0)"/>
     <use xlink:href="#DejaVuSans-73" transform="translate(204.980469 0)"/>
     <use xlink:href="#DejaVuSans-70" transform="translate(257.080078 0)"/>
     <use xlink:href="#DejaVuSans-61" transform="translate(320.556641 0)"/>
     <use xlink:href="#DejaVuSans-72" transform="translate(381.835938 0)"/>
     <use xlink:href="#DejaVuSans-65" transform="translate(420.699219 0)"/>
     <use xlink:href="#DejaVuSans-6e" transform="translate(482.222656 0)"/>
     <use xlink:href="#DejaVuSans-74" transform="translate(545.601562 0)"/>
    </g>
   </g>
   <g id="text_21">
    <!-- Kaiser window: attenuation buys taper -->
    <g style="fill: #0b0b0b" transform="translate(146.008047 10.598678) scale(0.1 -0.1)">
     <defs>
      <path id="DejaVuSans-4b" d="M 628 4666 
L 1259 4666 
L 1259 2694 
L 3353 4666 
L 4166 4666 
L 1850 2491 
L 4331 0 
L 3500 0 
L 1259 2247 
L 1259 0 
L 628 0 
L 628 4666 
z
" transform="scale(0.015625)"/>
      <path id="DejaVuSans-3a" d="M 750 794 
L 1409 794 
L 1409 0 
L 750 0 
L 750 794 
z
M 750 3309 
L 1409 3309 
L 1409 2516 
L 750 2516 
L 750 3309 
z
" transform="scale(0.015625)"/>
      <path id="DejaVuSans-79" d="M 2059 -325 
Q 1816 -950 1584 -1140 
Q 1353 -1331 966 -1331 
L 506 -1331 
L 506 -850 
L 844 -850 
Q 1081 -850 1212 -737 
Q 1344 -625 1503 -206 
L 1606 56 
L 191 3500 
L 800 3500 
L 1894 763 
L 2988 3500 
L 3597 3500 
L 2059 -325 
z
" transform="scale(0.015625)"/>
     </defs>
     <use xlink:href="#DejaVuSans-4b"/>
     <use xlink:href="#DejaVuSans-61" transform="translate(63.826172 0)"/>
     <use xlink:href="#DejaVuSans-69" transform="translate(125.105469 0)"/>
     <use xlink:href="#DejaVuSans-73" transform="translate(152.888672 0)"/>
     <use xlink:href="#DejaVuSans-65" transform="translate(204.988281 0)"/>
     <use xlink:href="#DejaVuSans-72" transform="translate(266.511719 0)"/>
     <use xlink:href="#DejaVuSans-20" transform="translate(307.625 0)"/>
     <use xlink:href="#DejaVuSans-77" transform="translate(339.412109 0)"/>
     <use xlink:href="#DejaVuSans-69" transform="translate(421.199219 0)"/>
     <use xlink:href="#DejaVuSans-6e" transform="translate(448.982422 0)"/>
     <use xlink:href="#DejaVuSans-64" transform="translate(512.361328 0)"/>
     <use xlink:href="#DejaVuSans-6f" transform="translate(575.837891 0)"/>
     <use xlink:href="#DejaVuSans-77" transform="translate(637.019531 0)"/>
     <use xlink:href="#DejaVuSans-3a" transform="translate(713.306641 0)"/>
     <use xlink:href="#DejaVuSans-20" transform="translate(746.998047 0)"/>
     <use xlink:href="#DejaVuSans-61" transform="translate(778.785156 0)"/>
     <use xlink:href="#DejaVuSans-74" transform="translate(840.064453 0)"/>
     <use xlink:href="#DejaVuSans-74" transform="translate(879.273438 0)"/>
     <use xlink:href="#DejaVuSans-65" transform="translate(918.482422 0)"/>
     <use xlink:href="#DejaVuSans-6e" transform="translate(980.005859 0)"/>
     <use xlink:href="#DejaVuSans-75" transform="translate(1043.384766 0)"/>
     <use xlink:href="#DejaVuSans-61" transform="translate(1106.763672 0)"/>
     <use xlink:href="#DejaVuSans-74" transform="translate(1168.042969 0)"/>
     <use xlink:href="#DejaVuSans-69" transform="translate(1207.251953 0)"/>
     <use xlink:href="#DejaVuSans-6f" transform="translate(1235.035156 0)"/>
     <use xlink:href="#DejaVuSans-6e" transform="translate(1296.216797 0)"/>
     <use xlink:href="#DejaVuSans-20" transform="translate(1359.595703 0)"/>
     <use xlink:href="#DejaVuSans-62" transform="translate(1391.382812 0)"/>
     <use xlink:href="#DejaVuSans-75" transform="translate(1454.859375 0)"/>
     <use xlink:href="#DejaVuSans-79" transform="translate(1518.238281 0)"/>
     <use xlink:href="#DejaVuSans-73" transform="translate(1577.417969 0)"/>
     <use xlink:href="#DejaVuSans-20" transform="translate(1629.517578 0)"/>
     <use xlink:href="#DejaVuSans-74" transform="translate(1661.304688 0)"/>
     <use xlink:href="#DejaVuSans-61" transform="translate(1700.513672 0)"/>
     <use xlink:href="#DejaVuSans-70" transform="translate(1761.792969 0)"/>
     <use xlink:href="#DejaVuSans-65" transform="translate(1825.269531 0)"/>
     <use xlink:href="#DejaVuSans-72" transform="translate(1886.792969 0)"/>
    </g>
   </g>
   <g id="legend_1">
    <g id="line2d_34">
     <path d="M 288.625697 27.785474 
L 297.125697 27.785474 
L 305.625697 27.785474 
" style="fill: none; stroke: #2a78d6; stroke-width: 1.5; stroke-linecap: round"/>
    </g>
    <g id="text_22">
     <!-- fast: 96 dB, β = 9.6 -->
     <g style="fill: #0b0b0b" transform="translate(312.425697 30.760474) scale(0.085 -0.085)">
      <defs>
       <path id="DejaVuSans-39" d="M 703 97 
L 703 672 
Q 941 559 1184 500 
Q 1428 441 1663 441 
Q 2288 441 2617 861 
Q 2947 1281 2994 2138 
Q 2813 1869 2534 1725 
Q 2256 1581 1919 1581 
Q 1219 1581 811 2004 
Q 403 2428 403 3163 
Q 403 3881 828 4315 
Q 1253 4750 1959 4750 
Q 2769 4750 3195 4129 
Q 3622 3509 3622 2328 
Q 3622 1225 3098 567 
Q 2575 -91 1691 -91 
Q 1453 -91 1209 -44 
Q 966 3 703 97 
z
M 1959 2075 
Q 2384 2075 2632 2365 
Q 2881 2656 2881 3163 
Q 2881 3666 2632 3958 
Q 2384 4250 1959 4250 
Q 1534 4250 1286 3958 
Q 1038 3666 1038 3163 
Q 1038 2656 1286 2365 
Q 1534 2075 1959 2075 
z
" transform="scale(0.015625)"/>
       <path id="DejaVuSans-42" d="M 1259 2228 
L 1259 519 
L 2272 519 
Q 2781 519 3026 730 
Q 3272 941 3272 1375 
Q 3272 1813 3026 2020 
Q 2781 2228 2272 2228 
L 1259 2228 
z
M 1259 4147 
L 1259 2741 
L 2194 2741 
Q 2656 2741 2882 2914 
Q 3109 3088 3109 3444 
Q 3109 3797 2882 3972 
Q 2656 4147 2194 4147 
L 1259 4147 
z
M 628 4666 
L 2241 4666 
Q 2963 4666 3353 4366 
Q 3744 4066 3744 3513 
Q 3744 3084 3544 2831 
Q 3344 2578 2956 2516 
Q 3422 2416 3680 2098 
Q 3938 1781 3938 1306 
Q 3938 681 3513 340 
Q 3088 0 2303 0 
L 628 0 
L 628 4666 
z
" transform="scale(0.015625)"/>
       <path id="DejaVuSans-2c" d="M 750 794 
L 1409 794 
L 1409 256 
L 897 -744 
L 494 -744 
L 750 256 
L 750 794 
z
" transform="scale(0.015625)"/>
       <path id="DejaVuSans-3b2" d="M 1178 216 
L 1178 -1331 
L 600 -1331 
L 600 3478 
Q 600 4903 1931 4903 
Q 3288 4903 3288 3700 
Q 3288 2844 2750 2531 
Q 3625 2250 3625 1416 
Q 3625 -66 2119 -66 
Q 1456 -66 1178 216 
z
M 1178 966 
Q 1525 425 2141 425 
Q 3041 425 3041 1406 
Q 3041 2288 1591 2219 
L 1591 2750 
Q 2725 2750 2725 3750 
Q 2725 4434 1994 4434 
Q 1178 4434 1178 3459 
L 1178 966 
z
" transform="scale(0.015625)"/>
       <path id="DejaVuSans-3d" d="M 678 2906 
L 4684 2906 
L 4684 2381 
L 678 2381 
L 678 2906 
z
M 678 1631 
L 4684 1631 
L 4684 1100 
L 678 1100 
L 678 1631 
z
" transform="scale(0.015625)"/>
      </defs>
      <use xlink:href="#DejaVuSans-66"/>
      <use xlink:href="#DejaVuSans-61" transform="translate(35.205078 0)"/>
      <use xlink:href="#DejaVuSans-73" transform="translate(96.484375 0)"/>
      <use xlink:href="#DejaVuSans-74" transform="translate(148.583984 0)"/>
      <use xlink:href="#DejaVuSans-3a" transform="translate(187.792969 0)"/>
      <use xlink:href="#DejaVuSans-20" transform="translate(221.484375 0)"/>
      <use xlink:href="#DejaVuSans-39" transform="translate(253.271484 0)"/>
      <use xlink:href="#DejaVuSans-36" transform="translate(316.894531 0)"/>
      <use xlink:href="#DejaVuSans-20" transform="translate(380.517578 0)"/>
      <use xlink:href="#DejaVuSans-64" transform="translate(412.304688 0)"/>
      <use xlink:href="#DejaVuSans-42" transform="translate(475.78125 0)"/>
      <use xlink:href="#DejaVuSans-2c" transform="translate(544.384766 0)"/>
      <use xlink:href="#DejaVuSans-20" transform="translate(576.171875 0)"/>
      <use xlink:href="#DejaVuSans-3b2" transform="translate(607.958984 0)"/>
      <use xlink:href="#DejaVuSans-20" transform="translate(671.777344 0)"/>
      <use xlink:href="#DejaVuSans-3d" transform="translate(703.564453 0)"/>
      <use xlink:href="#DejaVuSans-20" transform="translate(787.353516 0)"/>
      <use xlink:href="#DejaVuSans-39" transform="translate(819.140625 0)"/>
      <use xlink:href="#DejaVuSans-2e" transform="translate(882.763672 0)"/>
      <use xlink:href="#DejaVuSans-36" transform="translate(914.550781 0)"/>
     </g>
    </g>
    <g id="line2d_35">
     <path d="M 288.625697 40.315006 
L 297.125697 40.315006 
L 305.625697 40.315006 
" style="fill: none; stroke: #1baf7a; stroke-width: 1.5; stroke-linecap: round"/>
    </g>
    <g id="text_23">
     <!-- balanced: 120 dB, β = 12.3 -->
     <g style="fill: #0b0b0b" transform="translate(312.425697 43.290006) scale(0.085 -0.085)">
      <defs>
       <path id="DejaVuSans-33" d="M 2597 2516 
Q 3050 2419 3304 2112 
Q 3559 1806 3559 1356 
Q 3559 666 3084 287 
Q 2609 -91 1734 -91 
Q 1441 -91 1130 -33 
Q 819 25 488 141 
L 488 750 
Q 750 597 1062 519 
Q 1375 441 1716 441 
Q 2309 441 2620 675 
Q 2931 909 2931 1356 
Q 2931 1769 2642 2001 
Q 2353 2234 1838 2234 
L 1294 2234 
L 1294 2753 
L 1863 2753 
Q 2328 2753 2575 2939 
Q 2822 3125 2822 3475 
Q 2822 3834 2567 4026 
Q 2313 4219 1838 4219 
Q 1578 4219 1281 4162 
Q 984 4106 628 3988 
L 628 4550 
Q 988 4650 1302 4700 
Q 1616 4750 1894 4750 
Q 2613 4750 3031 4423 
Q 3450 4097 3450 3541 
Q 3450 3153 3228 2886 
Q 3006 2619 2597 2516 
z
" transform="scale(0.015625)"/>
      </defs>
      <use xlink:href="#DejaVuSans-62"/>
      <use xlink:href="#DejaVuSans-61" transform="translate(63.476562 0)"/>
      <use xlink:href="#DejaVuSans-6c" transform="translate(124.755859 0)"/>
      <use xlink:href="#DejaVuSans-61" transform="translate(152.539062 0)"/>
      <use xlink:href="#DejaVuSans-6e" transform="translate(213.818359 0)"/>
      <use xlink:href="#DejaVuSans-63" transform="translate(277.197266 0)"/>
      <use xlink:href="#DejaVuSans-65" transform="translate(332.177734 0)"/>
      <use xlink:href="#DejaVuSans-64" transform="translate(393.701172 0)"/>
      <use xlink:href="#DejaVuSans-3a" transform="translate(457.177734 0)"/>
      <use xlink:href="#DejaVuSans-20" transform="translate(490.869141 0)"/>
      <use xlink:href="#DejaVuSans-31" transform="translate(522.65625 0)"/>
      <use xlink:href="#DejaVuSans-32" transform="translate(586.279297 0)"/>
      <use xlink:href="#DejaVuSans-30" transform="translate(649.902344 0)"/>
      <use xlink:href="#DejaVuSans-20" transform="translate(713.525391 0)"/>
      <use xlink:href="#DejaVuSans-64" transform="translate(745.3125 0)"/>
      <use xlink:href="#DejaVuSans-42" transform="translate(808.789062 0)"/>
      <use xlink:href="#DejaVuSans-2c" transform="translate(877.392578 0)"/>
      <use xlink:href="#DejaVuSans-20" transform="translate(909.179688 0)"/>
      <use xlink:href="#DejaVuSans-3b2" transform="translate(940.966797 0)"/>
      <use xlink:href="#DejaVuSans-20" transform="translate(1004.785156 0)"/>
      <use xlink:href="#DejaVuSans-3d" transform="translate(1036.572266 0)"/>
      <use xlink:href="#DejaVuSans-20" transform="translate(1120.361328 0)"/>
      <use xlink:href="#DejaVuSans-31" transform="translate(1152.148438 0)"/>
      <use xlink:href="#DejaVuSans-32" transform="translate(1215.771484 0)"/>
      <use xlink:href="#DejaVuSans-2e" transform="translate(1279.394531 0)"/>
      <use xlink:href="#DejaVuSans-33" transform="translate(1311.181641 0)"/>
     </g>
    </g>
    <g id="line2d_36">
     <path d="M 288.625697 52.844537 
L 297.125697 52.844537 
L 305.625697 52.844537 
" style="fill: none; stroke: #eda100; stroke-width: 1.5; stroke-linecap: round"/>
    </g>
    <g id="text_24">
     <!-- transparent: 140 dB, β = 14.5 -->
     <g style="fill: #0b0b0b" transform="translate(312.425697 55.819537) scale(0.085 -0.085)">
      <use xlink:href="#DejaVuSans-74"/>
      <use xlink:href="#DejaVuSans-72" transform="translate(39.208984 0)"/>
      <use xlink:href="#DejaVuSans-61" transform="translate(80.322266 0)"/>
      <use xlink:href="#DejaVuSans-6e" transform="translate(141.601562 0)"/>
      <use xlink:href="#DejaVuSans-73" transform="translate(204.980469 0)"/>
      <use xlink:href="#DejaVuSans-70" transform="translate(257.080078 0)"/>
      <use xlink:href="#DejaVuSans-61" transform="translate(320.556641 0)"/>
      <use xlink:href="#DejaVuSans-72" transform="translate(381.835938 0)"/>
      <use xlink:href="#DejaVuSans-65" transform="translate(420.699219 0)"/>
      <use xlink:href="#DejaVuSans-6e" transform="translate(482.222656 0)"/>
      <use xlink:href="#DejaVuSans-74" transform="translate(545.601562 0)"/>
      <use xlink:href="#DejaVuSans-3a" transform="translate(584.810547 0)"/>
      <use xlink:href="#DejaVuSans-20" transform="translate(618.501953 0)"/>
      <use xlink:href="#DejaVuSans-31" transform="translate(650.289062 0)"/>
      <use xlink:href="#DejaVuSans-34" transform="translate(713.912109 0)"/>
      <use xlink:href="#DejaVuSans-30" transform="translate(777.535156 0)"/>
      <use xlink:href="#DejaVuSans-20" transform="translate(841.158203 0)"/>
      <use xlink:href="#DejaVuSans-64" transform="translate(872.945312 0)"/>
      <use xlink:href="#DejaVuSans-42" transform="translate(936.421875 0)"/>
      <use xlink:href="#DejaVuSans-2c" transform="translate(1005.025391 0)"/>
      <use xlink:href="#DejaVuSans-20" transform="translate(1036.8125 0)"/>
      <use xlink:href="#DejaVuSans-3b2" transform="translate(1068.599609 0)"/>
      <use xlink:href="#DejaVuSans-20" transform="translate(1132.417969 0)"/>
      <use xlink:href="#DejaVuSans-3d" transform="translate(1164.205078 0)"/>
      <use xlink:href="#DejaVuSans-20" transform="translate(1247.994141 0)"/>
      <use xlink:href="#DejaVuSans-31" transform="translate(1279.78125 0)"/>
      <use xlink:href="#DejaVuSans-34" transform="translate(1343.404297 0)"/>
      <use xlink:href="#DejaVuSans-2e" transform="translate(1407.027344 0)"/>
      <use xlink:href="#DejaVuSans-35" transform="translate(1438.814453 0)"/>
     </g>
    </g>
   </g>
  </g>
 </g>
 <defs>
  <clipPath id="pde55ec949a">
   <rect x="37.023365" y="16.598678" width="410.756864" height="182.380458"/>
  </clipPath>
 </defs>
</svg>
