<?xml version="1.0" encoding="utf-8" standalone="no"?>
<!DOCTYPE svg PUBLIC "-//W3C//DTD SVG 1.1//EN"
  "http://www.w3.org/Graphics/SVG/1.1/DTD/svg11.dtd">
<svg xmlns:xlink="http://www.w3.org/1999/xlink" width="504pt" height="216pt" viewBox="0 0 504 216" xmlns="http://www.w3.org/2000/svg" version="1.1">
 <metadata>
  <rdf:RDF xmlns:dc="http://purl.org/dc/elements/1.1/" xmlns:cc="http://creativecommons.org/ns#" xmlns:rdf="http://www.w3.org/1999/02/22-rdf-syntax-ns#">
   <cc:Work>
    <dc:type rdf:resource="http://purl.org/dc/dcmitype/StillImage"/>
    <dc:date>2026-07-01T22:14:40.600970</dc:date>
    <dc:format>image/svg+xml</dc:format>
    <dc:creator>
     <cc:Agent>
      <dc:title>Matplotlib v3.10.9, https://matplotlib.org/</dc:title>
     </cc:Agent>
    </dc:creator>
   </cc:Work>
  </rdf:RDF>
 </metadata>
 <defs>
  <style type="text/css">*{stroke-linejoin: round; stroke-linecap: butt}</style>
 </defs>
 <g id="figure_1">
  <g id="patch_1">
   <path d="M 0 216 
L 504 216 
L 504 0 
L 0 0 
z
" style="fill: #fcfcfb"/>
  </g>
  <g id="axes_1">
   <g id="patch_2">
    <path d="M 37.273678 184.579135 
L 255.099823 184.579135 
L 255.099823 31.339314 
L 37.273678 31.339314 
z
" style="fill: #fcfcfb"/>
   </g>
   <g id="matplotlib.axis_1">
    <g id="xtick_1">
     <g id="line2d_1">
      <path d="M 47.174866 184.579135 
L 47.174866 31.339314 
" clip-path="url(#p38c7b0ef00)" style="fill: none; stroke: #e1e0d9; stroke-width: 0.75; stroke-linecap: round"/>
     </g>
     <g id="line2d_2">
      <defs>
       <path id="m153f52cdb3" d="M 0 0 
L 0 3.5 
" style="stroke: #898781; stroke-width: 0.8"/>
      </defs>
      <g>
       <use xlink:href="#m153f52cdb3" x="47.174866" y="184.579135" style="fill: #898781; stroke: #898781; stroke-width: 0.8"/>
      </g>
     </g>
     <g id="text_1">
      <!-- 0 -->
      <g style="fill: #898781" transform="translate(44.311741 198.417729) scale(0.09 -0.09)">
       <defs>
        <path id="DejaVuSans-30" d="M 2034 4250 
Q 1547 4250 1301 3770 
Q 1056 3291 1056 2328 
Q 1056 1369 1301 889 
Q 1547 409 2034 409 
Q 2525 409 2770 889 
Q 3016 1369 3016 2328 
Q 3016 3291 2770 3770 
Q 2525 4250 2034 4250 
z
M 2034 4750 
Q 2819 4750 3233 4129 
Q 3647 3509 3647 2328 
Q 3647 1150 3233 529 
Q 2819 -91 2034 -91 
Q 1250 -91 836 529 
Q 422 1150 422 2328 
Q 422 3509 836 4129 
Q 1250 4750 2034 4750 
z
" transform="scale(0.015625)"/>
       </defs>
       <use xlink:href="#DejaVuSans-30"/>
      </g>
     </g>
    </g>
    <g id="xtick_2">
     <g id="line2d_3">
      <path d="M 86.77962 184.579135 
L 86.77962 31.339314 
" clip-path="url(#p38c7b0ef00)" style="fill: none; stroke: #e1e0d9; stroke-width: 0.75; stroke-linecap: round"/>
     </g>
     <g id="line2d_4">
      <g>
       <use xlink:href="#m153f52cdb3" x="86.77962" y="184.579135" style="fill: #898781; stroke: #898781; stroke-width: 0.8"/>
      </g>
     </g>
     <g id="text_2">
      <!-- 5 -->
      <g style="fill: #898781" transform="translate(83.916495 198.417729) scale(0.09 -0.09)">
       <defs>
        <path id="DejaVuSans-35" d="M 691 4666 
L 3169 4666 
L 3169 4134 
L 1269 4134 
L 1269 2991 
Q 1406 3038 1543 3061 
Q 1681 3084 1819 3084 
Q 2600 3084 3056 2656 
Q 3513 2228 3513 1497 
Q 3513 744 3044 326 
Q 2575 -91 1722 -91 
Q 1428 -91 1123 -41 
Q 819 9 494 109 
L 494 744 
Q 775 591 1075 516 
Q 1375 441 1709 441 
Q 2250 441 2565 725 
Q 2881 1009 2881 1497 
Q 2881 1984 2565 2268 
Q 2250 2553 1709 2553 
Q 1456 2553 1204 2497 
Q 953 2441 691 2322 
L 691 4666 
z
" transform="scale(0.015625)"/>
       </defs>
       <use xlink:href="#DejaVuSans-35"/>
      </g>
     </g>
    </g>
    <g id="xtick_3">
     <g id="line2d_5">
      <path d="M 126.384373 184.579135 
L 126.384373 31.339314 
" clip-path="url(#p38c7b0ef00)" style="fill: none; stroke: #e1e0d9; stroke-width: 0.75; stroke-linecap: round"/>
     </g>
     <g id="line2d_6">
      <g>
       <use xlink:href="#m153f52cdb3" x="126.384373" y="184.579135" style="fill: #898781; stroke: #898781; stroke-width: 0.8"/>
      </g>
     </g>
     <g id="text_3">
      <!-- 10 -->
      <g style="fill: #898781" transform="translate(120.658123 198.417729) scale(0.09 -0.09)">
       <defs>
        <path id="DejaVuSans-31" d="M 794 531 
L 1825 531 
L 1825 4091 
L 703 3866 
L 703 4441 
L 1819 4666 
L 2450 4666 
L 2450 531 
L 3481 531 
L 3481 0 
L 794 0 
L 794 531 
z
" transform="scale(0.015625)"/>
       </defs>
       <use xlink:href="#DejaVuSans-31"/>
       <use xlink:href="#DejaVuSans-30" transform="translate(63.623047 0)"/>
      </g>
     </g>
    </g>
    <g id="xtick_4">
     <g id="line2d_7">
      <path d="M 165.989127 184.579135 
L 165.989127 31.339314 
" clip-path="url(#p38c7b0ef00)" style="fill: none; stroke: #e1e0d9; stroke-width: 0.75; stroke-linecap: round"/>
     </g>
     <g id="line2d_8">
      <g>
       <use xlink:href="#m153f52cdb3" x="165.989127" y="184.579135" style="fill: #898781; stroke: #898781; stroke-width: 0.8"/>
      </g>
     </g>
     <g id="text_4">
      <!-- 15 -->
      <g style="fill: #898781" transform="translate(160.262877 198.417729) scale(0.09 -0.09)">
       <use xlink:href="#DejaVuSans-31"/>
       <use xlink:href="#DejaVuSans-35" transform="translate(63.623047 0)"/>
      </g>
     </g>
    </g>
    <g id="xtick_5">
     <g id="line2d_9">
      <path d="M 205.593881 184.579135 
L 205.593881 31.339314 
" clip-path="url(#p38c7b0ef00)" style="fill: none; stroke: #e1e0d9; stroke-width: 0.75; stroke-linecap: round"/>
     </g>
     <g id="line2d_10">
      <g>
       <use xlink:href="#m153f52cdb3" x="205.593881" y="184.579135" style="fill: #898781; stroke: #898781; stroke-width: 0.8"/>
      </g>
     </g>
     <g id="text_5">
      <!-- 20 -->
      <g style="fill: #898781" transform="translate(199.867631 198.417729) scale(0.09 -0.09)">
       <defs>
        <path id="DejaVuSans-32" d="M 1228 531 
L 3431 531 
L 3431 0 
L 469 0 
L 469 531 
Q 828 903 1448 1529 
Q 2069 2156 2228 2338 
Q 2531 2678 2651 2914 
Q 2772 3150 2772 3378 
Q 2772 3750 2511 3984 
Q 2250 4219 1831 4219 
Q 1534 4219 1204 4116 
Q 875 4013 500 3803 
L 500 4441 
Q 881 4594 1212 4672 
Q 1544 4750 1819 4750 
Q 2544 4750 2975 4387 
Q 3406 4025 3406 3419 
Q 3406 3131 3298 2873 
Q 3191 2616 2906 2266 
Q 2828 2175 2409 1742 
Q 1991 1309 1228 531 
z
" transform="scale(0.015625)"/>
       </defs>
       <use xlink:href="#DejaVuSans-32"/>
       <use xlink:href="#DejaVuSans-30" transform="translate(63.623047 0)"/>
      </g>
     </g>
    </g>
    <g id="xtick_6">
     <g id="line2d_11">
      <path d="M 245.198635 184.579135 
L 245.198635 31.339314 
" clip-path="url(#p38c7b0ef00)" style="fill: none; stroke: #e1e0d9; stroke-width: 0.75; stroke-linecap: round"/>
     </g>
     <g id="line2d_12">
      <g>
       <use xlink:href="#m153f52cdb3" x="245.198635" y="184.579135" style="fill: #898781; stroke: #898781; stroke-width: 0.8"/>
      </g>
     </g>
     <g id="text_6">
      <!-- 25 -->
      <g style="fill: #898781" transform="translate(239.472385 198.417729) scale(0.09 -0.09)">
       <use xlink:href="#DejaVuSans-32"/>
       <use xlink:href="#DejaVuSans-35" transform="translate(63.623047 0)"/>
      </g>
     </g>
    </g>
    <g id="text_7">
     <!-- output frame n -->
     <g style="fill: #52514e" transform="translate(112.288391 211.128041) scale(0.09 -0.09)">
      <defs>
       <path id="DejaVuSans-6f" d="M 1959 3097 
Q 1497 3097 1228 2736 
Q 959 2375 959 1747 
Q 959 1119 1226 758 
Q 1494 397 1959 397 
Q 2419 397 2687 759 
Q 2956 1122 2956 1747 
Q 2956 2369 2687 2733 
Q 2419 3097 1959 3097 
z
M 1959 3584 
Q 2709 3584 3137 3096 
Q 3566 2609 3566 1747 
Q 3566 888 3137 398 
Q 2709 -91 1959 -91 
Q 1206 -91 779 398 
Q 353 888 353 1747 
Q 353 2609 779 3096 
Q 1206 3584 1959 3584 
z
" transform="scale(0.015625)"/>
       <path id="DejaVuSans-75" d="M 544 1381 
L 544 3500 
L 1119 3500 
L 1119 1403 
Q 1119 906 1312 657 
Q 1506 409 1894 409 
Q 2359 409 2629 706 
Q 2900 1003 2900 1516 
L 2900 3500 
L 3475 3500 
L 3475 0 
L 2900 0 
L 2900 538 
Q 2691 219 2414 64 
Q 2138 -91 1772 -91 
Q 1169 -91 856 284 
Q 544 659 544 1381 
z
M 1991 3584 
L 1991 3584 
z
" transform="scale(0.015625)"/>
       <path id="DejaVuSans-74" d="M 1172 4494 
L 1172 3500 
L 2356 3500 
L 2356 3053 
L 1172 3053 
L 1172 1153 
Q 1172 725 1289 603 
Q 1406 481 1766 481 
L 2356 481 
L 2356 0 
L 1766 0 
Q 1100 0 847 248 
Q 594 497 594 1153 
L 594 3053 
L 172 3053 
L 172 3500 
L 594 3500 
L 594 4494 
L 1172 4494 
z
" transform="scale(0.015625)"/>
       <path id="DejaVuSans-70" d="M 1159 525 
L 1159 -1331 
L 581 -1331 
L 581 3500 
L 1159 3500 
L 1159 2969 
Q 1341 3281 1617 3432 
Q 1894 3584 2278 3584 
Q 2916 3584 3314 3078 
Q 3713 2572 3713 1747 
Q 3713 922 3314 415 
Q 2916 -91 2278 -91 
Q 1894 -91 1617 61 
Q 1341 213 1159 525 
z
M 3116 1747 
Q 3116 2381 2855 2742 
Q 2594 3103 2138 3103 
Q 1681 3103 1420 2742 
Q 1159 2381 1159 1747 
Q 1159 1113 1420 752 
Q 1681 391 2138 391 
Q 2594 391 2855 752 
Q 3116 1113 3116 1747 
z
" transform="scale(0.015625)"/>
       <path id="DejaVuSans-20" transform="scale(0.015625)"/>
       <path id="DejaVuSans-66" d="M 2375 4863 
L 2375 4384 
L 1825 4384 
Q 1516 4384 1395 4259 
Q 1275 4134 1275 3809 
L 1275 3500 
L 2222 3500 
L 2222 3053 
L 1275 3053 
L 1275 0 
L 697 0 
L 697 3053 
L 147 3053 
L 147 3500 
L 697 3500 
L 697 3744 
Q 697 4328 969 4595 
Q 1241 4863 1831 4863 
L 2375 4863 
z
" transform="scale(0.015625)"/>
       <path id="DejaVuSans-72" d="M 2631 2963 
Q 2534 3019 2420 3045 
Q 2306 3072 2169 3072 
Q 1681 3072 1420 2755 
Q 1159 2438 1159 1844 
L 1159 0 
L 581 0 
L 581 3500 
L 1159 3500 
L 1159 2956 
Q 1341 3275 1631 3429 
Q 1922 3584 2338 3584 
Q 2397 3584 2469 3576 
Q 2541 3569 2628 3553 
L 2631 2963 
z
" transform="scale(0.015625)"/>
       <path id="DejaVuSans-61" d="M 2194 1759 
Q 1497 1759 1228 1600 
Q 959 1441 959 1056 
Q 959 750 1161 570 
Q 1363 391 1709 391 
Q 2188 391 2477 730 
Q 2766 1069 2766 1631 
L 2766 1759 
L 2194 1759 
z
M 3341 1997 
L 3341 0 
L 2766 0 
L 2766 531 
Q 2569 213 2275 61 
Q 1981 -91 1556 -91 
Q 1019 -91 701 211 
Q 384 513 384 1019 
Q 384 1609 779 1909 
Q 1175 2209 1959 2209 
L 2766 2209 
L 2766 2266 
Q 2766 2663 2505 2880 
Q 2244 3097 1772 3097 
Q 1472 3097 1187 3025 
Q 903 2953 641 2809 
L 641 3341 
Q 956 3463 1253 3523 
Q 1550 3584 1831 3584 
Q 2591 3584 2966 3190 
Q 3341 2797 3341 1997 
z
" transform="scale(0.015625)"/>
       <path id="DejaVuSans-6d" d="M 3328 2828 
Q 3544 3216 3844 3400 
Q 4144 3584 4550 3584 
Q 5097 3584 5394 3201 
Q 5691 2819 5691 2113 
L 5691 0 
L 5113 0 
L 5113 2094 
Q 5113 2597 4934 2840 
Q 4756 3084 4391 3084 
Q 3944 3084 3684 2787 
Q 3425 2491 3425 1978 
L 3425 0 
L 2847 0 
L 2847 2094 
Q 2847 2600 2669 2842 
Q 2491 3084 2119 3084 
Q 1678 3084 1418 2786 
Q 1159 2488 1159 1978 
L 1159 0 
L 581 0 
L 581 3500 
L 1159 3500 
L 1159 2956 
Q 1356 3278 1631 3431 
Q 1906 3584 2284 3584 
Q 2666 3584 2933 3390 
Q 3200 3197 3328 2828 
z
" transform="scale(0.015625)"/>
       <path id="DejaVuSans-65" d="M 3597 1894 
L 3597 1613 
L 953 1613 
Q 991 1019 1311 708 
Q 1631 397 2203 397 
Q 2534 397 2845 478 
Q 3156 559 3463 722 
L 3463 178 
Q 3153 47 2828 -22 
Q 2503 -91 2169 -91 
Q 1331 -91 842 396 
Q 353 884 353 1716 
Q 353 2575 817 3079 
Q 1281 3584 2069 3584 
Q 2775 3584 3186 3129 
Q 3597 2675 3597 1894 
z
M 3022 2063 
Q 3016 2534 2758 2815 
Q 2500 3097 2075 3097 
Q 1594 3097 1305 2825 
Q 1016 2553 972 2059 
L 3022 2063 
z
" transform="scale(0.015625)"/>
       <path id="DejaVuSans-6e" d="M 3513 2113 
L 3513 0 
L 2938 0 
L 2938 2094 
Q 2938 2591 2744 2837 
Q 2550 3084 2163 3084 
Q 1697 3084 1428 2787 
Q 1159 2491 1159 1978 
L 1159 0 
L 581 0 
L 581 3500 
L 1159 3500 
L 1159 2956 
Q 1366 3272 1645 3428 
Q 1925 3584 2291 3584 
Q 2894 3584 3203 3211 
Q 3513 2838 3513 2113 
z
" transform="scale(0.015625)"/>
      </defs>
      <use xlink:href="#DejaVuSans-6f"/>
      <use xlink:href="#DejaVuSans-75" transform="translate(61.181641 0)"/>
      <use xlink:href="#DejaVuSans-74" transform="translate(124.560547 0)"/>
      <use xlink:href="#DejaVuSans-70" transform="translate(163.769531 0)"/>
      <use xlink:href="#DejaVuSans-75" transform="translate(227.246094 0)"/>
      <use xlink:href="#DejaVuSans-74" transform="translate(290.625 0)"/>
      <use xlink:href="#DejaVuSans-20" transform="translate(329.833984 0)"/>
      <use xlink:href="#DejaVuSans-66" transform="translate(361.621094 0)"/>
      <use xlink:href="#DejaVuSans-72" transform="translate(396.826172 0)"/>
      <use xlink:href="#DejaVuSans-61" transform="translate(437.939453 0)"/>
      <use xlink:href="#DejaVuSans-6d" transform="translate(499.21875 0)"/>
      <use xlink:href="#DejaVuSans-65" transform="translate(596.630859 0)"/>
      <use xlink:href="#DejaVuSans-20" transform="translate(658.154297 0)"/>
      <use xlink:href="#DejaVuSans-6e" transform="translate(689.941406 0)"/>
     </g>
    </g>
   </g>
   <g id="matplotlib.axis_2">
    <g id="ytick_1">
     <g id="line2d_13">
      <path d="M 37.273678 176.369859 
L 255.099823 176.369859 
" clip-path="url(#p38c7b0ef00)" style="fill: none; stroke: #e1e0d9; stroke-width: 0.75; stroke-linecap: round"/>
     </g>
     <g id="line2d_14">
      <defs>
       <path id="m3431a29848" d="M 0 0 
L -3.5 0 
" style="stroke: #898781; stroke-width: 0.8"/>
      </defs>
      <g>
       <use xlink:href="#m3431a29848" x="37.273678" y="176.369859" style="fill: #898781; stroke: #898781; stroke-width: 0.8"/>
      </g>
     </g>
     <g id="text_8">
      <!-- 0.0 -->
      <g style="fill: #898781" transform="translate(15.960865 179.789156) scale(0.09 -0.09)">
       <defs>
        <path id="DejaVuSans-2e" d="M 684 794 
L 1344 794 
L 1344 0 
L 684 0 
L 684 794 
z
" transform="scale(0.015625)"/>
       </defs>
       <use xlink:href="#DejaVuSans-30"/>
       <use xlink:href="#DejaVuSans-2e" transform="translate(63.623047 0)"/>
       <use xlink:href="#DejaVuSans-30" transform="translate(95.410156 0)"/>
      </g>
     </g>
    </g>
    <g id="ytick_2">
     <g id="line2d_15">
      <path d="M 37.273678 149.005605 
L 255.099823 149.005605 
" clip-path="url(#p38c7b0ef00)" style="fill: none; stroke: #e1e0d9; stroke-width: 0.75; stroke-linecap: round"/>
     </g>
     <g id="line2d_16">
      <g>
       <use xlink:href="#m3431a29848" x="37.273678" y="149.005605" style="fill: #898781; stroke: #898781; stroke-width: 0.8"/>
      </g>
     </g>
     <g id="text_9">
      <!-- 0.2 -->
      <g style="fill: #898781" transform="translate(15.960865 152.424902) scale(0.09 -0.09)">
       <use xlink:href="#DejaVuSans-30"/>
       <use xlink:href="#DejaVuSans-2e" transform="translate(63.623047 0)"/>
       <use xlink:href="#DejaVuSans-32" transform="translate(95.410156 0)"/>
      </g>
     </g>
    </g>
    <g id="ytick_3">
     <g id="line2d_17">
      <path d="M 37.273678 121.641351 
L 255.099823 121.641351 
" clip-path="url(#p38c7b0ef00)" style="fill: none; stroke: #e1e0d9; stroke-width: 0.75; stroke-linecap: round"/>
     </g>
     <g id="line2d_18">
      <g>
       <use xlink:href="#m3431a29848" x="37.273678" y="121.641351" style="fill: #898781; stroke: #898781; stroke-width: 0.8"/>
      </g>
     </g>
     <g id="text_10">
      <!-- 0.4 -->
      <g style="fill: #898781" transform="translate(15.960865 125.060648) scale(0.09 -0.09)">
       <defs>
        <path id="DejaVuSans-34" d="M 2419 4116 
L 825 1625 
L 2419 1625 
L 2419 4116 
z
M 2253 4666 
L 3047 4666 
L 3047 1625 
L 3713 1625 
L 3713 1100 
L 3047 1100 
L 3047 0 
L 2419 0 
L 2419 1100 
L 313 1100 
L 313 1709 
L 2253 4666 
z
" transform="scale(0.015625)"/>
       </defs>
       <use xlink:href="#DejaVuSans-30"/>
       <use xlink:href="#DejaVuSans-2e" transform="translate(63.623047 0)"/>
       <use xlink:href="#DejaVuSans-34" transform="translate(95.410156 0)"/>
      </g>
     </g>
    </g>
    <g id="ytick_4">
     <g id="line2d_19">
      <path d="M 37.273678 94.277097 
L 255.099823 94.277097 
" clip-path="url(#p38c7b0ef00)" style="fill: none; stroke: #e1e0d9; stroke-width: 0.75; stroke-linecap: round"/>
     </g>
     <g id="line2d_20">
      <g>
       <use xlink:href="#m3431a29848" x="37.273678" y="94.277097" style="fill: #898781; stroke: #898781; stroke-width: 0.8"/>
      </g>
     </g>
     <g id="text_11">
      <!-- 0.6 -->
      <g style="fill: #898781" transform="translate(15.960865 97.696394) scale(0.09 -0.09)">
       <defs>
        <path id="DejaVuSans-36" d="M 2113 2584 
Q 1688 2584 1439 2293 
Q 1191 2003 1191 1497 
Q 1191 994 1439 701 
Q 1688 409 2113 409 
Q 2538 409 2786 701 
Q 3034 994 3034 1497 
Q 3034 2003 2786 2293 
Q 2538 2584 2113 2584 
z
M 3366 4563 
L 3366 3988 
Q 3128 4100 2886 4159 
Q 2644 4219 2406 4219 
Q 1781 4219 1451 3797 
Q 1122 3375 1075 2522 
Q 1259 2794 1537 2939 
Q 1816 3084 2150 3084 
Q 2853 3084 3261 2657 
Q 3669 2231 3669 1497 
Q 3669 778 3244 343 
Q 2819 -91 2113 -91 
Q 1303 -91 875 529 
Q 447 1150 447 2328 
Q 447 3434 972 4092 
Q 1497 4750 2381 4750 
Q 2619 4750 2861 4703 
Q 3103 4656 3366 4563 
z
" transform="scale(0.015625)"/>
       </defs>
       <use xlink:href="#DejaVuSans-30"/>
       <use xlink:href="#DejaVuSans-2e" transform="translate(63.623047 0)"/>
       <use xlink:href="#DejaVuSans-36" transform="translate(95.410156 0)"/>
      </g>
     </g>
    </g>
    <g id="ytick_5">
     <g id="line2d_21">
      <path d="M 37.273678 66.912844 
L 255.099823 66.912844 
" clip-path="url(#p38c7b0ef00)" style="fill: none; stroke: #e1e0d9; stroke-width: 0.75; stroke-linecap: round"/>
     </g>
     <g id="line2d_22">
      <g>
       <use xlink:href="#m3431a29848" x="37.273678" y="66.912844" style="fill: #898781; stroke: #898781; stroke-width: 0.8"/>
      </g>
     </g>
     <g id="text_12">
      <!-- 0.8 -->
      <g style="fill: #898781" transform="translate(15.960865 70.332141) scale(0.09 -0.09)">
       <defs>
        <path id="DejaVuSans-38" d="M 2034 2216 
Q 1584 2216 1326 1975 
Q 1069 1734 1069 1313 
Q 1069 891 1326 650 
Q 1584 409 2034 409 
Q 2484 409 2743 651 
Q 3003 894 3003 1313 
Q 3003 1734 2745 1975 
Q 2488 2216 2034 2216 
z
M 1403 2484 
Q 997 2584 770 2862 
Q 544 3141 544 3541 
Q 544 4100 942 4425 
Q 1341 4750 2034 4750 
Q 2731 4750 3128 4425 
Q 3525 4100 3525 3541 
Q 3525 3141 3298 2862 
Q 3072 2584 2669 2484 
Q 3125 2378 3379 2068 
Q 3634 1759 3634 1313 
Q 3634 634 3220 271 
Q 2806 -91 2034 -91 
Q 1263 -91 848 271 
Q 434 634 434 1313 
Q 434 1759 690 2068 
Q 947 2378 1403 2484 
z
M 1172 3481 
Q 1172 3119 1398 2916 
Q 1625 2713 2034 2713 
Q 2441 2713 2670 2916 
Q 2900 3119 2900 3481 
Q 2900 3844 2670 4047 
Q 2441 4250 2034 4250 
Q 1625 4250 1398 4047 
Q 1172 3844 1172 3481 
z
" transform="scale(0.015625)"/>
       </defs>
       <use xlink:href="#DejaVuSans-30"/>
       <use xlink:href="#DejaVuSans-2e" transform="translate(63.623047 0)"/>
       <use xlink:href="#DejaVuSans-38" transform="translate(95.410156 0)"/>
      </g>
     </g>
    </g>
    <g id="ytick_6">
     <g id="line2d_23">
      <path d="M 37.273678 39.54859 
L 255.099823 39.54859 
" clip-path="url(#p38c7b0ef00)" style="fill: none; stroke: #e1e0d9; stroke-width: 0.75; stroke-linecap: round"/>
     </g>
     <g id="line2d_24">
      <g>
       <use xlink:href="#m3431a29848" x="37.273678" y="39.54859" style="fill: #898781; stroke: #898781; stroke-width: 0.8"/>
      </g>
     </g>
     <g id="text_13">
      <!-- 1.0 -->
      <g style="fill: #898781" transform="translate(15.960865 42.967887) scale(0.09 -0.09)">
       <use xlink:href="#DejaVuSans-31"/>
       <use xlink:href="#DejaVuSans-2e" transform="translate(63.623047 0)"/>
       <use xlink:href="#DejaVuSans-30" transform="translate(95.410156 0)"/>
      </g>
     </g>
    </g>
    <g id="text_14">
     <!-- phase μ = phase_ / 2⁶⁴ -->
     <g style="fill: #52514e" transform="translate(9.838834 159.140396) rotate(-90) scale(0.09 -0.09)">
      <defs>
       <path id="DejaVuSans-68" d="M 3513 2113 
L 3513 0 
L 2938 0 
L 2938 2094 
Q 2938 2591 2744 2837 
Q 2550 3084 2163 3084 
Q 1697 3084 1428 2787 
Q 1159 2491 1159 1978 
L 1159 0 
L 581 0 
L 581 4863 
L 1159 4863 
L 1159 2956 
Q 1366 3272 1645 3428 
Q 1925 3584 2291 3584 
Q 2894 3584 3203 3211 
Q 3513 2838 3513 2113 
z
" transform="scale(0.015625)"/>
       <path id="DejaVuSans-73" d="M 2834 3397 
L 2834 2853 
Q 2591 2978 2328 3040 
Q 2066 3103 1784 3103 
Q 1356 3103 1142 2972 
Q 928 2841 928 2578 
Q 928 2378 1081 2264 
Q 1234 2150 1697 2047 
L 1894 2003 
Q 2506 1872 2764 1633 
Q 3022 1394 3022 966 
Q 3022 478 2636 193 
Q 2250 -91 1575 -91 
Q 1294 -91 989 -36 
Q 684 19 347 128 
L 347 722 
Q 666 556 975 473 
Q 1284 391 1588 391 
Q 1994 391 2212 530 
Q 2431 669 2431 922 
Q 2431 1156 2273 1281 
Q 2116 1406 1581 1522 
L 1381 1569 
Q 847 1681 609 1914 
Q 372 2147 372 2553 
Q 372 3047 722 3315 
Q 1072 3584 1716 3584 
Q 2034 3584 2315 3537 
Q 2597 3491 2834 3397 
z
" transform="scale(0.015625)"/>
       <path id="DejaVuSans-3bc" d="M 544 -1331 
L 544 3500 
L 1119 3500 
L 1119 1325 
Q 1119 872 1334 640 
Q 1550 409 1972 409 
Q 2434 409 2667 671 
Q 2900 934 2900 1459 
L 2900 3500 
L 3475 3500 
L 3475 806 
Q 3475 619 3529 530 
Q 3584 441 3700 441 
Q 3728 441 3778 458 
Q 3828 475 3916 513 
L 3916 50 
Q 3788 -22 3673 -56 
Q 3559 -91 3450 -91 
Q 3234 -91 3106 31 
Q 2978 153 2931 403 
Q 2775 156 2548 32 
Q 2322 -91 2016 -91 
Q 1697 -91 1473 31 
Q 1250 153 1119 397 
L 1119 -1331 
L 544 -1331 
z
" transform="scale(0.015625)"/>
       <path id="DejaVuSans-3d" d="M 678 2906 
L 4684 2906 
L 4684 2381 
L 678 2381 
L 678 2906 
z
M 678 1631 
L 4684 1631 
L 4684 1100 
L 678 1100 
L 678 1631 
z
" transform="scale(0.015625)"/>
       <path id="DejaVuSans-5f" d="M 3263 -1063 
L 3263 -1509 
L -63 -1509 
L -63 -1063 
L 3263 -1063 
z
" transform="scale(0.015625)"/>
       <path id="DejaVuSans-2f" d="M 1625 4666 
L 2156 4666 
L 531 -594 
L 0 -594 
L 1625 4666 
z
" transform="scale(0.015625)"/>
       <path id="DejaVuSans-2076" d="M 1359 3541 
Q 1084 3541 925 3378 
Q 766 3213 766 2928 
Q 766 2647 925 2484 
Q 1084 2319 1359 2319 
Q 1631 2319 1791 2484 
Q 1950 2647 1950 2928 
Q 1950 3213 1791 3378 
Q 1631 3541 1359 3541 
z
M 2166 4647 
L 2166 4325 
Q 2013 4388 1856 4419 
Q 1700 4453 1547 4453 
Q 1147 4453 934 4219 
Q 722 3981 691 3503 
Q 809 3656 988 3738 
Q 1169 3819 1381 3819 
Q 1834 3819 2097 3581 
Q 2359 3341 2359 2928 
Q 2359 2531 2084 2284 
Q 1813 2041 1359 2041 
Q 838 2041 563 2387 
Q 288 2734 288 3397 
Q 288 4016 625 4381 
Q 963 4750 1531 4750 
Q 1684 4750 1841 4725 
Q 1997 4697 2166 4647 
z
" transform="scale(0.015625)"/>
       <path id="DejaVuSans-2074" d="M 1491 4319 
L 525 3009 
L 1491 3009 
L 1491 4319 
z
M 1422 4697 
L 1941 4697 
L 1941 3009 
L 2363 3009 
L 2363 2669 
L 1941 2669 
L 1941 2088 
L 1491 2088 
L 1491 2669 
L 197 2669 
L 197 3047 
L 1422 4697 
z
" transform="scale(0.015625)"/>
      </defs>
      <use xlink:href="#DejaVuSans-70"/>
      <use xlink:href="#DejaVuSans-68" transform="translate(63.476562 0)"/>
      <use xlink:href="#DejaVuSans-61" transform="translate(126.855469 0)"/>
      <use xlink:href="#DejaVuSans-73" transform="translate(188.134766 0)"/>
      <use xlink:href="#DejaVuSans-65" transform="translate(240.234375 0)"/>
      <use xlink:href="#DejaVuSans-20" transform="translate(301.757812 0)"/>
      <use xlink:href="#DejaVuSans-3bc" transform="translate(333.544922 0)"/>
      <use xlink:href="#DejaVuSans-20" transform="translate(397.167969 0)"/>
      <use xlink:href="#DejaVuSans-3d" transform="translate(428.955078 0)"/>
      <use xlink:href="#DejaVuSans-20" transform="translate(512.744141 0)"/>
      <use xlink:href="#DejaVuSans-70" transform="translate(544.53125 0)"/>
      <use xlink:href="#DejaVuSans-68" transform="translate(608.007812 0)"/>
      <use xlink:href="#DejaVuSans-61" transform="translate(671.386719 0)"/>
      <use xlink:href="#DejaVuSans-73" transform="translate(732.666016 0)"/>
      <use xlink:href="#DejaVuSans-65" transform="translate(784.765625 0)"/>
      <use xlink:href="#DejaVuSans-5f" transform="translate(846.289062 0)"/>
      <use xlink:href="#DejaVuSans-20" transform="translate(896.289062 0)"/>
      <use xlink:href="#DejaVuSans-2f" transform="translate(928.076172 0)"/>
      <use xlink:href="#DejaVuSans-20" transform="translate(961.767578 0)"/>
      <use xlink:href="#DejaVuSans-32" transform="translate(993.554688 0)"/>
      <use xlink:href="#DejaVuSans-2076" transform="translate(1057.177734 0)"/>
      <use xlink:href="#DejaVuSans-2074" transform="translate(1097.265625 0)"/>
     </g>
    </g>
   </g>
   <g id="line2d_25">
    <path d="M 47.174866 164.055945 
L 55.095817 151.74203 
L 63.016767 139.428116 
L 70.937718 127.114202 
L 78.858669 114.800288 
L 86.77962 102.486374 
L 94.70057 90.172459 
L 102.621521 77.858545 
L 110.542472 65.544631 
L 118.463423 53.230717 
L 126.384373 40.916803 
L 134.305324 165.424157 
L 142.226275 153.110243 
L 150.147226 140.796329 
L 158.068176 128.482415 
L 165.989127 116.168501 
L 173.910078 103.854586 
L 181.831029 91.540672 
L 189.751979 79.226758 
L 197.67293 66.912844 
L 205.593881 54.598929 
L 213.514832 42.285015 
L 221.435782 166.79237 
L 229.356733 154.478456 
L 237.277684 142.164542 
L 245.198635 129.850627 
" clip-path="url(#p38c7b0ef00)" style="fill: none; stroke: #2a78d6; stroke-width: 1.2; stroke-linecap: round"/>
    <defs>
     <path id="m42aa464d7a" d="M 0 2.25 
C 0.596707 2.25 1.169055 2.012926 1.59099 1.59099 
C 2.012926 1.169055 2.25 0.596707 2.25 0 
C 2.25 -0.596707 2.012926 -1.169055 1.59099 -1.59099 
C 1.169055 -2.012926 0.596707 -2.25 0 -2.25 
C -0.596707 -2.25 -1.169055 -2.012926 -1.59099 -1.59099 
C -2.012926 -1.169055 -2.25 -0.596707 -2.25 0 
C -2.25 0.596707 -2.012926 1.169055 -1.59099 1.59099 
C -1.169055 2.012926 -0.596707 2.25 0 2.25 
z
" style="stroke: #fcfcfb"/>
    </defs>
    <g clip-path="url(#p38c7b0ef00)">
     <use xlink:href="#m42aa464d7a" x="47.174866" y="164.055945" style="fill: #2a78d6; stroke: #fcfcfb"/>
     <use xlink:href="#m42aa464d7a" x="55.095817" y="151.74203" style="fill: #2a78d6; stroke: #fcfcfb"/>
     <use xlink:href="#m42aa464d7a" x="63.016767" y="139.428116" style="fill: #2a78d6; stroke: #fcfcfb"/>
     <use xlink:href="#m42aa464d7a" x="70.937718" y="127.114202" style="fill: #2a78d6; stroke: #fcfcfb"/>
     <use xlink:href="#m42aa464d7a" x="78.858669" y="114.800288" style="fill: #2a78d6; stroke: #fcfcfb"/>
     <use xlink:href="#m42aa464d7a" x="86.77962" y="102.486374" style="fill: #2a78d6; stroke: #fcfcfb"/>
     <use xlink:href="#m42aa464d7a" x="94.70057" y="90.172459" style="fill: #2a78d6; stroke: #fcfcfb"/>
     <use xlink:href="#m42aa464d7a" x="102.621521" y="77.858545" style="fill: #2a78d6; stroke: #fcfcfb"/>
     <use xlink:href="#m42aa464d7a" x="110.542472" y="65.544631" style="fill: #2a78d6; stroke: #fcfcfb"/>
     <use xlink:href="#m42aa464d7a" x="118.463423" y="53.230717" style="fill: #2a78d6; stroke: #fcfcfb"/>
     <use xlink:href="#m42aa464d7a" x="126.384373" y="40.916803" style="fill: #2a78d6; stroke: #fcfcfb"/>
     <use xlink:href="#m42aa464d7a" x="134.305324" y="165.424157" style="fill: #2a78d6; stroke: #fcfcfb"/>
     <use xlink:href="#m42aa464d7a" x="142.226275" y="153.110243" style="fill: #2a78d6; stroke: #fcfcfb"/>
     <use xlink:href="#m42aa464d7a" x="150.147226" y="140.796329" style="fill: #2a78d6; stroke: #fcfcfb"/>
     <use xlink:href="#m42aa464d7a" x="158.068176" y="128.482415" style="fill: #2a78d6; stroke: #fcfcfb"/>
     <use xlink:href="#m42aa464d7a" x="165.989127" y="116.168501" style="fill: #2a78d6; stroke: #fcfcfb"/>
     <use xlink:href="#m42aa464d7a" x="173.910078" y="103.854586" style="fill: #2a78d6; stroke: #fcfcfb"/>
     <use xlink:href="#m42aa464d7a" x="181.831029" y="91.540672" style="fill: #2a78d6; stroke: #fcfcfb"/>
     <use xlink:href="#m42aa464d7a" x="189.751979" y="79.226758" style="fill: #2a78d6; stroke: #fcfcfb"/>
     <use xlink:href="#m42aa464d7a" x="197.67293" y="66.912844" style="fill: #2a78d6; stroke: #fcfcfb"/>
     <use xlink:href="#m42aa464d7a" x="205.593881" y="54.598929" style="fill: #2a78d6; stroke: #fcfcfb"/>
     <use xlink:href="#m42aa464d7a" x="213.514832" y="42.285015" style="fill: #2a78d6; stroke: #fcfcfb"/>
     <use xlink:href="#m42aa464d7a" x="221.435782" y="166.79237" style="fill: #2a78d6; stroke: #fcfcfb"/>
     <use xlink:href="#m42aa464d7a" x="229.356733" y="154.478456" style="fill: #2a78d6; stroke: #fcfcfb"/>
     <use xlink:href="#m42aa464d7a" x="237.277684" y="142.164542" style="fill: #2a78d6; stroke: #fcfcfb"/>
     <use xlink:href="#m42aa464d7a" x="245.198635" y="129.850627" style="fill: #2a78d6; stroke: #fcfcfb"/>
    </g>
   </g>
   <g id="line2d_26">
    <defs>
     <path id="m2f6f456470" d="M 0 3 
C 0.795609 3 1.55874 2.683901 2.12132 2.12132 
C 2.683901 1.55874 3 0.795609 3 0 
C 3 -0.795609 2.683901 -1.55874 2.12132 -2.12132 
C 1.55874 -2.683901 0.795609 -3 0 -3 
C -0.795609 -3 -1.55874 -2.683901 -2.12132 -2.12132 
C -2.683901 -1.55874 -3 -0.795609 -3 0 
C -3 0.795609 -2.683901 1.55874 -2.12132 2.12132 
C -1.55874 2.683901 -0.795609 3 0 3 
z
" style="stroke: #fcfcfb"/>
    </defs>
    <g clip-path="url(#p38c7b0ef00)">
     <use xlink:href="#m2f6f456470" x="134.305324" y="165.424157" style="fill: #2a78d6; stroke: #fcfcfb"/>
    </g>
   </g>
   <g id="line2d_27">
    <g clip-path="url(#p38c7b0ef00)">
     <use xlink:href="#m2f6f456470" x="221.435782" y="166.79237" style="fill: #2a78d6; stroke: #fcfcfb"/>
    </g>
   </g>
   <g id="patch_3">
    <path d="M 37.273678 184.579135 
L 37.273678 31.339314 
" style="fill: none; stroke: #c3c2b7; stroke-width: 0.75; stroke-linejoin: miter; stroke-linecap: square"/>
   </g>
   <g id="patch_4">
    <path d="M 37.273678 184.579135 
L 255.099823 184.579135 
" style="fill: none; stroke: #c3c2b7; stroke-width: 0.75; stroke-linejoin: miter; stroke-linecap: square"/>
   </g>
   <g id="patch_5">
    <path d="M 184.718588 152.543052 
Q 160.479667 158.736345 136.240746 164.929637 
" style="fill: none; stroke: #52514e; stroke-width: 0.75; stroke-linecap: round"/>
   </g>
   <g id="text_15">
    <g id="patch_6">
     <path d="M 141.345324 152.047907 
L 269.784074 152.047907 
L 269.784074 142.385407 
L 141.345324 142.385407 
z
" style="fill: #fcfcfb"/>
    </g>
    <!-- consume one extra input frame -->
    <g style="fill: #52514e" transform="translate(142.305324 149.424157) scale(0.08 -0.08)">
     <defs>
      <path id="DejaVuSans-63" d="M 3122 3366 
L 3122 2828 
Q 2878 2963 2633 3030 
Q 2388 3097 2138 3097 
Q 1578 3097 1268 2742 
Q 959 2388 959 1747 
Q 959 1106 1268 751 
Q 1578 397 2138 397 
Q 2388 397 2633 464 
Q 2878 531 3122 666 
L 3122 134 
Q 2881 22 2623 -34 
Q 2366 -91 2075 -91 
Q 1284 -91 818 406 
Q 353 903 353 1747 
Q 353 2603 823 3093 
Q 1294 3584 2113 3584 
Q 2378 3584 2631 3529 
Q 2884 3475 3122 3366 
z
" transform="scale(0.015625)"/>
      <path id="DejaVuSans-78" d="M 3513 3500 
L 2247 1797 
L 3578 0 
L 2900 0 
L 1881 1375 
L 863 0 
L 184 0 
L 1544 1831 
L 300 3500 
L 978 3500 
L 1906 2253 
L 2834 3500 
L 3513 3500 
z
" transform="scale(0.015625)"/>
      <path id="DejaVuSans-69" d="M 603 3500 
L 1178 3500 
L 1178 0 
L 603 0 
L 603 3500 
z
M 603 4863 
L 1178 4863 
L 1178 4134 
L 603 4134 
L 603 4863 
z
" transform="scale(0.015625)"/>
     </defs>
     <use xlink:href="#DejaVuSans-63"/>
     <use xlink:href="#DejaVuSans-6f" transform="translate(54.980469 0)"/>
     <use xlink:href="#DejaVuSans-6e" transform="translate(116.162109 0)"/>
     <use xlink:href="#DejaVuSans-73" transform="translate(179.541016 0)"/>
     <use xlink:href="#DejaVuSans-75" transform="translate(231.640625 0)"/>
     <use xlink:href="#DejaVuSans-6d" transform="translate(295.019531 0)"/>
     <use xlink:href="#DejaVuSans-65" transform="translate(392.431641 0)"/>
     <use xlink:href="#DejaVuSans-20" transform="translate(453.955078 0)"/>
     <use xlink:href="#DejaVuSans-6f" transform="translate(485.742188 0)"/>
     <use xlink:href="#DejaVuSans-6e" transform="translate(546.923828 0)"/>
     <use xlink:href="#DejaVuSans-65" transform="translate(610.302734 0)"/>
     <use xlink:href="#DejaVuSans-20" transform="translate(671.826172 0)"/>
     <use xlink:href="#DejaVuSans-65" transform="translate(703.613281 0)"/>
     <use xlink:href="#DejaVuSans-78" transform="translate(763.386719 0)"/>
     <use xlink:href="#DejaVuSans-74" transform="translate(822.566406 0)"/>
     <use xlink:href="#DejaVuSans-72" transform="translate(861.775391 0)"/>
     <use xlink:href="#DejaVuSans-61" transform="translate(902.888672 0)"/>
     <use xlink:href="#DejaVuSans-20" transform="translate(964.167969 0)"/>
     <use xlink:href="#DejaVuSans-69" transform="translate(995.955078 0)"/>
     <use xlink:href="#DejaVuSans-6e" transform="translate(1023.738281 0)"/>
     <use xlink:href="#DejaVuSans-70" transform="translate(1087.117188 0)"/>
     <use xlink:href="#DejaVuSans-75" transform="translate(1150.59375 0)"/>
     <use xlink:href="#DejaVuSans-74" transform="translate(1213.972656 0)"/>
     <use xlink:href="#DejaVuSans-20" transform="translate(1253.181641 0)"/>
     <use xlink:href="#DejaVuSans-66" transform="translate(1284.96875 0)"/>
     <use xlink:href="#DejaVuSans-72" transform="translate(1320.173828 0)"/>
     <use xlink:href="#DejaVuSans-61" transform="translate(1361.287109 0)"/>
     <use xlink:href="#DejaVuSans-6d" transform="translate(1422.566406 0)"/>
     <use xlink:href="#DejaVuSans-65" transform="translate(1519.978516 0)"/>
    </g>
   </g>
   <g id="text_16">
    <!-- ε &gt; 0: wrap past 1.0 → advance 2 -->
    <g style="fill: #0b0b0b" transform="translate(70.37511 25.339314) scale(0.09 -0.09)">
     <defs>
      <path id="DejaVuSans-3b5" d="M 1234 1888 
Q 884 1963 697 2166 
Q 509 2366 509 2656 
Q 509 3097 866 3344 
Q 1219 3588 1831 3588 
Q 2069 3588 2334 3550 
Q 2600 3513 2906 3438 
L 2906 2916 
Q 2603 3006 2353 3047 
Q 2100 3088 1878 3088 
Q 1506 3088 1291 2944 
Q 1072 2800 1072 2600 
Q 1072 2381 1284 2241 
Q 1494 2103 1856 2103 
L 2341 2103 
L 2341 1628 
L 1878 1628 
Q 1450 1628 1225 1469 
Q 981 1294 981 1019 
Q 981 738 1244 563 
Q 1509 388 1981 388 
Q 2272 388 2538 444 
Q 2803 503 3025 619 
L 3025 84 
Q 2744 -3 2481 -47 
Q 2216 -91 1966 -91 
Q 1222 -91 819 194 
Q 416 478 416 1019 
Q 416 1356 631 1584 
Q 847 1813 1234 1888 
z
" transform="scale(0.015625)"/>
      <path id="DejaVuSans-3e" d="M 678 3150 
L 678 3719 
L 4684 2266 
L 4684 1747 
L 678 294 
L 678 863 
L 3897 2003 
L 678 3150 
z
" transform="scale(0.015625)"/>
      <path id="DejaVuSans-3a" d="M 750 794 
L 1409 794 
L 1409 0 
L 750 0 
L 750 794 
z
M 750 3309 
L 1409 3309 
L 1409 2516 
L 750 2516 
L 750 3309 
z
" transform="scale(0.015625)"/>
      <path id="DejaVuSans-77" d="M 269 3500 
L 844 3500 
L 1563 769 
L 2278 3500 
L 2956 3500 
L 3675 769 
L 4391 3500 
L 4966 3500 
L 4050 0 
L 3372 0 
L 2619 2869 
L 1863 0 
L 1184 0 
L 269 3500 
z
" transform="scale(0.015625)"/>
      <path id="DejaVuSans-2192" d="M 5050 2147 
L 5050 1866 
L 3822 638 
L 3447 1013 
L 4175 1741 
L 366 1741 
L 366 2272 
L 4175 2272 
L 3447 3000 
L 3822 3375 
L 5050 2147 
z
" transform="scale(0.015625)"/>
      <path id="DejaVuSans-64" d="M 2906 2969 
L 2906 4863 
L 3481 4863 
L 3481 0 
L 2906 0 
L 2906 525 
Q 2725 213 2448 61 
Q 2172 -91 1784 -91 
Q 1150 -91 751 415 
Q 353 922 353 1747 
Q 353 2572 751 3078 
Q 1150 3584 1784 3584 
Q 2172 3584 2448 3432 
Q 2725 3281 2906 2969 
z
M 947 1747 
Q 947 1113 1208 752 
Q 1469 391 1925 391 
Q 2381 391 2643 752 
Q 2906 1113 2906 1747 
Q 2906 2381 2643 2742 
Q 2381 3103 1925 3103 
Q 1469 3103 1208 2742 
Q 947 2381 947 1747 
z
" transform="scale(0.015625)"/>
      <path id="DejaVuSans-76" d="M 191 3500 
L 800 3500 
L 1894 563 
L 2988 3500 
L 3597 3500 
L 2284 0 
L 1503 0 
L 191 3500 
z
" transform="scale(0.015625)"/>
     </defs>
     <use xlink:href="#DejaVuSans-3b5"/>
     <use xlink:href="#DejaVuSans-20" transform="translate(54.052734 0)"/>
     <use xlink:href="#DejaVuSans-3e" transform="translate(85.839844 0)"/>
     <use xlink:href="#DejaVuSans-20" transform="translate(169.628906 0)"/>
     <use xlink:href="#DejaVuSans-30" transform="translate(201.416016 0)"/>
     <use xlink:href="#DejaVuSans-3a" transform="translate(265.039062 0)"/>
     <use xlink:href="#DejaVuSans-20" transform="translate(298.730469 0)"/>
     <use xlink:href="#DejaVuSans-77" transform="translate(330.517578 0)"/>
     <use xlink:href="#DejaVuSans-72" transform="translate(412.304688 0)"/>
     <use xlink:href="#DejaVuSans-61" transform="translate(453.417969 0)"/>
     <use xlink:href="#DejaVuSans-70" transform="translate(514.697266 0)"/>
     <use xlink:href="#DejaVuSans-20" transform="translate(578.173828 0)"/>
     <use xlink:href="#DejaVuSans-70" transform="translate(609.960938 0)"/>
     <use xlink:href="#DejaVuSans-61" transform="translate(673.4375 0)"/>
     <use xlink:href="#DejaVuSans-73" transform="translate(734.716797 0)"/>
     <use xlink:href="#DejaVuSans-74" transform="translate(786.816406 0)"/>
     <use xlink:href="#DejaVuSans-20" transform="translate(826.025391 0)"/>
     <use xlink:href="#DejaVuSans-31" transform="translate(857.8125 0)"/>
     <use xlink:href="#DejaVuSans-2e" transform="translate(921.435547 0)"/>
     <use xlink:href="#DejaVuSans-30" transform="translate(953.222656 0)"/>
     <use xlink:href="#DejaVuSans-20" transform="translate(1016.845703 0)"/>
     <use xlink:href="#DejaVuSans-2192" transform="translate(1048.632812 0)"/>
     <use xlink:href="#DejaVuSans-20" transform="translate(1132.421875 0)"/>
     <use xlink:href="#DejaVuSans-61" transform="translate(1164.208984 0)"/>
     <use xlink:href="#DejaVuSans-64" transform="translate(1225.488281 0)"/>
     <use xlink:href="#DejaVuSans-76" transform="translate(1288.964844 0)"/>
     <use xlink:href="#DejaVuSans-61" transform="translate(1348.144531 0)"/>
     <use xlink:href="#DejaVuSans-6e" transform="translate(1409.423828 0)"/>
     <use xlink:href="#DejaVuSans-63" transform="translate(1472.802734 0)"/>
     <use xlink:href="#DejaVuSans-65" transform="translate(1527.783203 0)"/>
     <use xlink:href="#DejaVuSans-20" transform="translate(1589.306641 0)"/>
     <use xlink:href="#DejaVuSans-32" transform="translate(1621.09375 0)"/>
    </g>
   </g>
  </g>
  <g id="axes_2">
   <g id="patch_7">
    <path d="M 283.173614 184.579135 
L 500.99976 184.579135 
L 500.99976 31.339314 
L 283.173614 31.339314 
z
" style="fill: #fcfcfb"/>
   </g>
   <g id="matplotlib.axis_3">
    <g id="xtick_7">
     <g id="line2d_28">
      <path d="M 293.074803 184.579135 
L 293.074803 31.339314 
" clip-path="url(#p09a4f921d6)" style="fill: none; stroke: #e1e0d9; stroke-width: 0.75; stroke-linecap: round"/>
     </g>
     <g id="line2d_29">
      <g>
       <use xlink:href="#m153f52cdb3" x="293.074803" y="184.579135" style="fill: #898781; stroke: #898781; stroke-width: 0.8"/>
      </g>
     </g>
     <g id="text_17">
      <!-- 0 -->
      <g style="fill: #898781" transform="translate(290.211678 198.417729) scale(0.09 -0.09)">
       <use xlink:href="#DejaVuSans-30"/>
      </g>
     </g>
    </g>
    <g id="xtick_8">
     <g id="line2d_30">
      <path d="M 332.679557 184.579135 
L 332.679557 31.339314 
" clip-path="url(#p09a4f921d6)" style="fill: none; stroke: #e1e0d9; stroke-width: 0.75; stroke-linecap: round"/>
     </g>
     <g id="line2d_31">
      <g>
       <use xlink:href="#m153f52cdb3" x="332.679557" y="184.579135" style="fill: #898781; stroke: #898781; stroke-width: 0.8"/>
      </g>
     </g>
     <g id="text_18">
      <!-- 5 -->
      <g style="fill: #898781" transform="translate(329.816432 198.417729) scale(0.09 -0.09)">
       <use xlink:href="#DejaVuSans-35"/>
      </g>
     </g>
    </g>
    <g id="xtick_9">
     <g id="line2d_32">
      <path d="M 372.28431 184.579135 
L 372.28431 31.339314 
" clip-path="url(#p09a4f921d6)" style="fill: none; stroke: #e1e0d9; stroke-width: 0.75; stroke-linecap: round"/>
     </g>
     <g id="line2d_33">
      <g>
       <use xlink:href="#m153f52cdb3" x="372.28431" y="184.579135" style="fill: #898781; stroke: #898781; stroke-width: 0.8"/>
      </g>
     </g>
     <g id="text_19">
      <!-- 10 -->
      <g style="fill: #898781" transform="translate(366.55806 198.417729) scale(0.09 -0.09)">
       <use xlink:href="#DejaVuSans-31"/>
       <use xlink:href="#DejaVuSans-30" transform="translate(63.623047 0)"/>
      </g>
     </g>
    </g>
    <g id="xtick_10">
     <g id="line2d_34">
      <path d="M 411.889064 184.579135 
L 411.889064 31.339314 
" clip-path="url(#p09a4f921d6)" style="fill: none; stroke: #e1e0d9; stroke-width: 0.75; stroke-linecap: round"/>
     </g>
     <g id="line2d_35">
      <g>
       <use xlink:href="#m153f52cdb3" x="411.889064" y="184.579135" style="fill: #898781; stroke: #898781; stroke-width: 0.8"/>
      </g>
     </g>
     <g id="text_20">
      <!-- 15 -->
      <g style="fill: #898781" transform="translate(406.162814 198.417729) scale(0.09 -0.09)">
       <use xlink:href="#DejaVuSans-31"/>
       <use xlink:href="#DejaVuSans-35" transform="translate(63.623047 0)"/>
      </g>
     </g>
    </g>
    <g id="xtick_11">
     <g id="line2d_36">
      <path d="M 451.493818 184.579135 
L 451.493818 31.339314 
" clip-path="url(#p09a4f921d6)" style="fill: none; stroke: #e1e0d9; stroke-width: 0.75; stroke-linecap: round"/>
     </g>
     <g id="line2d_37">
      <g>
       <use xlink:href="#m153f52cdb3" x="451.493818" y="184.579135" style="fill: #898781; stroke: #898781; stroke-width: 0.8"/>
      </g>
     </g>
     <g id="text_21">
      <!-- 20 -->
      <g style="fill: #898781" transform="translate(445.767568 198.417729) scale(0.09 -0.09)">
       <use xlink:href="#DejaVuSans-32"/>
       <use xlink:href="#DejaVuSans-30" transform="translate(63.623047 0)"/>
      </g>
     </g>
    </g>
    <g id="xtick_12">
     <g id="line2d_38">
      <path d="M 491.098572 184.579135 
L 491.098572 31.339314 
" clip-path="url(#p09a4f921d6)" style="fill: none; stroke: #e1e0d9; stroke-width: 0.75; stroke-linecap: round"/>
     </g>
     <g id="line2d_39">
      <g>
       <use xlink:href="#m153f52cdb3" x="491.098572" y="184.579135" style="fill: #898781; stroke: #898781; stroke-width: 0.8"/>
      </g>
     </g>
     <g id="text_22">
      <!-- 25 -->
      <g style="fill: #898781" transform="translate(485.372322 198.417729) scale(0.09 -0.09)">
       <use xlink:href="#DejaVuSans-32"/>
       <use xlink:href="#DejaVuSans-35" transform="translate(63.623047 0)"/>
      </g>
     </g>
    </g>
    <g id="text_23">
     <!-- output frame n -->
     <g style="fill: #52514e" transform="translate(358.188328 211.128041) scale(0.09 -0.09)">
      <use xlink:href="#DejaVuSans-6f"/>
      <use xlink:href="#DejaVuSans-75" transform="translate(61.181641 0)"/>
      <use xlink:href="#DejaVuSans-74" transform="translate(124.560547 0)"/>
      <use xlink:href="#DejaVuSans-70" transform="translate(163.769531 0)"/>
      <use xlink:href="#DejaVuSans-75" transform="translate(227.246094 0)"/>
      <use xlink:href="#DejaVuSans-74" transform="translate(290.625 0)"/>
      <use xlink:href="#DejaVuSans-20" transform="translate(329.833984 0)"/>
      <use xlink:href="#DejaVuSans-66" transform="translate(361.621094 0)"/>
      <use xlink:href="#DejaVuSans-72" transform="translate(396.826172 0)"/>
      <use xlink:href="#DejaVuSans-61" transform="translate(437.939453 0)"/>
      <use xlink:href="#DejaVuSans-6d" transform="translate(499.21875 0)"/>
      <use xlink:href="#DejaVuSans-65" transform="translate(596.630859 0)"/>
      <use xlink:href="#DejaVuSans-20" transform="translate(658.154297 0)"/>
      <use xlink:href="#DejaVuSans-6e" transform="translate(689.941406 0)"/>
     </g>
    </g>
   </g>
   <g id="matplotlib.axis_4">
    <g id="ytick_7">
     <g id="line2d_40">
      <path d="M 283.173614 176.369859 
L 500.99976 176.369859 
" clip-path="url(#p09a4f921d6)" style="fill: none; stroke: #e1e0d9; stroke-width: 0.75; stroke-linecap: round"/>
     </g>
     <g id="line2d_41">
      <g>
       <use xlink:href="#m3431a29848" x="283.173614" y="176.369859" style="fill: #898781; stroke: #898781; stroke-width: 0.8"/>
      </g>
     </g>
    </g>
    <g id="ytick_8">
     <g id="line2d_42">
      <path d="M 283.173614 149.005605 
L 500.99976 149.005605 
" clip-path="url(#p09a4f921d6)" style="fill: none; stroke: #e1e0d9; stroke-width: 0.75; stroke-linecap: round"/>
     </g>
     <g id="line2d_43">
      <g>
       <use xlink:href="#m3431a29848" x="283.173614" y="149.005605" style="fill: #898781; stroke: #898781; stroke-width: 0.8"/>
      </g>
     </g>
    </g>
    <g id="ytick_9">
     <g id="line2d_44">
      <path d="M 283.173614 121.641351 
L 500.99976 121.641351 
" clip-path="url(#p09a4f921d6)" style="fill: none; stroke: #e1e0d9; stroke-width: 0.75; stroke-linecap: round"/>
     </g>
     <g id="line2d_45">
      <g>
       <use xlink:href="#m3431a29848" x="283.173614" y="121.641351" style="fill: #898781; stroke: #898781; stroke-width: 0.8"/>
      </g>
     </g>
    </g>
    <g id="ytick_10">
     <g id="line2d_46">
      <path d="M 283.173614 94.277097 
L 500.99976 94.277097 
" clip-path="url(#p09a4f921d6)" style="fill: none; stroke: #e1e0d9; stroke-width: 0.75; stroke-linecap: round"/>
     </g>
     <g id="line2d_47">
      <g>
       <use xlink:href="#m3431a29848" x="283.173614" y="94.277097" style="fill: #898781; stroke: #898781; stroke-width: 0.8"/>
      </g>
     </g>
    </g>
    <g id="ytick_11">
     <g id="line2d_48">
      <path d="M 283.173614 66.912844 
L 500.99976 66.912844 
" clip-path="url(#p09a4f921d6)" style="fill: none; stroke: #e1e0d9; stroke-width: 0.75; stroke-linecap: round"/>
     </g>
     <g id="line2d_49">
      <g>
       <use xlink:href="#m3431a29848" x="283.173614" y="66.912844" style="fill: #898781; stroke: #898781; stroke-width: 0.8"/>
      </g>
     </g>
    </g>
    <g id="ytick_12">
     <g id="line2d_50">
      <path d="M 283.173614 39.54859 
L 500.99976 39.54859 
" clip-path="url(#p09a4f921d6)" style="fill: none; stroke: #e1e0d9; stroke-width: 0.75; stroke-linecap: round"/>
     </g>
     <g id="line2d_51">
      <g>
       <use xlink:href="#m3431a29848" x="283.173614" y="39.54859" style="fill: #898781; stroke: #898781; stroke-width: 0.8"/>
      </g>
     </g>
    </g>
   </g>
   <g id="line2d_52">
    <path d="M 293.074803 120.273139 
L 300.995754 132.587053 
L 308.916704 144.900967 
L 316.837655 157.214881 
L 324.758606 169.528795 
L 332.679557 45.021441 
L 340.600507 57.335355 
L 348.521458 69.649269 
L 356.442409 81.963183 
L 364.36336 94.277097 
L 372.28431 106.591012 
L 380.205261 118.904926 
L 388.126212 131.21884 
L 396.047163 143.532754 
L 403.968113 155.846669 
L 411.889064 168.160583 
L 419.810015 43.653228 
L 427.730966 55.967142 
L 435.651916 68.281056 
L 443.572867 80.594971 
L 451.493818 92.908885 
L 459.414769 105.222799 
L 467.335719 117.536713 
L 475.25667 129.850627 
L 483.177621 142.164542 
L 491.098572 154.478456 
" clip-path="url(#p09a4f921d6)" style="fill: none; stroke: #2a78d6; stroke-width: 1.2; stroke-linecap: round"/>
    <g clip-path="url(#p09a4f921d6)">
     <use xlink:href="#m42aa464d7a" x="293.074803" y="120.273139" style="fill: #2a78d6; stroke: #fcfcfb"/>
     <use xlink:href="#m42aa464d7a" x="300.995754" y="132.587053" style="fill: #2a78d6; stroke: #fcfcfb"/>
     <use xlink:href="#m42aa464d7a" x="308.916704" y="144.900967" style="fill: #2a78d6; stroke: #fcfcfb"/>
     <use xlink:href="#m42aa464d7a" x="316.837655" y="157.214881" style="fill: #2a78d6; stroke: #fcfcfb"/>
     <use xlink:href="#m42aa464d7a" x="324.758606" y="169.528795" style="fill: #2a78d6; stroke: #fcfcfb"/>
     <use xlink:href="#m42aa464d7a" x="332.679557" y="45.021441" style="fill: #2a78d6; stroke: #fcfcfb"/>
     <use xlink:href="#m42aa464d7a" x="340.600507" y="57.335355" style="fill: #2a78d6; stroke: #fcfcfb"/>
     <use xlink:href="#m42aa464d7a" x="348.521458" y="69.649269" style="fill: #2a78d6; stroke: #fcfcfb"/>
     <use xlink:href="#m42aa464d7a" x="356.442409" y="81.963183" style="fill: #2a78d6; stroke: #fcfcfb"/>
     <use xlink:href="#m42aa464d7a" x="364.36336" y="94.277097" style="fill: #2a78d6; stroke: #fcfcfb"/>
     <use xlink:href="#m42aa464d7a" x="372.28431" y="106.591012" style="fill: #2a78d6; stroke: #fcfcfb"/>
     <use xlink:href="#m42aa464d7a" x="380.205261" y="118.904926" style="fill: #2a78d6; stroke: #fcfcfb"/>
     <use xlink:href="#m42aa464d7a" x="388.126212" y="131.21884" style="fill: #2a78d6; stroke: #fcfcfb"/>
     <use xlink:href="#m42aa464d7a" x="396.047163" y="143.532754" style="fill: #2a78d6; stroke: #fcfcfb"/>
     <use xlink:href="#m42aa464d7a" x="403.968113" y="155.846669" style="fill: #2a78d6; stroke: #fcfcfb"/>
     <use xlink:href="#m42aa464d7a" x="411.889064" y="168.160583" style="fill: #2a78d6; stroke: #fcfcfb"/>
     <use xlink:href="#m42aa464d7a" x="419.810015" y="43.653228" style="fill: #2a78d6; stroke: #fcfcfb"/>
     <use xlink:href="#m42aa464d7a" x="427.730966" y="55.967142" style="fill: #2a78d6; stroke: #fcfcfb"/>
     <use xlink:href="#m42aa464d7a" x="435.651916" y="68.281056" style="fill: #2a78d6; stroke: #fcfcfb"/>
     <use xlink:href="#m42aa464d7a" x="443.572867" y="80.594971" style="fill: #2a78d6; stroke: #fcfcfb"/>
     <use xlink:href="#m42aa464d7a" x="451.493818" y="92.908885" style="fill: #2a78d6; stroke: #fcfcfb"/>
     <use xlink:href="#m42aa464d7a" x="459.414769" y="105.222799" style="fill: #2a78d6; stroke: #fcfcfb"/>
     <use xlink:href="#m42aa464d7a" x="467.335719" y="117.536713" style="fill: #2a78d6; stroke: #fcfcfb"/>
     <use xlink:href="#m42aa464d7a" x="475.25667" y="129.850627" style="fill: #2a78d6; stroke: #fcfcfb"/>
     <use xlink:href="#m42aa464d7a" x="483.177621" y="142.164542" style="fill: #2a78d6; stroke: #fcfcfb"/>
     <use xlink:href="#m42aa464d7a" x="491.098572" y="154.478456" style="fill: #2a78d6; stroke: #fcfcfb"/>
    </g>
   </g>
   <g id="line2d_53">
    <g clip-path="url(#p09a4f921d6)">
     <use xlink:href="#m2f6f456470" x="332.679557" y="45.021441" style="fill: #2a78d6; stroke: #fcfcfb"/>
    </g>
   </g>
   <g id="line2d_54">
    <g clip-path="url(#p09a4f921d6)">
     <use xlink:href="#m2f6f456470" x="419.810015" y="43.653228" style="fill: #2a78d6; stroke: #fcfcfb"/>
    </g>
   </g>
   <g id="patch_8">
    <path d="M 283.173614 184.579135 
L 283.173614 31.339314 
" style="fill: none; stroke: #c3c2b7; stroke-width: 0.75; stroke-linejoin: miter; stroke-linecap: square"/>
   </g>
   <g id="patch_9">
    <path d="M 283.173614 184.579135 
L 500.99976 184.579135 
" style="fill: none; stroke: #c3c2b7; stroke-width: 0.75; stroke-linejoin: miter; stroke-linecap: square"/>
   </g>
   <g id="patch_10">
    <path d="M 370.046994 53.537475 
Q 352.337146 49.501403 334.627298 45.465331 
" style="fill: none; stroke: #52514e; stroke-width: 0.75; stroke-linecap: round"/>
   </g>
   <g id="text_24">
    <g id="patch_11">
     <path d="M 339.719557 63.645191 
L 446.679557 63.645191 
L 446.679557 53.982691 
L 339.719557 53.982691 
z
" style="fill: #fcfcfb"/>
    </g>
    <!-- re-use the current window -->
    <g style="fill: #52514e" transform="translate(340.679557 61.021441) scale(0.08 -0.08)">
     <defs>
      <path id="DejaVuSans-2d" d="M 313 2009 
L 1997 2009 
L 1997 1497 
L 313 1497 
L 313 2009 
z
" transform="scale(0.015625)"/>
     </defs>
     <use xlink:href="#DejaVuSans-72"/>
     <use xlink:href="#DejaVuSans-65" transform="translate(38.863281 0)"/>
     <use xlink:href="#DejaVuSans-2d" transform="translate(100.386719 0)"/>
     <use xlink:href="#DejaVuSans-75" transform="translate(136.470703 0)"/>
     <use xlink:href="#DejaVuSans-73" transform="translate(199.849609 0)"/>
     <use xlink:href="#DejaVuSans-65" transform="translate(251.949219 0)"/>
     <use xlink:href="#DejaVuSans-20" transform="translate(313.472656 0)"/>
     <use xlink:href="#DejaVuSans-74" transform="translate(345.259766 0)"/>
     <use xlink:href="#DejaVuSans-68" transform="translate(384.46875 0)"/>
     <use xlink:href="#DejaVuSans-65" transform="translate(447.847656 0)"/>
     <use xlink:href="#DejaVuSans-20" transform="translate(509.371094 0)"/>
     <use xlink:href="#DejaVuSans-63" transform="translate(541.158203 0)"/>
     <use xlink:href="#DejaVuSans-75" transform="translate(596.138672 0)"/>
     <use xlink:href="#DejaVuSans-72" transform="translate(659.517578 0)"/>
     <use xlink:href="#DejaVuSans-72" transform="translate(698.880859 0)"/>
     <use xlink:href="#DejaVuSans-65" transform="translate(737.744141 0)"/>
     <use xlink:href="#DejaVuSans-6e" transform="translate(799.267578 0)"/>
     <use xlink:href="#DejaVuSans-74" transform="translate(862.646484 0)"/>
     <use xlink:href="#DejaVuSans-20" transform="translate(901.855469 0)"/>
     <use xlink:href="#DejaVuSans-77" transform="translate(933.642578 0)"/>
     <use xlink:href="#DejaVuSans-69" transform="translate(1015.429688 0)"/>
     <use xlink:href="#DejaVuSans-6e" transform="translate(1043.212891 0)"/>
     <use xlink:href="#DejaVuSans-64" transform="translate(1106.591797 0)"/>
     <use xlink:href="#DejaVuSans-6f" transform="translate(1170.068359 0)"/>
     <use xlink:href="#DejaVuSans-77" transform="translate(1231.25 0)"/>
    </g>
   </g>
   <g id="text_25">
    <!-- ε &lt; 0: wrap below 0.0 → advance 0 -->
    <g style="fill: #0b0b0b" transform="translate(312.688406 25.339314) scale(0.09 -0.09)">
     <defs>
      <path id="DejaVuSans-3c" d="M 4684 3150 
L 1459 2003 
L 4684 863 
L 4684 294 
L 678 1747 
L 678 2266 
L 4684 3719 
L 4684 3150 
z
" transform="scale(0.015625)"/>
      <path id="DejaVuSans-62" d="M 3116 1747 
Q 3116 2381 2855 2742 
Q 2594 3103 2138 3103 
Q 1681 3103 1420 2742 
Q 1159 2381 1159 1747 
Q 1159 1113 1420 752 
Q 1681 391 2138 391 
Q 2594 391 2855 752 
Q 3116 1113 3116 1747 
z
M 1159 2969 
Q 1341 3281 1617 3432 
Q 1894 3584 2278 3584 
Q 2916 3584 3314 3078 
Q 3713 2572 3713 1747 
Q 3713 922 3314 415 
Q 2916 -91 2278 -91 
Q 1894 -91 1617 61 
Q 1341 213 1159 525 
L 1159 0 
L 581 0 
L 581 4863 
L 1159 4863 
L 1159 2969 
z
" transform="scale(0.015625)"/>
      <path id="DejaVuSans-6c" d="M 603 4863 
L 1178 4863 
L 1178 0 
L 603 0 
L 603 4863 
z
" transform="scale(0.015625)"/>
     </defs>
     <use xlink:href="#DejaVuSans-3b5"/>
     <use xlink:href="#DejaVuSans-20" transform="translate(54.052734 0)"/>
     <use xlink:href="#DejaVuSans-3c" transform="translate(85.839844 0)"/>
     <use xlink:href="#DejaVuSans-20" transform="translate(169.628906 0)"/>
     <use xlink:href="#DejaVuSans-30" transform="translate(201.416016 0)"/>
     <use xlink:href="#DejaVuSans-3a" transform="translate(265.039062 0)"/>
     <use xlink:href="#DejaVuSans-20" transform="translate(298.730469 0)"/>
     <use xlink:href="#DejaVuSans-77" transform="translate(330.517578 0)"/>
     <use xlink:href="#DejaVuSans-72" transform="translate(412.304688 0)"/>
     <use xlink:href="#DejaVuSans-61" transform="translate(453.417969 0)"/>
     <use xlink:href="#DejaVuSans-70" transform="translate(514.697266 0)"/>
     <use xlink:href="#DejaVuSans-20" transform="translate(578.173828 0)"/>
     <use xlink:href="#DejaVuSans-62" transform="translate(609.960938 0)"/>
     <use xlink:href="#DejaVuSans-65" transform="translate(673.4375 0)"/>
     <use xlink:href="#DejaVuSans-6c" transform="translate(734.960938 0)"/>
     <use xlink:href="#DejaVuSans-6f" transform="translate(762.744141 0)"/>
     <use xlink:href="#DejaVuSans-77" transform="translate(823.925781 0)"/>
     <use xlink:href="#DejaVuSans-20" transform="translate(905.712891 0)"/>
     <use xlink:href="#DejaVuSans-30" transform="translate(937.5 0)"/>
     <use xlink:href="#DejaVuSans-2e" transform="translate(1001.123047 0)"/>
     <use xlink:href="#DejaVuSans-30" transform="translate(1032.910156 0)"/>
     <use xlink:href="#DejaVuSans-20" transform="translate(1096.533203 0)"/>
     <use xlink:href="#DejaVuSans-2192" transform="translate(1128.320312 0)"/>
     <use xlink:href="#DejaVuSans-20" transform="translate(1212.109375 0)"/>
     <use xlink:href="#DejaVuSans-61" transform="translate(1243.896484 0)"/>
     <use xlink:href="#DejaVuSans-64" transform="translate(1305.175781 0)"/>
     <use xlink:href="#DejaVuSans-76" transform="translate(1368.652344 0)"/>
     <use xlink:href="#DejaVuSans-61" transform="translate(1427.832031 0)"/>
     <use xlink:href="#DejaVuSans-6e" transform="translate(1489.111328 0)"/>
     <use xlink:href="#DejaVuSans-63" transform="translate(1552.490234 0)"/>
     <use xlink:href="#DejaVuSans-65" transform="translate(1607.470703 0)"/>
     <use xlink:href="#DejaVuSans-20" transform="translate(1668.994141 0)"/>
     <use xlink:href="#DejaVuSans-30" transform="translate(1700.78125 0)"/>
    </g>
   </g>
  </g>
  <g id="text_26">
   <!-- The Q0.64 accumulator slips by wrapping  (ε exaggerated to 0.09; real |ε| ≈ 2×10⁻⁴) -->
   <g style="fill: #0b0b0b" transform="translate(49.823672 10.260318) scale(0.095 -0.095)">
    <defs>
     <path id="DejaVuSans-54" d="M -19 4666 
L 3928 4666 
L 3928 4134 
L 2272 4134 
L 2272 0 
L 1638 0 
L 1638 4134 
L -19 4134 
L -19 4666 
z
" transform="scale(0.015625)"/>
     <path id="DejaVuSans-51" d="M 2522 4238 
Q 1834 4238 1429 3725 
Q 1025 3213 1025 2328 
Q 1025 1447 1429 934 
Q 1834 422 2522 422 
Q 3209 422 3611 934 
Q 4013 1447 4013 2328 
Q 4013 3213 3611 3725 
Q 3209 4238 2522 4238 
z
M 3406 84 
L 4238 -825 
L 3475 -825 
L 2784 -78 
Q 2681 -84 2626 -87 
Q 2572 -91 2522 -91 
Q 1538 -91 948 567 
Q 359 1225 359 2328 
Q 359 3434 948 4092 
Q 1538 4750 2522 4750 
Q 3503 4750 4090 4092 
Q 4678 3434 4678 2328 
Q 4678 1516 4351 937 
Q 4025 359 3406 84 
z
" transform="scale(0.015625)"/>
     <path id="DejaVuSans-79" d="M 2059 -325 
Q 1816 -950 1584 -1140 
Q 1353 -1331 966 -1331 
L 506 -1331 
L 506 -850 
L 844 -850 
Q 1081 -850 1212 -737 
Q 1344 -625 1503 -206 
L 1606 56 
L 191 3500 
L 800 3500 
L 1894 763 
L 2988 3500 
L 3597 3500 
L 2059 -325 
z
" transform="scale(0.015625)"/>
     <path id="DejaVuSans-67" d="M 2906 1791 
Q 2906 2416 2648 2759 
Q 2391 3103 1925 3103 
Q 1463 3103 1205 2759 
Q 947 2416 947 1791 
Q 947 1169 1205 825 
Q 1463 481 1925 481 
Q 2391 481 2648 825 
Q 2906 1169 2906 1791 
z
M 3481 434 
Q 3481 -459 3084 -895 
Q 2688 -1331 1869 -1331 
Q 1566 -1331 1297 -1286 
Q 1028 -1241 775 -1147 
L 775 -588 
Q 1028 -725 1275 -790 
Q 1522 -856 1778 -856 
Q 2344 -856 2625 -561 
Q 2906 -266 2906 331 
L 2906 616 
Q 2728 306 2450 153 
Q 2172 0 1784 0 
Q 1141 0 747 490 
Q 353 981 353 1791 
Q 353 2603 747 3093 
Q 1141 3584 1784 3584 
Q 2172 3584 2450 3431 
Q 2728 3278 2906 2969 
L 2906 3500 
L 3481 3500 
L 3481 434 
z
" transform="scale(0.015625)"/>
     <path id="DejaVuSans-28" d="M 1984 4856 
Q 1566 4138 1362 3434 
Q 1159 2731 1159 2009 
Q 1159 1288 1364 580 
Q 1569 -128 1984 -844 
L 1484 -844 
Q 1016 -109 783 600 
Q 550 1309 550 2009 
Q 550 2706 781 3412 
Q 1013 4119 1484 4856 
L 1984 4856 
z
" transform="scale(0.015625)"/>
     <path id="DejaVuSans-39" d="M 703 97 
L 703 672 
Q 941 559 1184 500 
Q 1428 441 1663 441 
Q 2288 441 2617 861 
Q 2947 1281 2994 2138 
Q 2813 1869 2534 1725 
Q 2256 1581 1919 1581 
Q 1219 1581 811 2004 
Q 403 2428 403 3163 
Q 403 3881 828 4315 
Q 1253 4750 1959 4750 
Q 2769 4750 3195 4129 
Q 3622 3509 3622 2328 
Q 3622 1225 3098 567 
Q 2575 -91 1691 -91 
Q 1453 -91 1209 -44 
Q 966 3 703 97 
z
M 1959 2075 
Q 2384 2075 2632 2365 
Q 2881 2656 2881 3163 
Q 2881 3666 2632 3958 
Q 2384 4250 1959 4250 
Q 1534 4250 1286 3958 
Q 1038 3666 1038 3163 
Q 1038 2656 1286 2365 
Q 1534 2075 1959 2075 
z
" transform="scale(0.015625)"/>
     <path id="DejaVuSans-3b" d="M 750 3309 
L 1409 3309 
L 1409 2516 
L 750 2516 
L 750 3309 
z
M 750 794 
L 1409 794 
L 1409 256 
L 897 -744 
L 494 -744 
L 750 256 
L 750 794 
z
" transform="scale(0.015625)"/>
     <path id="DejaVuSans-7c" d="M 1344 4891 
L 1344 -1509 
L 813 -1509 
L 813 4891 
L 1344 4891 
z
" transform="scale(0.015625)"/>
     <path id="DejaVuSans-2248" d="M 4684 1947 
L 4684 1388 
Q 4356 1144 4076 1036 
Q 3797 928 3494 928 
Q 3150 928 2694 1113 
Q 2663 1125 2641 1134 
Q 2622 1141 2575 1159 
Q 2091 1350 1797 1350 
Q 1522 1350 1253 1231 
Q 984 1113 678 850 
L 678 1409 
Q 1006 1653 1286 1761 
Q 1566 1869 1869 1869 
Q 2213 1869 2672 1684 
Q 2706 1669 2722 1663 
Q 2741 1656 2788 1638 
Q 3272 1447 3566 1447 
Q 3834 1447 4098 1564 
Q 4363 1681 4684 1947 
z
M 4684 3163 
L 4684 2606 
Q 4356 2359 4076 2251 
Q 3797 2144 3494 2144 
Q 3150 2144 2694 2328 
Q 2663 2341 2641 2350 
Q 2622 2356 2575 2375 
Q 2091 2566 1797 2566 
Q 1522 2566 1253 2447 
Q 984 2328 678 2069 
L 678 2625 
Q 1006 2869 1286 2976 
Q 1566 3084 1869 3084 
Q 2213 3084 2672 2900 
Q 2703 2888 2719 2881 
Q 2741 2872 2788 2853 
Q 3272 2663 3566 2663 
Q 3834 2663 4098 2780 
Q 4363 2897 4684 3163 
z
" transform="scale(0.015625)"/>
     <path id="DejaVuSans-d7" d="M 4488 3438 
L 3059 2003 
L 4488 575 
L 4116 197 
L 2681 1631 
L 1247 197 
L 878 575 
L 2303 2003 
L 878 3438 
L 1247 3816 
L 2681 2381 
L 4116 3816 
L 4488 3438 
z
" transform="scale(0.015625)"/>
     <path id="DejaVuSans-207b" d="M 428 3359 
L 2950 3359 
L 2950 3063 
L 428 3063 
L 428 3359 
z
" transform="scale(0.015625)"/>
     <path id="DejaVuSans-29" d="M 513 4856 
L 1013 4856 
Q 1481 4119 1714 3412 
Q 1947 2706 1947 2009 
Q 1947 1309 1714 600 
Q 1481 -109 1013 -844 
L 513 -844 
Q 928 -128 1133 580 
Q 1338 1288 1338 2009 
Q 1338 2731 1133 3434 
Q 928 4138 513 4856 
z
" transform="scale(0.015625)"/>
    </defs>
    <use xlink:href="#DejaVuSans-54"/>
    <use xlink:href="#DejaVuSans-68" transform="translate(61.083984 0)"/>
    <use xlink:href="#DejaVuSans-65" transform="translate(124.462891 0)"/>
    <use xlink:href="#DejaVuSans-20" transform="translate(185.986328 0)"/>
    <use xlink:href="#DejaVuSans-51" transform="translate(217.773438 0)"/>
    <use xlink:href="#DejaVuSans-30" transform="translate(296.484375 0)"/>
    <use xlink:href="#DejaVuSans-2e" transform="translate(360.107422 0)"/>
    <use xlink:href="#DejaVuSans-36" transform="translate(391.894531 0)"/>
    <use xlink:href="#DejaVuSans-34" transform="translate(455.517578 0)"/>
    <use xlink:href="#DejaVuSans-20" transform="translate(519.140625 0)"/>
    <use xlink:href="#DejaVuSans-61" transform="translate(550.927734 0)"/>
    <use xlink:href="#DejaVuSans-63" transform="translate(612.207031 0)"/>
    <use xlink:href="#DejaVuSans-63" transform="translate(667.1875 0)"/>
    <use xlink:href="#DejaVuSans-75" transform="translate(722.167969 0)"/>
    <use xlink:href="#DejaVuSans-6d" transform="translate(785.546875 0)"/>
    <use xlink:href="#DejaVuSans-75" transform="translate(882.958984 0)"/>
    <use xlink:href="#DejaVuSans-6c" transform="translate(946.337891 0)"/>
    <use xlink:href="#DejaVuSans-61" transform="translate(974.121094 0)"/>
    <use xlink:href="#DejaVuSans-74" transform="translate(1035.400391 0)"/>
    <use xlink:href="#DejaVuSans-6f" transform="translate(1074.609375 0)"/>
    <use xlink:href="#DejaVuSans-72" transform="translate(1135.791016 0)"/>
    <use xlink:href="#DejaVuSans-20" transform="translate(1176.904297 0)"/>
    <use xlink:href="#DejaVuSans-73" transform="translate(1208.691406 0)"/>
    <use xlink:href="#DejaVuSans-6c" transform="translate(1260.791016 0)"/>
    <use xlink:href="#DejaVuSans-69" transform="translate(1288.574219 0)"/>
    <use xlink:href="#DejaVuSans-70" transform="translate(1316.357422 0)"/>
    <use xlink:href="#DejaVuSans-73" transform="translate(1379.833984 0)"/>
    <use xlink:href="#DejaVuSans-20" transform="translate(1431.933594 0)"/>
    <use xlink:href="#DejaVuSans-62" transform="translate(1463.720703 0)"/>
    <use xlink:href="#DejaVuSans-79" transform="translate(1527.197266 0)"/>
    <use xlink:href="#DejaVuSans-20" transform="translate(1586.376953 0)"/>
    <use xlink:href="#DejaVuSans-77" transform="translate(1618.164062 0)"/>
    <use xlink:href="#DejaVuSans-72" transform="translate(1699.951172 0)"/>
    <use xlink:href="#DejaVuSans-61" transform="translate(1741.064453 0)"/>
    <use xlink:href="#DejaVuSans-70" transform="translate(1802.34375 0)"/>
    <use xlink:href="#DejaVuSans-70" transform="translate(1865.820312 0)"/>
    <use xlink:href="#DejaVuSans-69" transform="translate(1929.296875 0)"/>
    <use xlink:href="#DejaVuSans-6e" transform="translate(1957.080078 0)"/>
    <use xlink:href="#DejaVuSans-67" transform="translate(2020.458984 0)"/>
    <use xlink:href="#DejaVuSans-20" transform="translate(2083.935547 0)"/>
    <use xlink:href="#DejaVuSans-20" transform="translate(2115.722656 0)"/>
    <use xlink:href="#DejaVuSans-28" transform="translate(2147.509766 0)"/>
    <use xlink:href="#DejaVuSans-3b5" transform="translate(2186.523438 0)"/>
    <use xlink:href="#DejaVuSans-20" transform="translate(2240.576172 0)"/>
    <use xlink:href="#DejaVuSans-65" transform="translate(2272.363281 0)"/>
    <use xlink:href="#DejaVuSans-78" transform="translate(2332.136719 0)"/>
    <use xlink:href="#DejaVuSans-61" transform="translate(2391.316406 0)"/>
    <use xlink:href="#DejaVuSans-67" transform="translate(2452.595703 0)"/>
    <use xlink:href="#DejaVuSans-67" transform="translate(2516.072266 0)"/>
    <use xlink:href="#DejaVuSans-65" transform="translate(2579.548828 0)"/>
    <use xlink:href="#DejaVuSans-72" transform="translate(2641.072266 0)"/>
    <use xlink:href="#DejaVuSans-61" transform="translate(2682.185547 0)"/>
    <use xlink:href="#DejaVuSans-74" transform="translate(2743.464844 0)"/>
    <use xlink:href="#DejaVuSans-65" transform="translate(2782.673828 0)"/>
    <use xlink:href="#DejaVuSans-64" transform="translate(2844.197266 0)"/>
    <use xlink:href="#DejaVuSans-20" transform="translate(2907.673828 0)"/>
    <use xlink:href="#DejaVuSans-74" transform="translate(2939.460938 0)"/>
    <use xlink:href="#DejaVuSans-6f" transform="translate(2978.669922 0)"/>
    <use xlink:href="#DejaVuSans-20" transform="translate(3039.851562 0)"/>
    <use xlink:href="#DejaVuSans-30" transform="translate(3071.638672 0)"/>
    <use xlink:href="#DejaVuSans-2e" transform="translate(3135.261719 0)"/>
    <use xlink:href="#DejaVuSans-30" transform="translate(3167.048828 0)"/>
    <use xlink:href="#DejaVuSans-39" transform="translate(3230.671875 0)"/>
    <use xlink:href="#DejaVuSans-3b" transform="translate(3294.294922 0)"/>
    <use xlink:href="#DejaVuSans-20" transform="translate(3327.986328 0)"/>
    <use xlink:href="#DejaVuSans-72" transform="translate(3359.773438 0)"/>
    <use xlink:href="#DejaVuSans-65" transform="translate(3398.636719 0)"/>
    <use xlink:href="#DejaVuSans-61" transform="translate(3460.160156 0)"/>
    <use xlink:href="#DejaVuSans-6c" transform="translate(3521.439453 0)"/>
    <use xlink:href="#DejaVuSans-20" transform="translate(3549.222656 0)"/>
    <use xlink:href="#DejaVuSans-7c" transform="translate(3581.009766 0)"/>
    <use xlink:href="#DejaVuSans-3b5" transform="translate(3614.701172 0)"/>
    <use xlink:href="#DejaVuSans-7c" transform="translate(3668.753906 0)"/>
    <use xlink:href="#DejaVuSans-20" transform="translate(3702.445312 0)"/>
    <use xlink:href="#DejaVuSans-2248" transform="translate(3734.232422 0)"/>
    <use xlink:href="#DejaVuSans-20" transform="translate(3818.021484 0)"/>
    <use xlink:href="#DejaVuSans-32" transform="translate(3849.808594 0)"/>
    <use xlink:href="#DejaVuSans-d7" transform="translate(3913.431641 0)"/>
    <use xlink:href="#DejaVuSans-31" transform="translate(3997.220703 0)"/>
    <use xlink:href="#DejaVuSans-30" transform="translate(4060.84375 0)"/>
    <use xlink:href="#DejaVuSans-207b" transform="translate(4124.466797 0)"/>
    <use xlink:href="#DejaVuSans-2074" transform="translate(4177.25 0)"/>
    <use xlink:href="#DejaVuSans-29" transform="translate(4217.337891 0)"/>
   </g>
  </g>
 </g>
 <defs>
  <clipPath id="p38c7b0ef00">
   <rect x="37.273678" y="31.339314" width="217.826146" height="153.239821"/>
  </clipPath>
  <clipPath id="p09a4f921d6">
   <rect x="283.173614" y="31.339314" width="217.826146" height="153.239821"/>
  </clipPath>
 </defs>
</svg>
