<?xml version="1.0" encoding="utf-8" standalone="no"?>
<!DOCTYPE svg PUBLIC "-//W3C//DTD SVG 1.1//EN"
  "http://www.w3.org/Graphics/SVG/1.1/DTD/svg11.dtd">
<svg xmlns:xlink="http://www.w3.org/1999/xlink" width="504pt" height="345.6pt" viewBox="0 0 504 345.6" xmlns="http://www.w3.org/2000/svg" version="1.1">
 <metadata>
  <rdf:RDF xmlns:dc="http://purl.org/dc/elements/1.1/" xmlns:cc="http://creativecommons.org/ns#" xmlns:rdf="http://www.w3.org/1999/02/22-rdf-syntax-ns#">
   <cc:Work>
    <dc:type rdf:resource="http://purl.org/dc/dcmitype/StillImage"/>
    <dc:date>2026-07-01T22:14:43.379611</dc:date>
    <dc:format>image/svg+xml</dc:format>
    <dc:creator>
     <cc:Agent>
      <dc:title>Matplotlib v3.10.9, https://matplotlib.org/</dc:title>
     </cc:Agent>
    </dc:creator>
   </cc:Work>
  </rdf:RDF>
 </metadata>
 <defs>
  <style type="text/css">*{stroke-linejoin: round; stroke-linecap: butt}</style>
 </defs>
 <g id="figure_1">
  <g id="patch_1">
   <path d="M 0 345.6 
L 504 345.6 
L 504 0 
L 0 0 
z
" style="fill: #fcfcfb"/>
  </g>
  <g id="axes_1">
   <g id="patch_2">
    <path d="M 53.157271 160.638666 
L 415.800901 160.638666 
L 415.800901 16.598678 
L 53.157271 16.598678 
z
" style="fill: #fcfcfb"/>
   </g>
   <g id="line2d_1">
    <path d="M 53.157271 110.22467 
L 415.800901 110.22467 
" clip-path="url(#pe1dd8e3d01)" style="fill: none; stroke: #c3c2b7; stroke-width: 0.75; stroke-linecap: round"/>
   </g>
   <g id="line2d_2">
    <path d="M 69.655725 160.638666 
L 69.655725 16.598678 
" clip-path="url(#pe1dd8e3d01)" style="fill: none; stroke: #e1e0d9; stroke-width: 0.75; stroke-linecap: round"/>
   </g>
   <g id="line2d_3">
    <path d="M 73.43118 160.638666 
L 73.43118 16.598678 
" clip-path="url(#pe1dd8e3d01)" style="fill: none; stroke: #e1e0d9; stroke-width: 0.75; stroke-linecap: round"/>
   </g>
   <g id="line2d_4">
    <path d="M 274.780743 160.638666 
L 274.780743 16.598678 
" clip-path="url(#pe1dd8e3d01)" style="fill: none; stroke: #e1e0d9; stroke-width: 0.75; stroke-linecap: round"/>
   </g>
   <g id="line2d_5">
    <path d="M 275.156828 160.638666 
L 275.156828 16.598678 
" clip-path="url(#pe1dd8e3d01)" style="fill: none; stroke: #e1e0d9; stroke-width: 0.75; stroke-linecap: round"/>
   </g>
   <g id="line2d_6">
    <path d="M 278.819949 160.638666 
L 278.819949 16.598678 
" clip-path="url(#pe1dd8e3d01)" style="fill: none; stroke: #e1e0d9; stroke-width: 0.75; stroke-linecap: round"/>
   </g>
   <g id="matplotlib.axis_1">
    <g id="xtick_1">
     <g id="line2d_7">
      <path d="M 69.636186 160.638666 
L 69.636186 16.598678 
" clip-path="url(#pe1dd8e3d01)" style="fill: none; stroke: #e1e0d9; stroke-width: 0.75; stroke-linecap: round"/>
     </g>
     <g id="line2d_8">
      <defs>
       <path id="m153f52cdb3" d="M 0 0 
L 0 3.5 
" style="stroke: #898781; stroke-width: 0.8"/>
      </defs>
      <g>
       <use xlink:href="#m153f52cdb3" x="69.636186" y="160.638666" style="fill: #898781; stroke: #898781; stroke-width: 0.8"/>
      </g>
     </g>
    </g>
    <g id="xtick_2">
     <g id="line2d_9">
      <path d="M 142.898611 160.638666 
L 142.898611 16.598678 
" clip-path="url(#pe1dd8e3d01)" style="fill: none; stroke: #e1e0d9; stroke-width: 0.75; stroke-linecap: round"/>
     </g>
     <g id="line2d_10">
      <g>
       <use xlink:href="#m153f52cdb3" x="142.898611" y="160.638666" style="fill: #898781; stroke: #898781; stroke-width: 0.8"/>
      </g>
     </g>
    </g>
    <g id="xtick_3">
     <g id="line2d_11">
      <path d="M 216.161037 160.638666 
L 216.161037 16.598678 
" clip-path="url(#pe1dd8e3d01)" style="fill: none; stroke: #e1e0d9; stroke-width: 0.75; stroke-linecap: round"/>
     </g>
     <g id="line2d_12">
      <g>
       <use xlink:href="#m153f52cdb3" x="216.161037" y="160.638666" style="fill: #898781; stroke: #898781; stroke-width: 0.8"/>
      </g>
     </g>
    </g>
    <g id="xtick_4">
     <g id="line2d_13">
      <path d="M 289.423462 160.638666 
L 289.423462 16.598678 
" clip-path="url(#pe1dd8e3d01)" style="fill: none; stroke: #e1e0d9; stroke-width: 0.75; stroke-linecap: round"/>
     </g>
     <g id="line2d_14">
      <g>
       <use xlink:href="#m153f52cdb3" x="289.423462" y="160.638666" style="fill: #898781; stroke: #898781; stroke-width: 0.8"/>
      </g>
     </g>
    </g>
    <g id="xtick_5">
     <g id="line2d_15">
      <path d="M 362.685887 160.638666 
L 362.685887 16.598678 
" clip-path="url(#pe1dd8e3d01)" style="fill: none; stroke: #e1e0d9; stroke-width: 0.75; stroke-linecap: round"/>
     </g>
     <g id="line2d_16">
      <g>
       <use xlink:href="#m153f52cdb3" x="362.685887" y="160.638666" style="fill: #898781; stroke: #898781; stroke-width: 0.8"/>
      </g>
     </g>
    </g>
   </g>
   <g id="matplotlib.axis_2">
    <g id="ytick_1">
     <g id="line2d_17">
      <path d="M 53.157271 146.234667 
L 415.800901 146.234667 
" clip-path="url(#pe1dd8e3d01)" style="fill: none; stroke: #e1e0d9; stroke-width: 0.75; stroke-linecap: round"/>
     </g>
     <g id="line2d_18">
      <defs>
       <path id="m3431a29848" d="M 0 0 
L -3.5 0 
" style="stroke: #898781; stroke-width: 0.8"/>
      </defs>
      <g>
       <use xlink:href="#m3431a29848" x="53.157271" y="146.234667" style="fill: #898781; stroke: #898781; stroke-width: 0.8"/>
      </g>
     </g>
     <g id="text_1">
      <!-- 47.0 -->
      <g style="fill: #898781" transform="translate(26.118209 149.653964) scale(0.09 -0.09)">
       <defs>
        <path id="DejaVuSans-34" d="M 2419 4116 
L 825 1625 
L 2419 1625 
L 2419 4116 
z
M 2253 4666 
L 3047 4666 
L 3047 1625 
L 3713 1625 
L 3713 1100 
L 3047 1100 
L 3047 0 
L 2419 0 
L 2419 1100 
L 313 1100 
L 313 1709 
L 2253 4666 
z
" transform="scale(0.015625)"/>
        <path id="DejaVuSans-37" d="M 525 4666 
L 3525 4666 
L 3525 4397 
L 1831 0 
L 1172 0 
L 2766 4134 
L 525 4134 
L 525 4666 
z
" transform="scale(0.015625)"/>
        <path id="DejaVuSans-2e" d="M 684 794 
L 1344 794 
L 1344 0 
L 684 0 
L 684 794 
z
" transform="scale(0.015625)"/>
        <path id="DejaVuSans-30" d="M 2034 4250 
Q 1547 4250 1301 3770 
Q 1056 3291 1056 2328 
Q 1056 1369 1301 889 
Q 1547 409 2034 409 
Q 2525 409 2770 889 
Q 3016 1369 3016 2328 
Q 3016 3291 2770 3770 
Q 2525 4250 2034 4250 
z
M 2034 4750 
Q 2819 4750 3233 4129 
Q 3647 3509 3647 2328 
Q 3647 1150 3233 529 
Q 2819 -91 2034 -91 
Q 1250 -91 836 529 
Q 422 1150 422 2328 
Q 422 3509 836 4129 
Q 1250 4750 2034 4750 
z
" transform="scale(0.015625)"/>
       </defs>
       <use xlink:href="#DejaVuSans-34"/>
       <use xlink:href="#DejaVuSans-37" transform="translate(63.623047 0)"/>
       <use xlink:href="#DejaVuSans-2e" transform="translate(127.246094 0)"/>
       <use xlink:href="#DejaVuSans-30" transform="translate(159.033203 0)"/>
      </g>
     </g>
    </g>
    <g id="ytick_2">
     <g id="line2d_19">
      <path d="M 53.157271 128.229669 
L 415.800901 128.229669 
" clip-path="url(#pe1dd8e3d01)" style="fill: none; stroke: #e1e0d9; stroke-width: 0.75; stroke-linecap: round"/>
     </g>
     <g id="line2d_20">
      <g>
       <use xlink:href="#m3431a29848" x="53.157271" y="128.229669" style="fill: #898781; stroke: #898781; stroke-width: 0.8"/>
      </g>
     </g>
     <g id="text_2">
      <!-- 47.5 -->
      <g style="fill: #898781" transform="translate(26.118209 131.648966) scale(0.09 -0.09)">
       <defs>
        <path id="DejaVuSans-35" d="M 691 4666 
L 3169 4666 
L 3169 4134 
L 1269 4134 
L 1269 2991 
Q 1406 3038 1543 3061 
Q 1681 3084 1819 3084 
Q 2600 3084 3056 2656 
Q 3513 2228 3513 1497 
Q 3513 744 3044 326 
Q 2575 -91 1722 -91 
Q 1428 -91 1123 -41 
Q 819 9 494 109 
L 494 744 
Q 775 591 1075 516 
Q 1375 441 1709 441 
Q 2250 441 2565 725 
Q 2881 1009 2881 1497 
Q 2881 1984 2565 2268 
Q 2250 2553 1709 2553 
Q 1456 2553 1204 2497 
Q 953 2441 691 2322 
L 691 4666 
z
" transform="scale(0.015625)"/>
       </defs>
       <use xlink:href="#DejaVuSans-34"/>
       <use xlink:href="#DejaVuSans-37" transform="translate(63.623047 0)"/>
       <use xlink:href="#DejaVuSans-2e" transform="translate(127.246094 0)"/>
       <use xlink:href="#DejaVuSans-35" transform="translate(159.033203 0)"/>
      </g>
     </g>
    </g>
    <g id="ytick_3">
     <g id="line2d_21">
      <path d="M 53.157271 110.22467 
L 415.800901 110.22467 
" clip-path="url(#pe1dd8e3d01)" style="fill: none; stroke: #e1e0d9; stroke-width: 0.75; stroke-linecap: round"/>
     </g>
     <g id="line2d_22">
      <g>
       <use xlink:href="#m3431a29848" x="53.157271" y="110.22467" style="fill: #898781; stroke: #898781; stroke-width: 0.8"/>
      </g>
     </g>
     <g id="text_3">
      <!-- 48.0 -->
      <g style="fill: #898781" transform="translate(26.118209 113.643967) scale(0.09 -0.09)">
       <defs>
        <path id="DejaVuSans-38" d="M 2034 2216 
Q 1584 2216 1326 1975 
Q 1069 1734 1069 1313 
Q 1069 891 1326 650 
Q 1584 409 2034 409 
Q 2484 409 2743 651 
Q 3003 894 3003 1313 
Q 3003 1734 2745 1975 
Q 2488 2216 2034 2216 
z
M 1403 2484 
Q 997 2584 770 2862 
Q 544 3141 544 3541 
Q 544 4100 942 4425 
Q 1341 4750 2034 4750 
Q 2731 4750 3128 4425 
Q 3525 4100 3525 3541 
Q 3525 3141 3298 2862 
Q 3072 2584 2669 2484 
Q 3125 2378 3379 2068 
Q 3634 1759 3634 1313 
Q 3634 634 3220 271 
Q 2806 -91 2034 -91 
Q 1263 -91 848 271 
Q 434 634 434 1313 
Q 434 1759 690 2068 
Q 947 2378 1403 2484 
z
M 1172 3481 
Q 1172 3119 1398 2916 
Q 1625 2713 2034 2713 
Q 2441 2713 2670 2916 
Q 2900 3119 2900 3481 
Q 2900 3844 2670 4047 
Q 2441 4250 2034 4250 
Q 1625 4250 1398 4047 
Q 1172 3844 1172 3481 
z
" transform="scale(0.015625)"/>
       </defs>
       <use xlink:href="#DejaVuSans-34"/>
       <use xlink:href="#DejaVuSans-38" transform="translate(63.623047 0)"/>
       <use xlink:href="#DejaVuSans-2e" transform="translate(127.246094 0)"/>
       <use xlink:href="#DejaVuSans-30" transform="translate(159.033203 0)"/>
      </g>
     </g>
    </g>
    <g id="ytick_4">
     <g id="line2d_23">
      <path d="M 53.157271 92.219672 
L 415.800901 92.219672 
" clip-path="url(#pe1dd8e3d01)" style="fill: none; stroke: #e1e0d9; stroke-width: 0.75; stroke-linecap: round"/>
     </g>
     <g id="line2d_24">
      <g>
       <use xlink:href="#m3431a29848" x="53.157271" y="92.219672" style="fill: #898781; stroke: #898781; stroke-width: 0.8"/>
      </g>
     </g>
     <g id="text_4">
      <!-- 48.5 -->
      <g style="fill: #898781" transform="translate(26.118209 95.638968) scale(0.09 -0.09)">
       <use xlink:href="#DejaVuSans-34"/>
       <use xlink:href="#DejaVuSans-38" transform="translate(63.623047 0)"/>
       <use xlink:href="#DejaVuSans-2e" transform="translate(127.246094 0)"/>
       <use xlink:href="#DejaVuSans-35" transform="translate(159.033203 0)"/>
      </g>
     </g>
    </g>
    <g id="ytick_5">
     <g id="line2d_25">
      <path d="M 53.157271 74.214673 
L 415.800901 74.214673 
" clip-path="url(#pe1dd8e3d01)" style="fill: none; stroke: #e1e0d9; stroke-width: 0.75; stroke-linecap: round"/>
     </g>
     <g id="line2d_26">
      <g>
       <use xlink:href="#m3431a29848" x="53.157271" y="74.214673" style="fill: #898781; stroke: #898781; stroke-width: 0.8"/>
      </g>
     </g>
     <g id="text_5">
      <!-- 49.0 -->
      <g style="fill: #898781" transform="translate(26.118209 77.63397) scale(0.09 -0.09)">
       <defs>
        <path id="DejaVuSans-39" d="M 703 97 
L 703 672 
Q 941 559 1184 500 
Q 1428 441 1663 441 
Q 2288 441 2617 861 
Q 2947 1281 2994 2138 
Q 2813 1869 2534 1725 
Q 2256 1581 1919 1581 
Q 1219 1581 811 2004 
Q 403 2428 403 3163 
Q 403 3881 828 4315 
Q 1253 4750 1959 4750 
Q 2769 4750 3195 4129 
Q 3622 3509 3622 2328 
Q 3622 1225 3098 567 
Q 2575 -91 1691 -91 
Q 1453 -91 1209 -44 
Q 966 3 703 97 
z
M 1959 2075 
Q 2384 2075 2632 2365 
Q 2881 2656 2881 3163 
Q 2881 3666 2632 3958 
Q 2384 4250 1959 4250 
Q 1534 4250 1286 3958 
Q 1038 3666 1038 3163 
Q 1038 2656 1286 2365 
Q 1534 2075 1959 2075 
z
" transform="scale(0.015625)"/>
       </defs>
       <use xlink:href="#DejaVuSans-34"/>
       <use xlink:href="#DejaVuSans-39" transform="translate(63.623047 0)"/>
       <use xlink:href="#DejaVuSans-2e" transform="translate(127.246094 0)"/>
       <use xlink:href="#DejaVuSans-30" transform="translate(159.033203 0)"/>
      </g>
     </g>
    </g>
    <g id="ytick_6">
     <g id="line2d_27">
      <path d="M 53.157271 56.209674 
L 415.800901 56.209674 
" clip-path="url(#pe1dd8e3d01)" style="fill: none; stroke: #e1e0d9; stroke-width: 0.75; stroke-linecap: round"/>
     </g>
     <g id="line2d_28">
      <g>
       <use xlink:href="#m3431a29848" x="53.157271" y="56.209674" style="fill: #898781; stroke: #898781; stroke-width: 0.8"/>
      </g>
     </g>
     <g id="text_6">
      <!-- 49.5 -->
      <g style="fill: #898781" transform="translate(26.118209 59.628971) scale(0.09 -0.09)">
       <use xlink:href="#DejaVuSans-34"/>
       <use xlink:href="#DejaVuSans-39" transform="translate(63.623047 0)"/>
       <use xlink:href="#DejaVuSans-2e" transform="translate(127.246094 0)"/>
       <use xlink:href="#DejaVuSans-35" transform="translate(159.033203 0)"/>
      </g>
     </g>
    </g>
    <g id="ytick_7">
     <g id="line2d_29">
      <path d="M 53.157271 38.204676 
L 415.800901 38.204676 
" clip-path="url(#pe1dd8e3d01)" style="fill: none; stroke: #e1e0d9; stroke-width: 0.75; stroke-linecap: round"/>
     </g>
     <g id="line2d_30">
      <g>
       <use xlink:href="#m3431a29848" x="53.157271" y="38.204676" style="fill: #898781; stroke: #898781; stroke-width: 0.8"/>
      </g>
     </g>
     <g id="text_7">
      <!-- 50.0 -->
      <g style="fill: #898781" transform="translate(26.118209 41.623973) scale(0.09 -0.09)">
       <use xlink:href="#DejaVuSans-35"/>
       <use xlink:href="#DejaVuSans-30" transform="translate(63.623047 0)"/>
       <use xlink:href="#DejaVuSans-2e" transform="translate(127.246094 0)"/>
       <use xlink:href="#DejaVuSans-30" transform="translate(159.033203 0)"/>
      </g>
     </g>
    </g>
    <g id="ytick_8">
     <g id="line2d_31">
      <path d="M 53.157271 20.199677 
L 415.800901 20.199677 
" clip-path="url(#pe1dd8e3d01)" style="fill: none; stroke: #e1e0d9; stroke-width: 0.75; stroke-linecap: round"/>
     </g>
     <g id="line2d_32">
      <g>
       <use xlink:href="#m3431a29848" x="53.157271" y="20.199677" style="fill: #898781; stroke: #898781; stroke-width: 0.8"/>
      </g>
     </g>
     <g id="text_8">
      <!-- 50.5 -->
      <g style="fill: #898781" transform="translate(26.118209 23.618974) scale(0.09 -0.09)">
       <use xlink:href="#DejaVuSans-35"/>
       <use xlink:href="#DejaVuSans-30" transform="translate(63.623047 0)"/>
       <use xlink:href="#DejaVuSans-2e" transform="translate(127.246094 0)"/>
       <use xlink:href="#DejaVuSans-35" transform="translate(159.033203 0)"/>
      </g>
     </g>
    </g>
    <g id="text_9">
     <!-- FIFO occupancy (frames) -->
     <g style="fill: #52514e" transform="translate(20.24649 144.882734) rotate(-90) scale(0.09 -0.09)">
      <defs>
       <path id="DejaVuSans-46" d="M 628 4666 
L 3309 4666 
L 3309 4134 
L 1259 4134 
L 1259 2759 
L 3109 2759 
L 3109 2228 
L 1259 2228 
L 1259 0 
L 628 0 
L 628 4666 
z
" transform="scale(0.015625)"/>
       <path id="DejaVuSans-49" d="M 628 4666 
L 1259 4666 
L 1259 0 
L 628 0 
L 628 4666 
z
" transform="scale(0.015625)"/>
       <path id="DejaVuSans-4f" d="M 2522 4238 
Q 1834 4238 1429 3725 
Q 1025 3213 1025 2328 
Q 1025 1447 1429 934 
Q 1834 422 2522 422 
Q 3209 422 3611 934 
Q 4013 1447 4013 2328 
Q 4013 3213 3611 3725 
Q 3209 4238 2522 4238 
z
M 2522 4750 
Q 3503 4750 4090 4092 
Q 4678 3434 4678 2328 
Q 4678 1225 4090 567 
Q 3503 -91 2522 -91 
Q 1538 -91 948 565 
Q 359 1222 359 2328 
Q 359 3434 948 4092 
Q 1538 4750 2522 4750 
z
" transform="scale(0.015625)"/>
       <path id="DejaVuSans-20" transform="scale(0.015625)"/>
       <path id="DejaVuSans-6f" d="M 1959 3097 
Q 1497 3097 1228 2736 
Q 959 2375 959 1747 
Q 959 1119 1226 758 
Q 1494 397 1959 397 
Q 2419 397 2687 759 
Q 2956 1122 2956 1747 
Q 2956 2369 2687 2733 
Q 2419 3097 1959 3097 
z
M 1959 3584 
Q 2709 3584 3137 3096 
Q 3566 2609 3566 1747 
Q 3566 888 3137 398 
Q 2709 -91 1959 -91 
Q 1206 -91 779 398 
Q 353 888 353 1747 
Q 353 2609 779 3096 
Q 1206 3584 1959 3584 
z
" transform="scale(0.015625)"/>
       <path id="DejaVuSans-63" d="M 3122 3366 
L 3122 2828 
Q 2878 2963 2633 3030 
Q 2388 3097 2138 3097 
Q 1578 3097 1268 2742 
Q 959 2388 959 1747 
Q 959 1106 1268 751 
Q 1578 397 2138 397 
Q 2388 397 2633 464 
Q 2878 531 3122 666 
L 3122 134 
Q 2881 22 2623 -34 
Q 2366 -91 2075 -91 
Q 1284 -91 818 406 
Q 353 903 353 1747 
Q 353 2603 823 3093 
Q 1294 3584 2113 3584 
Q 2378 3584 2631 3529 
Q 2884 3475 3122 3366 
z
" transform="scale(0.015625)"/>
       <path id="DejaVuSans-75" d="M 544 1381 
L 544 3500 
L 1119 3500 
L 1119 1403 
Q 1119 906 1312 657 
Q 1506 409 1894 409 
Q 2359 409 2629 706 
Q 2900 1003 2900 1516 
L 2900 3500 
L 3475 3500 
L 3475 0 
L 2900 0 
L 2900 538 
Q 2691 219 2414 64 
Q 2138 -91 1772 -91 
Q 1169 -91 856 284 
Q 544 659 544 1381 
z
M 1991 3584 
L 1991 3584 
z
" transform="scale(0.015625)"/>
       <path id="DejaVuSans-70" d="M 1159 525 
L 1159 -1331 
L 581 -1331 
L 581 3500 
L 1159 3500 
L 1159 2969 
Q 1341 3281 1617 3432 
Q 1894 3584 2278 3584 
Q 2916 3584 3314 3078 
Q 3713 2572 3713 1747 
Q 3713 922 3314 415 
Q 2916 -91 2278 -91 
Q 1894 -91 1617 61 
Q 1341 213 1159 525 
z
M 3116 1747 
Q 3116 2381 2855 2742 
Q 2594 3103 2138 3103 
Q 1681 3103 1420 2742 
Q 1159 2381 1159 1747 
Q 1159 1113 1420 752 
Q 1681 391 2138 391 
Q 2594 391 2855 752 
Q 3116 1113 3116 1747 
z
" transform="scale(0.015625)"/>
       <path id="DejaVuSans-61" d="M 2194 1759 
Q 1497 1759 1228 1600 
Q 959 1441 959 1056 
Q 959 750 1161 570 
Q 1363 391 1709 391 
Q 2188 391 2477 730 
Q 2766 1069 2766 1631 
L 2766 1759 
L 2194 1759 
z
M 3341 1997 
L 3341 0 
L 2766 0 
L 2766 531 
Q 2569 213 2275 61 
Q 1981 -91 1556 -91 
Q 1019 -91 701 211 
Q 384 513 384 1019 
Q 384 1609 779 1909 
Q 1175 2209 1959 2209 
L 2766 2209 
L 2766 2266 
Q 2766 2663 2505 2880 
Q 2244 3097 1772 3097 
Q 1472 3097 1187 3025 
Q 903 2953 641 2809 
L 641 3341 
Q 956 3463 1253 3523 
Q 1550 3584 1831 3584 
Q 2591 3584 2966 3190 
Q 3341 2797 3341 1997 
z
" transform="scale(0.015625)"/>
       <path id="DejaVuSans-6e" d="M 3513 2113 
L 3513 0 
L 2938 0 
L 2938 2094 
Q 2938 2591 2744 2837 
Q 2550 3084 2163 3084 
Q 1697 3084 1428 2787 
Q 1159 2491 1159 1978 
L 1159 0 
L 581 0 
L 581 3500 
L 1159 3500 
L 1159 2956 
Q 1366 3272 1645 3428 
Q 1925 3584 2291 3584 
Q 2894 3584 3203 3211 
Q 3513 2838 3513 2113 
z
" transform="scale(0.015625)"/>
       <path id="DejaVuSans-79" d="M 2059 -325 
Q 1816 -950 1584 -1140 
Q 1353 -1331 966 -1331 
L 506 -1331 
L 506 -850 
L 844 -850 
Q 1081 -850 1212 -737 
Q 1344 -625 1503 -206 
L 1606 56 
L 191 3500 
L 800 3500 
L 1894 763 
L 2988 3500 
L 3597 3500 
L 2059 -325 
z
" transform="scale(0.015625)"/>
       <path id="DejaVuSans-28" d="M 1984 4856 
Q 1566 4138 1362 3434 
Q 1159 2731 1159 2009 
Q 1159 1288 1364 580 
Q 1569 -128 1984 -844 
L 1484 -844 
Q 1016 -109 783 600 
Q 550 1309 550 2009 
Q 550 2706 781 3412 
Q 1013 4119 1484 4856 
L 1984 4856 
z
" transform="scale(0.015625)"/>
       <path id="DejaVuSans-66" d="M 2375 4863 
L 2375 4384 
L 1825 4384 
Q 1516 4384 1395 4259 
Q 1275 4134 1275 3809 
L 1275 3500 
L 2222 3500 
L 2222 3053 
L 1275 3053 
L 1275 0 
L 697 0 
L 697 3053 
L 147 3053 
L 147 3500 
L 697 3500 
L 697 3744 
Q 697 4328 969 4595 
Q 1241 4863 1831 4863 
L 2375 4863 
z
" transform="scale(0.015625)"/>
       <path id="DejaVuSans-72" d="M 2631 2963 
Q 2534 3019 2420 3045 
Q 2306 3072 2169 3072 
Q 1681 3072 1420 2755 
Q 1159 2438 1159 1844 
L 1159 0 
L 581 0 
L 581 3500 
L 1159 3500 
L 1159 2956 
Q 1341 3275 1631 3429 
Q 1922 3584 2338 3584 
Q 2397 3584 2469 3576 
Q 2541 3569 2628 3553 
L 2631 2963 
z
" transform="scale(0.015625)"/>
       <path id="DejaVuSans-6d" d="M 3328 2828 
Q 3544 3216 3844 3400 
Q 4144 3584 4550 3584 
Q 5097 3584 5394 3201 
Q 5691 2819 5691 2113 
L 5691 0 
L 5113 0 
L 5113 2094 
Q 5113 2597 4934 2840 
Q 4756 3084 4391 3084 
Q 3944 3084 3684 2787 
Q 3425 2491 3425 1978 
L 3425 0 
L 2847 0 
L 2847 2094 
Q 2847 2600 2669 2842 
Q 2491 3084 2119 3084 
Q 1678 3084 1418 2786 
Q 1159 2488 1159 1978 
L 1159 0 
L 581 0 
L 581 3500 
L 1159 3500 
L 1159 2956 
Q 1356 3278 1631 3431 
Q 1906 3584 2284 3584 
Q 2666 3584 2933 3390 
Q 3200 3197 3328 2828 
z
" transform="scale(0.015625)"/>
       <path id="DejaVuSans-65" d="M 3597 1894 
L 3597 1613 
L 953 1613 
Q 991 1019 1311 708 
Q 1631 397 2203 397 
Q 2534 397 2845 478 
Q 3156 559 3463 722 
L 3463 178 
Q 3153 47 2828 -22 
Q 2503 -91 2169 -91 
Q 1331 -91 842 396 
Q 353 884 353 1716 
Q 353 2575 817 3079 
Q 1281 3584 2069 3584 
Q 2775 3584 3186 3129 
Q 3597 2675 3597 1894 
z
M 3022 2063 
Q 3016 2534 2758 2815 
Q 2500 3097 2075 3097 
Q 1594 3097 1305 2825 
Q 1016 2553 972 2059 
L 3022 2063 
z
" transform="scale(0.015625)"/>
       <path id="DejaVuSans-73" d="M 2834 3397 
L 2834 2853 
Q 2591 2978 2328 3040 
Q 2066 3103 1784 3103 
Q 1356 3103 1142 2972 
Q 928 2841 928 2578 
Q 928 2378 1081 2264 
Q 1234 2150 1697 2047 
L 1894 2003 
Q 2506 1872 2764 1633 
Q 3022 1394 3022 966 
Q 3022 478 2636 193 
Q 2250 -91 1575 -91 
Q 1294 -91 989 -36 
Q 684 19 347 128 
L 347 722 
Q 666 556 975 473 
Q 1284 391 1588 391 
Q 1994 391 2212 530 
Q 2431 669 2431 922 
Q 2431 1156 2273 1281 
Q 2116 1406 1581 1522 
L 1381 1569 
Q 847 1681 609 1914 
Q 372 2147 372 2553 
Q 372 3047 722 3315 
Q 1072 3584 1716 3584 
Q 2034 3584 2315 3537 
Q 2597 3491 2834 3397 
z
" transform="scale(0.015625)"/>
       <path id="DejaVuSans-29" d="M 513 4856 
L 1013 4856 
Q 1481 4119 1714 3412 
Q 1947 2706 1947 2009 
Q 1947 1309 1714 600 
Q 1481 -109 1013 -844 
L 513 -844 
Q 928 -128 1133 580 
Q 1338 1288 1338 2009 
Q 1338 2731 1133 3434 
Q 928 4138 513 4856 
z
" transform="scale(0.015625)"/>
      </defs>
      <use xlink:href="#DejaVuSans-46"/>
      <use xlink:href="#DejaVuSans-49" transform="translate(57.519531 0)"/>
      <use xlink:href="#DejaVuSans-46" transform="translate(87.011719 0)"/>
      <use xlink:href="#DejaVuSans-4f" transform="translate(144.53125 0)"/>
      <use xlink:href="#DejaVuSans-20" transform="translate(223.242188 0)"/>
      <use xlink:href="#DejaVuSans-6f" transform="translate(255.029297 0)"/>
      <use xlink:href="#DejaVuSans-63" transform="translate(316.210938 0)"/>
      <use xlink:href="#DejaVuSans-63" transform="translate(371.191406 0)"/>
      <use xlink:href="#DejaVuSans-75" transform="translate(426.171875 0)"/>
      <use xlink:href="#DejaVuSans-70" transform="translate(489.550781 0)"/>
      <use xlink:href="#DejaVuSans-61" transform="translate(553.027344 0)"/>
      <use xlink:href="#DejaVuSans-6e" transform="translate(614.306641 0)"/>
      <use xlink:href="#DejaVuSans-63" transform="translate(677.685547 0)"/>
      <use xlink:href="#DejaVuSans-79" transform="translate(732.666016 0)"/>
      <use xlink:href="#DejaVuSans-20" transform="translate(791.845703 0)"/>
      <use xlink:href="#DejaVuSans-28" transform="translate(823.632812 0)"/>
      <use xlink:href="#DejaVuSans-66" transform="translate(862.646484 0)"/>
      <use xlink:href="#DejaVuSans-72" transform="translate(897.851562 0)"/>
      <use xlink:href="#DejaVuSans-61" transform="translate(938.964844 0)"/>
      <use xlink:href="#DejaVuSans-6d" transform="translate(1000.244141 0)"/>
      <use xlink:href="#DejaVuSans-65" transform="translate(1097.65625 0)"/>
      <use xlink:href="#DejaVuSans-73" transform="translate(1159.179688 0)"/>
      <use xlink:href="#DejaVuSans-29" transform="translate(1211.279297 0)"/>
     </g>
    </g>
   </g>
   <g id="line2d_33">
    <path d="M 69.641073 110.22467 
L 69.650838 110.22467 
L 69.753406 46.847075 
L 69.763172 68.092973 
L 69.91947 135.071568 
L 69.953654 141.553368 
L 69.958541 128.949869 
L 70.002498 133.271068 
L 70.080647 103.742871 
L 70.105066 130.750369 
L 70.197867 117.06657 
L 70.236938 124.268569 
L 70.315087 99.781771 
L 70.334619 125.348869 
L 70.42742 106.26357 
L 70.446959 106.62367 
L 70.48603 103.382771 
L 70.569058 82.857072 
L 70.578832 104.102971 
L 70.613016 134.351368 
L 70.66186 103.742871 
L 70.691165 109.50447 
L 70.764427 102.662571 
L 70.715583 127.149369 
L 70.793732 113.82567 
L 70.823037 123.548369 
L 70.871881 103.742871 
L 70.8963 106.62367 
L 70.940257 97.261071 
L 70.920718 126.069069 
L 70.998867 105.543371 
L 71.081895 122.468069 
L 71.096548 100.141871 
L 71.1112 121.387769 
L 71.16981 97.261071 
L 71.22842 103.382771 
L 71.291917 91.499472 
L 71.321222 82.136872 
L 71.335874 110.94487 
L 71.370066 135.791768 
L 71.433555 98.701471 
L 71.457981 128.589769 
L 71.497052 105.183271 
L 71.575201 108.06407 
L 71.628924 123.548369 
L 71.643576 100.862071 
L 71.682647 110.94487 
L 71.721725 123.188269 
L 71.794988 99.421671 
L 71.81452 125.708969 
L 71.87313 96.540871 
L 71.902435 107.34387 
L 71.936626 87.538372 
L 71.921974 122.107969 
L 72.024541 90.779272 
L 72.053846 81.416672 
L 72.068499 109.86457 
L 72.107569 136.511968 
L 72.156413 106.98377 
L 72.175953 115.62617 
L 72.263867 101.222171 
L 72.205257 126.429169 
L 72.27852 121.747869 
L 72.283399 126.069069 
L 72.298052 102.302471 
L 72.366435 106.98377 
L 72.464116 100.501971 
L 72.449463 123.188269 
L 72.469002 109.14437 
L 72.51296 125.708969 
L 72.532491 96.900971 
L 72.576449 116.70647 
L 72.683903 98.701471 
L 72.61064 122.107969 
L 72.68879 107.34387 
L 72.693669 114.54587 
L 72.801123 109.50447 
L 72.986718 88.258572 
L 73.006258 82.136872 
L 73.02091 110.58477 
L 73.055102 135.791768 
L 73.074633 101.222171 
L 73.13813 122.468069 
L 73.177201 101.222171 
L 73.19674 126.429169 
L 73.25535 104.102971 
L 73.343265 123.548369 
L 73.284655 100.862071 
L 73.37257 121.747869 
L 73.43118 103.382771 
L 73.48979 107.70397 
L 73.538634 107.70397 
L 73.680272 105.183271 
L 73.685158 105.183271 
L 73.890293 97.981271 
L 73.895173 97.981271 
L 74.090541 87.898472 
L 74.100307 90.419172 
L 74.222414 110.58477 
L 74.29079 108.06407 
L 74.554534 96.540871 
L 74.559421 96.540871 
L 74.691293 88.978772 
L 74.710832 93.299972 
L 74.950151 121.747869 
L 74.979456 123.188269 
L 75.018535 118.86707 
L 75.404379 90.419172 
L 75.428804 95.820671 
L 75.653471 121.747869 
L 75.658357 121.747869 
L 75.741386 124.988769 
L 75.765811 122.107969 
L 76.029556 99.421671 
L 76.146776 91.139372 
L 76.171194 96.540871 
L 76.395868 122.107969 
L 76.400747 122.107969 
L 76.508201 126.069069 
L 76.527741 123.548369 
L 76.801251 99.421671 
L 76.918471 91.139372 
L 76.942889 96.540871 
L 77.245712 124.988769 
L 77.250592 124.988769 
L 77.270131 125.708969 
L 77.304322 121.387769 
L 77.675514 91.139372 
L 77.709705 98.341371 
L 77.924606 121.747869 
L 78.03206 126.069069 
L 78.051599 123.548369 
L 78.32511 99.421671 
L 78.437443 91.139372 
L 78.461869 96.540871 
L 78.686535 122.107969 
L 78.793989 126.069069 
L 78.813528 123.908469 
L 79.087039 99.781771 
L 79.209145 91.139372 
L 79.233564 96.540871 
L 79.458238 122.107969 
L 79.560805 126.069069 
L 79.580337 123.548369 
L 79.98084 91.139372 
L 80.015032 98.341371 
L 80.229933 122.107969 
L 80.234819 122.107969 
L 80.322734 125.708969 
L 80.347153 122.468069 
L 80.737883 90.779272 
L 80.772075 98.341371 
L 81.060238 124.988769 
L 81.065124 124.988769 
L 81.084663 125.708969 
L 81.118848 121.387769 
L 81.494933 91.139372 
L 81.529117 98.341371 
L 81.744025 121.747869 
L 81.851472 125.708969 
L 81.871011 123.548369 
L 82.144522 99.421671 
L 82.256862 91.139372 
L 82.281281 96.540871 
L 82.505954 122.107969 
L 82.613401 126.069069 
L 82.63294 123.548369 
L 83.028557 91.139372 
L 83.067628 99.421671 
L 83.350912 124.988769 
L 83.355799 124.988769 
L 83.37533 125.708969 
L 83.409522 121.387769 
L 83.7856 91.139372 
L 83.819792 98.341371 
L 84.034692 121.747869 
L 84.13726 125.708969 
L 84.156799 123.188269 
L 84.54265 91.139372 
L 84.581721 99.421671 
L 84.796621 122.468069 
L 84.801508 122.468069 
L 84.904075 126.429169 
L 84.923615 123.908469 
L 85.197125 99.781771 
L 85.319232 91.139372 
L 85.34365 96.540871 
L 85.646466 124.988769 
L 85.666005 125.708969 
L 85.700196 121.387769 
L 86.076274 91.139372 
L 86.110466 98.341371 
L 86.330253 122.468069 
L 86.335132 122.468069 
L 86.427934 126.069069 
L 86.447473 123.548369 
L 86.716097 100.141871 
L 86.84309 91.139372 
L 86.867508 96.540871 
L 87.092182 122.107969 
L 87.097062 122.107969 
L 87.189863 125.708969 
L 87.214281 122.828169 
L 87.478026 100.141871 
L 87.605019 91.139372 
L 87.629438 96.540871 
L 87.932253 124.988769 
L 87.951792 125.708969 
L 87.985984 121.387769 
L 88.254608 109.50447 
L 90.437828 109.50447 
L 90.550169 109.14437 
L 91.160687 109.14437 
L 91.27302 108.78427 
L 91.732133 108.78427 
L 91.844467 108.42417 
L 92.240084 108.42417 
L 92.352424 108.06407 
L 92.694311 108.06407 
L 92.806651 107.70397 
L 93.138772 107.70397 
L 93.251105 107.34387 
L 93.558807 107.34387 
L 93.671148 106.98377 
L 93.973964 106.98377 
L 94.086297 106.62367 
L 94.384233 106.62367 
L 94.496567 106.26357 
L 94.784737 106.26357 
L 94.89707 105.903471 
L 95.195007 105.903471 
L 95.30734 105.543371 
L 95.605276 105.543371 
L 95.717609 105.183271 
L 96.030198 105.183271 
L 96.142531 104.823171 
L 96.45512 104.823171 
L 96.567454 104.463071 
L 96.909347 104.463071 
L 97.021681 104.102971 
L 97.358688 104.102971 
L 97.471021 103.742871 
L 97.837333 103.742871 
L 97.949674 103.382771 
L 98.335518 103.382771 
L 98.447858 103.022671 
L 98.843475 103.022671 
L 98.955809 102.662571 
L 99.40027 102.662571 
L 99.512603 102.302471 
L 100.001022 102.302471 
L 100.113355 101.942371 
L 100.645731 101.942371 
L 100.758064 101.582271 
L 101.363703 101.582271 
L 101.476036 101.222171 
L 102.179355 101.222171 
L 102.291689 100.862071 
L 103.12688 100.862071 
L 103.239221 100.501971 
L 104.357689 100.501971 
L 104.47003 100.141871 
L 106.663016 100.141871 
L 106.775349 99.781771 
L 109.105094 99.781771 
L 109.217435 100.141871 
L 111.957449 100.141871 
L 112.069783 100.501971 
L 113.608294 100.501971 
L 113.720627 100.862071 
L 115.054003 100.862071 
L 115.166344 101.222171 
L 116.411805 101.222171 
L 116.524138 101.582271 
L 117.642614 101.582271 
L 117.754947 101.942371 
L 118.785507 101.942371 
L 118.897841 102.302471 
L 119.933281 102.302471 
L 120.045621 102.662571 
L 121.04199 102.662571 
L 121.154323 103.022671 
L 122.165345 103.022671 
L 122.277678 103.382771 
L 123.293586 103.382771 
L 123.40592 103.742871 
L 124.480438 103.742871 
L 124.592771 104.102971 
L 125.672175 104.102971 
L 125.784509 104.463071 
L 126.951821 104.463071 
L 127.064162 104.823171 
L 128.290084 104.823171 
L 128.402417 105.183271 
L 129.672304 105.183271 
L 129.784637 105.543371 
L 131.191276 105.543371 
L 131.303609 105.903471 
L 132.886077 105.903471 
L 132.998418 106.26357 
L 134.717638 106.26357 
L 134.829979 106.62367 
L 136.998546 106.62367 
L 137.11088 106.98377 
L 139.86066 106.98377 
L 139.973001 107.34387 
L 142.566491 107.34387 
L 142.678824 107.70397 
L 147.323662 107.70397 
L 147.435995 108.06407 
L 152.422727 108.06407 
L 152.53506 108.42417 
L 160.642771 108.42417 
L 160.755104 108.78427 
L 171.163255 108.78427 
L 171.275588 109.14437 
L 184.238158 109.14437 
L 184.350492 109.50447 
L 201.782062 109.50447 
L 201.894403 109.86457 
L 239.228935 109.86457 
L 239.341268 110.22467 
L 239.736885 110.22467 
L 239.815034 109.86457 
L 239.844339 110.22467 
L 275.166594 110.22467 
L 275.318005 91.859572 
L 275.34731 82.136872 
L 275.361963 110.94487 
L 275.401034 137.232168 
L 275.425452 97.261071 
L 275.46453 111.66507 
L 275.557324 101.222171 
L 275.488949 127.869569 
L 275.567098 116.34637 
L 275.576863 126.069069 
L 275.655013 100.862071 
L 275.674544 112.74537 
L 275.689197 119.587269 
L 275.791764 100.862071 
L 275.860147 82.136872 
L 275.869913 103.382771 
L 275.913871 137.232168 
L 275.938289 97.261071 
L 275.982246 113.82567 
L 275.99202 100.501971 
L 276.045743 126.789269 
L 276.0897 113.46557 
L 276.099466 124.628669 
L 276.114119 101.582271 
L 276.202034 119.947369 
L 276.289949 99.781771 
L 276.309488 125.708969 
L 276.319254 108.42417 
L 276.329027 96.900971 
L 276.348559 124.268569 
L 276.426708 108.42417 
L 276.436473 121.027669 
L 276.456013 98.701471 
L 276.529275 101.582271 
L 276.607424 81.776772 
L 276.61719 103.022671 
L 276.661147 137.232168 
L 276.685566 97.261071 
L 276.729523 105.183271 
L 276.778367 98.341371 
L 276.758828 129.309969 
L 276.832091 109.86457 
L 276.895587 123.548369 
L 276.91024 100.862071 
L 276.944431 119.587269 
L 277.032346 99.781771 
L 277.051878 125.708969 
L 277.061651 108.42417 
L 277.071417 96.900971 
L 277.090956 124.268569 
L 277.164218 115.62617 
L 277.169098 121.387769 
L 277.18375 99.781771 
L 277.266786 107.34387 
L 277.271665 107.34387 
L 277.384006 91.859572 
L 277.413311 82.496972 
L 277.427963 111.30497 
L 277.462147 136.511968 
L 277.486573 96.900971 
L 277.540296 118.86707 
L 277.642864 123.548369 
L 277.657516 100.862071 
L 277.677055 126.069069 
L 277.721013 100.501971 
L 277.76985 109.14437 
L 277.804041 100.501971 
L 277.789389 122.828169 
L 277.877304 103.382771 
L 277.921261 122.468069 
L 277.965219 99.781771 
L 277.989637 106.62367 
L 278.033594 108.06407 
L 278.077552 105.543371 
L 278.160587 92.219672 
L 278.189892 82.857072 
L 278.204545 111.66507 
L 278.23385 134.711468 
L 278.253382 100.862071 
L 278.316878 117.42667 
L 278.346183 127.149369 
L 278.434098 100.862071 
L 278.482942 123.548369 
L 278.546431 110.94487 
L 278.609928 100.141871 
L 278.595275 122.468069 
L 278.653885 103.742871 
L 278.717382 122.468069 
L 278.732034 100.501971 
L 278.761339 104.823171 
L 278.785758 105.903471 
L 278.834602 103.022671 
L 278.844368 103.022671 
L 278.854134 103.022671 
L 279.03485 97.621171 
L 279.039737 97.621171 
L 279.230219 88.258572 
L 279.239985 90.419172 
L 279.489077 121.387769 
L 279.503729 122.107969 
L 279.547687 117.78677 
L 279.938417 90.059072 
L 279.957957 94.740371 
L 280.270545 124.988769 
L 280.544056 100.862071 
L 280.685694 90.779272 
L 280.71012 96.180771 
L 280.934786 121.747869 
L 281.032475 125.708969 
L 281.056893 122.828169 
L 281.320638 99.781771 
L 281.325524 99.781771 
L 281.447623 91.139372 
L 281.472049 96.540871 
L 281.774865 125.348869 
L 281.784631 125.348869 
L 281.794404 125.708969 
L 281.833475 121.027669 
L 282.209553 91.139372 
L 282.243744 98.341371 
L 282.463531 122.468069 
L 282.468418 122.468069 
L 282.556333 126.069069 
L 282.580751 122.828169 
L 282.976368 90.779272 
L 283.01056 98.341371 
L 283.225461 122.107969 
L 283.230347 122.107969 
L 283.323141 125.708969 
L 283.347567 122.828169 
L 283.616191 99.421671 
L 283.738298 90.779272 
L 283.762716 96.180771 
L 283.98739 121.747869 
L 284.085071 125.708969 
L 284.10461 123.188269 
L 284.373241 99.781771 
L 284.49534 91.139372 
L 284.519766 96.180771 
L 284.744433 121.747869 
L 284.847 125.708969 
L 284.866539 123.188269 
L 285.25239 91.139372 
L 285.291461 99.421671 
L 285.501482 122.107969 
L 285.506362 122.107969 
L 285.608929 126.069069 
L 285.628468 123.548369 
L 285.901979 99.421671 
L 286.019199 91.139372 
L 286.043624 96.540871 
L 286.268291 122.107969 
L 286.273178 122.107969 
L 286.375745 126.069069 
L 286.395284 123.548369 
L 286.668795 99.421671 
L 286.786015 91.139372 
L 286.810433 96.540871 
L 287.035107 122.107969 
L 287.137674 126.069069 
L 287.157213 123.548369 
L 287.55771 90.779272 
L 287.596788 99.061571 
L 287.811688 122.107969 
L 287.899603 125.348869 
L 287.924022 122.468069 
L 288.187767 99.781771 
L 288.309873 90.779272 
L 288.334291 96.180771 
L 288.558965 121.747869 
L 288.661533 125.708969 
L 288.681072 123.188269 
L 288.954582 99.061571 
L 289.066916 91.139372 
L 289.091341 96.540871 
L 289.316008 121.747869 
L 289.428348 126.069069 
L 289.44788 123.548369 
L 289.721398 99.421671 
L 289.833731 91.139372 
L 289.85815 96.540871 
L 290.082824 122.107969 
L 290.08771 122.107969 
L 290.190278 126.069069 
L 290.209809 123.548369 
L 290.483327 99.421671 
L 290.600547 91.139372 
L 290.624966 96.540871 
L 290.927781 124.988769 
L 290.952207 125.708969 
L 290.986391 121.747869 
L 291.250136 99.061571 
L 291.362476 91.139372 
L 291.386895 96.540871 
L 291.68971 124.988769 
L 291.714136 125.708969 
L 291.74832 121.387769 
L 292.119519 91.139372 
L 292.153711 98.701471 
L 292.441874 125.348869 
L 292.45164 125.348869 
L 292.480945 126.429169 
L 292.515136 122.107969 
L 292.778881 99.421671 
L 292.896101 91.139372 
L 292.920519 96.540871 
L 293.145193 122.107969 
L 293.242874 125.708969 
L 293.262413 123.548369 
L 293.472434 104.463071 
L 293.584768 110.22467 
L 294.57625 110.22467 
L 294.688591 109.86457 
L 295.597045 109.86457 
L 295.709378 109.50447 
L 296.236867 109.50447 
L 296.349201 109.14437 
L 296.75947 109.14437 
L 296.871811 108.78427 
L 297.213697 108.78427 
L 297.326038 108.42417 
L 297.643506 108.42417 
L 297.755839 108.06407 
L 298.04401 108.06407 
L 298.156343 107.70397 
L 298.43474 107.70397 
L 298.547073 107.34387 
L 298.801052 107.34387 
L 298.913386 106.98377 
L 299.17713 106.98377 
L 299.289471 106.62367 
L 299.533677 106.62367 
L 299.64601 106.26357 
L 299.899989 106.26357 
L 300.012322 105.903471 
L 300.251648 105.903471 
L 300.363982 105.543371 
L 300.622847 105.543371 
L 300.73518 105.183271 
L 300.979386 105.183271 
L 301.091727 104.823171 
L 301.355471 104.823171 
L 301.467805 104.463071 
L 301.731549 104.463071 
L 301.843883 104.102971 
L 302.12228 104.102971 
L 302.23462 103.742871 
L 302.513018 103.742871 
L 302.625351 103.382771 
L 302.933053 103.382771 
L 303.045386 103.022671 
L 303.353089 103.022671 
L 303.465429 102.662571 
L 303.802436 102.662571 
L 303.91477 102.302471 
L 304.266429 102.302471 
L 304.378762 101.942371 
L 304.749961 101.942371 
L 304.862294 101.582271 
L 305.272564 101.582271 
L 305.384905 101.222171 
L 305.819593 101.222171 
L 305.931926 100.862071 
L 306.415458 100.862071 
L 306.527799 100.501971 
L 307.084593 100.501971 
L 307.196926 100.141871 
L 307.836749 100.141871 
L 307.94909 99.781771 
L 308.711019 99.781771 
L 308.823352 99.421671 
L 309.844139 99.421671 
L 309.95648 99.061571 
L 311.568253 99.061571 
L 311.680587 98.701471 
L 315.822353 98.701471 
L 315.934694 99.061571 
L 318.044652 99.061571 
L 318.156985 99.421671 
L 319.666191 99.421671 
L 319.778524 99.781771 
L 321.063064 99.781771 
L 321.175397 100.141871 
L 322.318291 100.141871 
L 322.430624 100.501971 
L 323.456298 100.501971 
L 323.568639 100.862071 
L 324.599192 100.862071 
L 324.711532 101.222171 
L 325.644405 101.222171 
L 325.756738 101.582271 
L 326.684731 101.582271 
L 326.797065 101.942371 
L 327.695753 101.942371 
L 327.808086 102.302471 
L 328.65793 102.302471 
L 328.770271 102.662571 
L 329.64942 102.662571 
L 329.761753 103.022671 
L 330.679973 103.022671 
L 330.792314 103.382771 
L 331.676342 103.382771 
L 331.788683 103.742871 
L 332.706903 103.742871 
L 332.819236 104.102971 
L 333.805839 104.102971 
L 333.918172 104.463071 
L 334.909662 104.463071 
L 335.021995 104.823171 
L 336.160003 104.823171 
L 336.272343 105.183271 
L 337.512918 105.183271 
L 337.625251 105.543371 
L 338.992819 105.543371 
L 339.105152 105.903471 
L 340.58994 105.903471 
L 340.702273 106.26357 
L 342.387309 106.26357 
L 342.499649 106.62367 
L 344.726827 106.62367 
L 344.83916 106.98377 
L 348.106665 106.98377 
L 348.218998 107.34387 
L 352.20936 107.34387 
L 352.321694 107.70397 
L 356.346248 107.70397 
L 356.458581 108.06407 
L 362.133979 108.06407 
L 362.246313 108.42417 
L 369.640931 108.42417 
L 369.753272 108.78427 
L 381.18221 108.78427 
L 381.294543 109.14437 
L 393.207014 109.14437 
L 393.319347 109.50447 
L 399.3171 109.50447 
L 399.3171 109.50447 
" clip-path="url(#pe1dd8e3d01)" style="fill: none; stroke: #2a78d6; stroke-width: 1.2; stroke-linecap: round"/>
   </g>
   <g id="patch_3">
    <path d="M 53.157271 160.638666 
L 53.157271 16.598677 
" style="fill: none; stroke: #c3c2b7; stroke-width: 0.75; stroke-linejoin: miter; stroke-linecap: square"/>
   </g>
   <g id="patch_4">
    <path d="M 53.157271 160.638666 
L 415.800901 160.638666 
" style="fill: none; stroke: #c3c2b7; stroke-width: 0.75; stroke-linejoin: miter; stroke-linecap: square"/>
   </g>
   <g id="text_10">
    <!-- setpoint 48 -->
    <g style="fill: #898781" transform="translate(352.500601 105.22467) scale(0.08 -0.08)">
     <defs>
      <path id="DejaVuSans-74" d="M 1172 4494 
L 1172 3500 
L 2356 3500 
L 2356 3053 
L 1172 3053 
L 1172 1153 
Q 1172 725 1289 603 
Q 1406 481 1766 481 
L 2356 481 
L 2356 0 
L 1766 0 
Q 1100 0 847 248 
Q 594 497 594 1153 
L 594 3053 
L 172 3053 
L 172 3500 
L 594 3500 
L 594 4494 
L 1172 4494 
z
" transform="scale(0.015625)"/>
      <path id="DejaVuSans-69" d="M 603 3500 
L 1178 3500 
L 1178 0 
L 603 0 
L 603 3500 
z
M 603 4863 
L 1178 4863 
L 1178 4134 
L 603 4134 
L 603 4863 
z
" transform="scale(0.015625)"/>
     </defs>
     <use xlink:href="#DejaVuSans-73"/>
     <use xlink:href="#DejaVuSans-65" transform="translate(52.099609 0)"/>
     <use xlink:href="#DejaVuSans-74" transform="translate(113.623047 0)"/>
     <use xlink:href="#DejaVuSans-70" transform="translate(152.832031 0)"/>
     <use xlink:href="#DejaVuSans-6f" transform="translate(216.308594 0)"/>
     <use xlink:href="#DejaVuSans-69" transform="translate(277.490234 0)"/>
     <use xlink:href="#DejaVuSans-6e" transform="translate(305.273438 0)"/>
     <use xlink:href="#DejaVuSans-74" transform="translate(368.652344 0)"/>
     <use xlink:href="#DejaVuSans-20" transform="translate(407.861328 0)"/>
     <use xlink:href="#DejaVuSans-34" transform="translate(439.648438 0)"/>
     <use xlink:href="#DejaVuSans-38" transform="translate(503.271484 0)"/>
    </g>
   </g>
   <g id="patch_5">
    <path d="M 83.956254 37.86525 
Q 79.692006 38.002769 75.427758 38.140288 
" style="fill: none; stroke: #52514e; stroke-width: 0.75; stroke-linecap: round"/>
   </g>
   <g id="text_11">
    <!-- cold start: Locked in 0.52 s -->
    <g style="fill: #52514e" transform="translate(87.951792 38.204676) scale(0.08 -0.08)">
     <defs>
      <path id="DejaVuSans-6c" d="M 603 4863 
L 1178 4863 
L 1178 0 
L 603 0 
L 603 4863 
z
" transform="scale(0.015625)"/>
      <path id="DejaVuSans-64" d="M 2906 2969 
L 2906 4863 
L 3481 4863 
L 3481 0 
L 2906 0 
L 2906 525 
Q 2725 213 2448 61 
Q 2172 -91 1784 -91 
Q 1150 -91 751 415 
Q 353 922 353 1747 
Q 353 2572 751 3078 
Q 1150 3584 1784 3584 
Q 2172 3584 2448 3432 
Q 2725 3281 2906 2969 
z
M 947 1747 
Q 947 1113 1208 752 
Q 1469 391 1925 391 
Q 2381 391 2643 752 
Q 2906 1113 2906 1747 
Q 2906 2381 2643 2742 
Q 2381 3103 1925 3103 
Q 1469 3103 1208 2742 
Q 947 2381 947 1747 
z
" transform="scale(0.015625)"/>
      <path id="DejaVuSans-3a" d="M 750 794 
L 1409 794 
L 1409 0 
L 750 0 
L 750 794 
z
M 750 3309 
L 1409 3309 
L 1409 2516 
L 750 2516 
L 750 3309 
z
" transform="scale(0.015625)"/>
      <path id="DejaVuSans-4c" d="M 628 4666 
L 1259 4666 
L 1259 531 
L 3531 531 
L 3531 0 
L 628 0 
L 628 4666 
z
" transform="scale(0.015625)"/>
      <path id="DejaVuSans-6b" d="M 581 4863 
L 1159 4863 
L 1159 1991 
L 2875 3500 
L 3609 3500 
L 1753 1863 
L 3688 0 
L 2938 0 
L 1159 1709 
L 1159 0 
L 581 0 
L 581 4863 
z
" transform="scale(0.015625)"/>
      <path id="DejaVuSans-32" d="M 1228 531 
L 3431 531 
L 3431 0 
L 469 0 
L 469 531 
Q 828 903 1448 1529 
Q 2069 2156 2228 2338 
Q 2531 2678 2651 2914 
Q 2772 3150 2772 3378 
Q 2772 3750 2511 3984 
Q 2250 4219 1831 4219 
Q 1534 4219 1204 4116 
Q 875 4013 500 3803 
L 500 4441 
Q 881 4594 1212 4672 
Q 1544 4750 1819 4750 
Q 2544 4750 2975 4387 
Q 3406 4025 3406 3419 
Q 3406 3131 3298 2873 
Q 3191 2616 2906 2266 
Q 2828 2175 2409 1742 
Q 1991 1309 1228 531 
z
" transform="scale(0.015625)"/>
     </defs>
     <use xlink:href="#DejaVuSans-63"/>
     <use xlink:href="#DejaVuSans-6f" transform="translate(54.980469 0)"/>
     <use xlink:href="#DejaVuSans-6c" transform="translate(116.162109 0)"/>
     <use xlink:href="#DejaVuSans-64" transform="translate(143.945312 0)"/>
     <use xlink:href="#DejaVuSans-20" transform="translate(207.421875 0)"/>
     <use xlink:href="#DejaVuSans-73" transform="translate(239.208984 0)"/>
     <use xlink:href="#DejaVuSans-74" transform="translate(291.308594 0)"/>
     <use xlink:href="#DejaVuSans-61" transform="translate(330.517578 0)"/>
     <use xlink:href="#DejaVuSans-72" transform="translate(391.796875 0)"/>
     <use xlink:href="#DejaVuSans-74" transform="translate(432.910156 0)"/>
     <use xlink:href="#DejaVuSans-3a" transform="translate(472.119141 0)"/>
     <use xlink:href="#DejaVuSans-20" transform="translate(505.810547 0)"/>
     <use xlink:href="#DejaVuSans-4c" transform="translate(537.597656 0)"/>
     <use xlink:href="#DejaVuSans-6f" transform="translate(591.560547 0)"/>
     <use xlink:href="#DejaVuSans-63" transform="translate(652.742188 0)"/>
     <use xlink:href="#DejaVuSans-6b" transform="translate(707.722656 0)"/>
     <use xlink:href="#DejaVuSans-65" transform="translate(762.007812 0)"/>
     <use xlink:href="#DejaVuSans-64" transform="translate(823.53125 0)"/>
     <use xlink:href="#DejaVuSans-20" transform="translate(887.007812 0)"/>
     <use xlink:href="#DejaVuSans-69" transform="translate(918.794922 0)"/>
     <use xlink:href="#DejaVuSans-6e" transform="translate(946.578125 0)"/>
     <use xlink:href="#DejaVuSans-20" transform="translate(1009.957031 0)"/>
     <use xlink:href="#DejaVuSans-30" transform="translate(1041.744141 0)"/>
     <use xlink:href="#DejaVuSans-2e" transform="translate(1105.367188 0)"/>
     <use xlink:href="#DejaVuSans-35" transform="translate(1137.154297 0)"/>
     <use xlink:href="#DejaVuSans-32" transform="translate(1200.777344 0)"/>
     <use xlink:href="#DejaVuSans-20" transform="translate(1264.400391 0)"/>
     <use xlink:href="#DejaVuSans-73" transform="translate(1296.1875 0)"/>
    </g>
   </g>
   <g id="patch_6">
    <path d="M 289.081356 37.948973 
Q 282.931324 38.058939 276.781292 38.168905 
" style="fill: none; stroke: #52514e; stroke-width: 0.75; stroke-linecap: round"/>
   </g>
   <g id="text_12">
    <!-- 50 ms producer stall → refill → re-Locked 0.55 s later -->
    <g style="fill: #52514e" transform="translate(293.086583 38.204676) scale(0.08 -0.08)">
     <defs>
      <path id="DejaVuSans-2192" d="M 5050 2147 
L 5050 1866 
L 3822 638 
L 3447 1013 
L 4175 1741 
L 366 1741 
L 366 2272 
L 4175 2272 
L 3447 3000 
L 3822 3375 
L 5050 2147 
z
" transform="scale(0.015625)"/>
      <path id="DejaVuSans-2d" d="M 313 2009 
L 1997 2009 
L 1997 1497 
L 313 1497 
L 313 2009 
z
" transform="scale(0.015625)"/>
     </defs>
     <use xlink:href="#DejaVuSans-35"/>
     <use xlink:href="#DejaVuSans-30" transform="translate(63.623047 0)"/>
     <use xlink:href="#DejaVuSans-20" transform="translate(127.246094 0)"/>
     <use xlink:href="#DejaVuSans-6d" transform="translate(159.033203 0)"/>
     <use xlink:href="#DejaVuSans-73" transform="translate(256.445312 0)"/>
     <use xlink:href="#DejaVuSans-20" transform="translate(308.544922 0)"/>
     <use xlink:href="#DejaVuSans-70" transform="translate(340.332031 0)"/>
     <use xlink:href="#DejaVuSans-72" transform="translate(403.808594 0)"/>
     <use xlink:href="#DejaVuSans-6f" transform="translate(442.671875 0)"/>
     <use xlink:href="#DejaVuSans-64" transform="translate(503.853516 0)"/>
     <use xlink:href="#DejaVuSans-75" transform="translate(567.330078 0)"/>
     <use xlink:href="#DejaVuSans-63" transform="translate(630.708984 0)"/>
     <use xlink:href="#DejaVuSans-65" transform="translate(685.689453 0)"/>
     <use xlink:href="#DejaVuSans-72" transform="translate(747.212891 0)"/>
     <use xlink:href="#DejaVuSans-20" transform="translate(788.326172 0)"/>
     <use xlink:href="#DejaVuSans-73" transform="translate(820.113281 0)"/>
     <use xlink:href="#DejaVuSans-74" transform="translate(872.212891 0)"/>
     <use xlink:href="#DejaVuSans-61" transform="translate(911.421875 0)"/>
     <use xlink:href="#DejaVuSans-6c" transform="translate(972.701172 0)"/>
     <use xlink:href="#DejaVuSans-6c" transform="translate(1000.484375 0)"/>
     <use xlink:href="#DejaVuSans-20" transform="translate(1028.267578 0)"/>
     <use xlink:href="#DejaVuSans-2192" transform="translate(1060.054688 0)"/>
     <use xlink:href="#DejaVuSans-20" transform="translate(1143.84375 0)"/>
     <use xlink:href="#DejaVuSans-72" transform="translate(1175.630859 0)"/>
     <use xlink:href="#DejaVuSans-65" transform="translate(1214.494141 0)"/>
     <use xlink:href="#DejaVuSans-66" transform="translate(1276.017578 0)"/>
     <use xlink:href="#DejaVuSans-69" transform="translate(1311.222656 0)"/>
     <use xlink:href="#DejaVuSans-6c" transform="translate(1339.005859 0)"/>
     <use xlink:href="#DejaVuSans-6c" transform="translate(1366.789062 0)"/>
     <use xlink:href="#DejaVuSans-20" transform="translate(1394.572266 0)"/>
     <use xlink:href="#DejaVuSans-2192" transform="translate(1426.359375 0)"/>
     <use xlink:href="#DejaVuSans-20" transform="translate(1510.148438 0)"/>
     <use xlink:href="#DejaVuSans-72" transform="translate(1541.935547 0)"/>
     <use xlink:href="#DejaVuSans-65" transform="translate(1580.798828 0)"/>
     <use xlink:href="#DejaVuSans-2d" transform="translate(1642.322266 0)"/>
     <use xlink:href="#DejaVuSans-4c" transform="translate(1678.40625 0)"/>
     <use xlink:href="#DejaVuSans-6f" transform="translate(1732.369141 0)"/>
     <use xlink:href="#DejaVuSans-63" transform="translate(1793.550781 0)"/>
     <use xlink:href="#DejaVuSans-6b" transform="translate(1848.53125 0)"/>
     <use xlink:href="#DejaVuSans-65" transform="translate(1902.816406 0)"/>
     <use xlink:href="#DejaVuSans-64" transform="translate(1964.339844 0)"/>
     <use xlink:href="#DejaVuSans-20" transform="translate(2027.816406 0)"/>
     <use xlink:href="#DejaVuSans-30" transform="translate(2059.603516 0)"/>
     <use xlink:href="#DejaVuSans-2e" transform="translate(2123.226562 0)"/>
     <use xlink:href="#DejaVuSans-35" transform="translate(2155.013672 0)"/>
     <use xlink:href="#DejaVuSans-35" transform="translate(2218.636719 0)"/>
     <use xlink:href="#DejaVuSans-20" transform="translate(2282.259766 0)"/>
     <use xlink:href="#DejaVuSans-73" transform="translate(2314.046875 0)"/>
     <use xlink:href="#DejaVuSans-20" transform="translate(2366.146484 0)"/>
     <use xlink:href="#DejaVuSans-6c" transform="translate(2397.933594 0)"/>
     <use xlink:href="#DejaVuSans-61" transform="translate(2425.716797 0)"/>
     <use xlink:href="#DejaVuSans-74" transform="translate(2486.996094 0)"/>
     <use xlink:href="#DejaVuSans-65" transform="translate(2526.205078 0)"/>
     <use xlink:href="#DejaVuSans-72" transform="translate(2587.728516 0)"/>
    </g>
   </g>
   <g id="text_13">
    <!-- Acquire, lock, dropout, re-lock  (measured, producer +200 ppm) -->
    <g style="fill: #0b0b0b" transform="translate(73.795492 10.598678) scale(0.1 -0.1)">
     <defs>
      <path id="DejaVuSans-41" d="M 2188 4044 
L 1331 1722 
L 3047 1722 
L 2188 4044 
z
M 1831 4666 
L 2547 4666 
L 4325 0 
L 3669 0 
L 3244 1197 
L 1141 1197 
L 716 0 
L 50 0 
L 1831 4666 
z
" transform="scale(0.015625)"/>
      <path id="DejaVuSans-71" d="M 947 1747 
Q 947 1113 1208 752 
Q 1469 391 1925 391 
Q 2381 391 2643 752 
Q 2906 1113 2906 1747 
Q 2906 2381 2643 2742 
Q 2381 3103 1925 3103 
Q 1469 3103 1208 2742 
Q 947 2381 947 1747 
z
M 2906 525 
Q 2725 213 2448 61 
Q 2172 -91 1784 -91 
Q 1150 -91 751 415 
Q 353 922 353 1747 
Q 353 2572 751 3078 
Q 1150 3584 1784 3584 
Q 2172 3584 2448 3432 
Q 2725 3281 2906 2969 
L 2906 3500 
L 3481 3500 
L 3481 -1331 
L 2906 -1331 
L 2906 525 
z
" transform="scale(0.015625)"/>
      <path id="DejaVuSans-2c" d="M 750 794 
L 1409 794 
L 1409 256 
L 897 -744 
L 494 -744 
L 750 256 
L 750 794 
z
" transform="scale(0.015625)"/>
      <path id="DejaVuSans-2b" d="M 2944 4013 
L 2944 2272 
L 4684 2272 
L 4684 1741 
L 2944 1741 
L 2944 0 
L 2419 0 
L 2419 1741 
L 678 1741 
L 678 2272 
L 2419 2272 
L 2419 4013 
L 2944 4013 
z
" transform="scale(0.015625)"/>
     </defs>
     <use xlink:href="#DejaVuSans-41"/>
     <use xlink:href="#DejaVuSans-63" transform="translate(66.658203 0)"/>
     <use xlink:href="#DejaVuSans-71" transform="translate(121.638672 0)"/>
     <use xlink:href="#DejaVuSans-75" transform="translate(185.115234 0)"/>
     <use xlink:href="#DejaVuSans-69" transform="translate(248.494141 0)"/>
     <use xlink:href="#DejaVuSans-72" transform="translate(276.277344 0)"/>
     <use xlink:href="#DejaVuSans-65" transform="translate(315.140625 0)"/>
     <use xlink:href="#DejaVuSans-2c" transform="translate(376.664062 0)"/>
     <use xlink:href="#DejaVuSans-20" transform="translate(408.451172 0)"/>
     <use xlink:href="#DejaVuSans-6c" transform="translate(440.238281 0)"/>
     <use xlink:href="#DejaVuSans-6f" transform="translate(468.021484 0)"/>
     <use xlink:href="#DejaVuSans-63" transform="translate(529.203125 0)"/>
     <use xlink:href="#DejaVuSans-6b" transform="translate(584.183594 0)"/>
     <use xlink:href="#DejaVuSans-2c" transform="translate(642.09375 0)"/>
     <use xlink:href="#DejaVuSans-20" transform="translate(673.880859 0)"/>
     <use xlink:href="#DejaVuSans-64" transform="translate(705.667969 0)"/>
     <use xlink:href="#DejaVuSans-72" transform="translate(769.144531 0)"/>
     <use xlink:href="#DejaVuSans-6f" transform="translate(808.007812 0)"/>
     <use xlink:href="#DejaVuSans-70" transform="translate(869.189453 0)"/>
     <use xlink:href="#DejaVuSans-6f" transform="translate(932.666016 0)"/>
     <use xlink:href="#DejaVuSans-75" transform="translate(993.847656 0)"/>
     <use xlink:href="#DejaVuSans-74" transform="translate(1057.226562 0)"/>
     <use xlink:href="#DejaVuSans-2c" transform="translate(1096.435547 0)"/>
     <use xlink:href="#DejaVuSans-20" transform="translate(1128.222656 0)"/>
     <use xlink:href="#DejaVuSans-72" transform="translate(1160.009766 0)"/>
     <use xlink:href="#DejaVuSans-65" transform="translate(1198.873047 0)"/>
     <use xlink:href="#DejaVuSans-2d" transform="translate(1260.396484 0)"/>
     <use xlink:href="#DejaVuSans-6c" transform="translate(1296.480469 0)"/>
     <use xlink:href="#DejaVuSans-6f" transform="translate(1324.263672 0)"/>
     <use xlink:href="#DejaVuSans-63" transform="translate(1385.445312 0)"/>
     <use xlink:href="#DejaVuSans-6b" transform="translate(1440.425781 0)"/>
     <use xlink:href="#DejaVuSans-20" transform="translate(1498.335938 0)"/>
     <use xlink:href="#DejaVuSans-20" transform="translate(1530.123047 0)"/>
     <use xlink:href="#DejaVuSans-28" transform="translate(1561.910156 0)"/>
     <use xlink:href="#DejaVuSans-6d" transform="translate(1600.923828 0)"/>
     <use xlink:href="#DejaVuSans-65" transform="translate(1698.335938 0)"/>
     <use xlink:href="#DejaVuSans-61" transform="translate(1759.859375 0)"/>
     <use xlink:href="#DejaVuSans-73" transform="translate(1821.138672 0)"/>
     <use xlink:href="#DejaVuSans-75" transform="translate(1873.238281 0)"/>
     <use xlink:href="#DejaVuSans-72" transform="translate(1936.617188 0)"/>
     <use xlink:href="#DejaVuSans-65" transform="translate(1975.480469 0)"/>
     <use xlink:href="#DejaVuSans-64" transform="translate(2037.003906 0)"/>
     <use xlink:href="#DejaVuSans-2c" transform="translate(2100.480469 0)"/>
     <use xlink:href="#DejaVuSans-20" transform="translate(2132.267578 0)"/>
     <use xlink:href="#DejaVuSans-70" transform="translate(2164.054688 0)"/>
     <use xlink:href="#DejaVuSans-72" transform="translate(2227.53125 0)"/>
     <use xlink:href="#DejaVuSans-6f" transform="translate(2266.394531 0)"/>
     <use xlink:href="#DejaVuSans-64" transform="translate(2327.576172 0)"/>
     <use xlink:href="#DejaVuSans-75" transform="translate(2391.052734 0)"/>
     <use xlink:href="#DejaVuSans-63" transform="translate(2454.431641 0)"/>
     <use xlink:href="#DejaVuSans-65" transform="translate(2509.412109 0)"/>
     <use xlink:href="#DejaVuSans-72" transform="translate(2570.935547 0)"/>
     <use xlink:href="#DejaVuSans-20" transform="translate(2612.048828 0)"/>
     <use xlink:href="#DejaVuSans-2b" transform="translate(2643.835938 0)"/>
     <use xlink:href="#DejaVuSans-32" transform="translate(2727.625 0)"/>
     <use xlink:href="#DejaVuSans-30" transform="translate(2791.248047 0)"/>
     <use xlink:href="#DejaVuSans-30" transform="translate(2854.871094 0)"/>
     <use xlink:href="#DejaVuSans-20" transform="translate(2918.494141 0)"/>
     <use xlink:href="#DejaVuSans-70" transform="translate(2950.28125 0)"/>
     <use xlink:href="#DejaVuSans-70" transform="translate(3013.757812 0)"/>
     <use xlink:href="#DejaVuSans-6d" transform="translate(3077.234375 0)"/>
     <use xlink:href="#DejaVuSans-29" transform="translate(3174.646484 0)"/>
    </g>
   </g>
  </g>
  <g id="axes_2">
   <g id="patch_7">
    <path d="M 53.157271 314.179135 
L 415.800901 314.179135 
L 415.800901 170.139146 
L 53.157271 170.139146 
z
" style="fill: #fcfcfb"/>
   </g>
   <g id="line2d_34">
    <path d="M 53.157271 187.657523 
L 415.800901 187.657523 
" clip-path="url(#p4815dd1d80)" style="fill: none; stroke: #c3c2b7; stroke-width: 0.75; stroke-linecap: round"/>
   </g>
   <g id="line2d_35">
    <path d="M 53.157271 304.446703 
L 415.800901 304.446703 
" clip-path="url(#p4815dd1d80)" style="fill: none; stroke: #c3c2b7; stroke-width: 0.75; stroke-linecap: round"/>
   </g>
   <g id="line2d_36">
    <path d="M 53.157271 238.266168 
L 415.800901 238.266168 
" clip-path="url(#p4815dd1d80)" style="fill: none; stroke: #c3c2b7; stroke-width: 0.75; stroke-linecap: round"/>
   </g>
   <g id="line2d_37">
    <path d="M 69.655725 314.179135 
L 69.655725 170.139146 
" clip-path="url(#p4815dd1d80)" style="fill: none; stroke: #e1e0d9; stroke-width: 0.75; stroke-linecap: round"/>
   </g>
   <g id="line2d_38">
    <path d="M 73.43118 314.179135 
L 73.43118 170.139146 
" clip-path="url(#p4815dd1d80)" style="fill: none; stroke: #e1e0d9; stroke-width: 0.75; stroke-linecap: round"/>
   </g>
   <g id="line2d_39">
    <path d="M 274.780743 314.179135 
L 274.780743 170.139146 
" clip-path="url(#p4815dd1d80)" style="fill: none; stroke: #e1e0d9; stroke-width: 0.75; stroke-linecap: round"/>
   </g>
   <g id="line2d_40">
    <path d="M 275.156828 314.179135 
L 275.156828 170.139146 
" clip-path="url(#p4815dd1d80)" style="fill: none; stroke: #e1e0d9; stroke-width: 0.75; stroke-linecap: round"/>
   </g>
   <g id="line2d_41">
    <path d="M 278.819949 314.179135 
L 278.819949 170.139146 
" clip-path="url(#p4815dd1d80)" style="fill: none; stroke: #e1e0d9; stroke-width: 0.75; stroke-linecap: round"/>
   </g>
   <g id="matplotlib.axis_3">
    <g id="xtick_6">
     <g id="line2d_42">
      <path d="M 69.636186 314.179135 
L 69.636186 170.139146 
" clip-path="url(#p4815dd1d80)" style="fill: none; stroke: #e1e0d9; stroke-width: 0.75; stroke-linecap: round"/>
     </g>
     <g id="line2d_43">
      <g>
       <use xlink:href="#m153f52cdb3" x="69.636186" y="314.179135" style="fill: #898781; stroke: #898781; stroke-width: 0.8"/>
      </g>
     </g>
     <g id="text_14">
      <!-- 0 -->
      <g style="fill: #898781" transform="translate(66.773061 328.017729) scale(0.09 -0.09)">
       <use xlink:href="#DejaVuSans-30"/>
      </g>
     </g>
    </g>
    <g id="xtick_7">
     <g id="line2d_44">
      <path d="M 142.898611 314.179135 
L 142.898611 170.139146 
" clip-path="url(#p4815dd1d80)" style="fill: none; stroke: #e1e0d9; stroke-width: 0.75; stroke-linecap: round"/>
     </g>
     <g id="line2d_45">
      <g>
       <use xlink:href="#m153f52cdb3" x="142.898611" y="314.179135" style="fill: #898781; stroke: #898781; stroke-width: 0.8"/>
      </g>
     </g>
     <g id="text_15">
      <!-- 10 -->
      <g style="fill: #898781" transform="translate(137.172361 328.017729) scale(0.09 -0.09)">
       <defs>
        <path id="DejaVuSans-31" d="M 794 531 
L 1825 531 
L 1825 4091 
L 703 3866 
L 703 4441 
L 1819 4666 
L 2450 4666 
L 2450 531 
L 3481 531 
L 3481 0 
L 794 0 
L 794 531 
z
" transform="scale(0.015625)"/>
       </defs>
       <use xlink:href="#DejaVuSans-31"/>
       <use xlink:href="#DejaVuSans-30" transform="translate(63.623047 0)"/>
      </g>
     </g>
    </g>
    <g id="xtick_8">
     <g id="line2d_46">
      <path d="M 216.161037 314.179135 
L 216.161037 170.139146 
" clip-path="url(#p4815dd1d80)" style="fill: none; stroke: #e1e0d9; stroke-width: 0.75; stroke-linecap: round"/>
     </g>
     <g id="line2d_47">
      <g>
       <use xlink:href="#m153f52cdb3" x="216.161037" y="314.179135" style="fill: #898781; stroke: #898781; stroke-width: 0.8"/>
      </g>
     </g>
     <g id="text_16">
      <!-- 20 -->
      <g style="fill: #898781" transform="translate(210.434787 328.017729) scale(0.09 -0.09)">
       <use xlink:href="#DejaVuSans-32"/>
       <use xlink:href="#DejaVuSans-30" transform="translate(63.623047 0)"/>
      </g>
     </g>
    </g>
    <g id="xtick_9">
     <g id="line2d_48">
      <path d="M 289.423462 314.179135 
L 289.423462 170.139146 
" clip-path="url(#p4815dd1d80)" style="fill: none; stroke: #e1e0d9; stroke-width: 0.75; stroke-linecap: round"/>
     </g>
     <g id="line2d_49">
      <g>
       <use xlink:href="#m153f52cdb3" x="289.423462" y="314.179135" style="fill: #898781; stroke: #898781; stroke-width: 0.8"/>
      </g>
     </g>
     <g id="text_17">
      <!-- 30 -->
      <g style="fill: #898781" transform="translate(283.697212 328.017729) scale(0.09 -0.09)">
       <defs>
        <path id="DejaVuSans-33" d="M 2597 2516 
Q 3050 2419 3304 2112 
Q 3559 1806 3559 1356 
Q 3559 666 3084 287 
Q 2609 -91 1734 -91 
Q 1441 -91 1130 -33 
Q 819 25 488 141 
L 488 750 
Q 750 597 1062 519 
Q 1375 441 1716 441 
Q 2309 441 2620 675 
Q 2931 909 2931 1356 
Q 2931 1769 2642 2001 
Q 2353 2234 1838 2234 
L 1294 2234 
L 1294 2753 
L 1863 2753 
Q 2328 2753 2575 2939 
Q 2822 3125 2822 3475 
Q 2822 3834 2567 4026 
Q 2313 4219 1838 4219 
Q 1578 4219 1281 4162 
Q 984 4106 628 3988 
L 628 4550 
Q 988 4650 1302 4700 
Q 1616 4750 1894 4750 
Q 2613 4750 3031 4423 
Q 3450 4097 3450 3541 
Q 3450 3153 3228 2886 
Q 3006 2619 2597 2516 
z
" transform="scale(0.015625)"/>
       </defs>
       <use xlink:href="#DejaVuSans-33"/>
       <use xlink:href="#DejaVuSans-30" transform="translate(63.623047 0)"/>
      </g>
     </g>
    </g>
    <g id="xtick_10">
     <g id="line2d_50">
      <path d="M 362.685887 314.179135 
L 362.685887 170.139146 
" clip-path="url(#p4815dd1d80)" style="fill: none; stroke: #e1e0d9; stroke-width: 0.75; stroke-linecap: round"/>
     </g>
     <g id="line2d_51">
      <g>
       <use xlink:href="#m153f52cdb3" x="362.685887" y="314.179135" style="fill: #898781; stroke: #898781; stroke-width: 0.8"/>
      </g>
     </g>
     <g id="text_18">
      <!-- 40 -->
      <g style="fill: #898781" transform="translate(356.959637 328.017729) scale(0.09 -0.09)">
       <use xlink:href="#DejaVuSans-34"/>
       <use xlink:href="#DejaVuSans-30" transform="translate(63.623047 0)"/>
      </g>
     </g>
    </g>
    <g id="text_19">
     <!-- time (s) -->
     <g style="fill: #52514e" transform="translate(217.026821 340.728041) scale(0.09 -0.09)">
      <use xlink:href="#DejaVuSans-74"/>
      <use xlink:href="#DejaVuSans-69" transform="translate(39.208984 0)"/>
      <use xlink:href="#DejaVuSans-6d" transform="translate(66.992188 0)"/>
      <use xlink:href="#DejaVuSans-65" transform="translate(164.404297 0)"/>
      <use xlink:href="#DejaVuSans-20" transform="translate(225.927734 0)"/>
      <use xlink:href="#DejaVuSans-28" transform="translate(257.714844 0)"/>
      <use xlink:href="#DejaVuSans-73" transform="translate(296.728516 0)"/>
      <use xlink:href="#DejaVuSans-29" transform="translate(348.828125 0)"/>
     </g>
    </g>
   </g>
   <g id="matplotlib.axis_4">
    <g id="ytick_9">
     <g id="line2d_52">
      <path d="M 53.157271 304.446703 
L 415.800901 304.446703 
" clip-path="url(#p4815dd1d80)" style="fill: none; stroke: #e1e0d9; stroke-width: 0.75; stroke-linecap: round"/>
     </g>
     <g id="line2d_53">
      <g>
       <use xlink:href="#m3431a29848" x="53.157271" y="304.446703" style="fill: #898781; stroke: #898781; stroke-width: 0.8"/>
      </g>
     </g>
     <g id="text_20">
      <!-- −1500 -->
      <g style="fill: #898781" transform="translate(15.710553 307.866) scale(0.09 -0.09)">
       <defs>
        <path id="DejaVuSans-2212" d="M 678 2272 
L 4684 2272 
L 4684 1741 
L 678 1741 
L 678 2272 
z
" transform="scale(0.015625)"/>
       </defs>
       <use xlink:href="#DejaVuSans-2212"/>
       <use xlink:href="#DejaVuSans-31" transform="translate(83.789062 0)"/>
       <use xlink:href="#DejaVuSans-35" transform="translate(147.412109 0)"/>
       <use xlink:href="#DejaVuSans-30" transform="translate(211.035156 0)"/>
       <use xlink:href="#DejaVuSans-30" transform="translate(274.658203 0)"/>
      </g>
     </g>
    </g>
    <g id="ytick_10">
     <g id="line2d_54">
      <path d="M 53.157271 284.98184 
L 415.800901 284.98184 
" clip-path="url(#p4815dd1d80)" style="fill: none; stroke: #e1e0d9; stroke-width: 0.75; stroke-linecap: round"/>
     </g>
     <g id="line2d_55">
      <g>
       <use xlink:href="#m3431a29848" x="53.157271" y="284.98184" style="fill: #898781; stroke: #898781; stroke-width: 0.8"/>
      </g>
     </g>
     <g id="text_21">
      <!-- −1000 -->
      <g style="fill: #898781" transform="translate(15.710553 288.401137) scale(0.09 -0.09)">
       <use xlink:href="#DejaVuSans-2212"/>
       <use xlink:href="#DejaVuSans-31" transform="translate(83.789062 0)"/>
       <use xlink:href="#DejaVuSans-30" transform="translate(147.412109 0)"/>
       <use xlink:href="#DejaVuSans-30" transform="translate(211.035156 0)"/>
       <use xlink:href="#DejaVuSans-30" transform="translate(274.658203 0)"/>
      </g>
     </g>
    </g>
    <g id="ytick_11">
     <g id="line2d_56">
      <path d="M 53.157271 265.516977 
L 415.800901 265.516977 
" clip-path="url(#p4815dd1d80)" style="fill: none; stroke: #e1e0d9; stroke-width: 0.75; stroke-linecap: round"/>
     </g>
     <g id="line2d_57">
      <g>
       <use xlink:href="#m3431a29848" x="53.157271" y="265.516977" style="fill: #898781; stroke: #898781; stroke-width: 0.8"/>
      </g>
     </g>
     <g id="text_22">
      <!-- −500 -->
      <g style="fill: #898781" transform="translate(21.436803 268.936274) scale(0.09 -0.09)">
       <use xlink:href="#DejaVuSans-2212"/>
       <use xlink:href="#DejaVuSans-35" transform="translate(83.789062 0)"/>
       <use xlink:href="#DejaVuSans-30" transform="translate(147.412109 0)"/>
       <use xlink:href="#DejaVuSans-30" transform="translate(211.035156 0)"/>
      </g>
     </g>
    </g>
    <g id="ytick_12">
     <g id="line2d_58">
      <path d="M 53.157271 246.052113 
L 415.800901 246.052113 
" clip-path="url(#p4815dd1d80)" style="fill: none; stroke: #e1e0d9; stroke-width: 0.75; stroke-linecap: round"/>
     </g>
     <g id="line2d_59">
      <g>
       <use xlink:href="#m3431a29848" x="53.157271" y="246.052113" style="fill: #898781; stroke: #898781; stroke-width: 0.8"/>
      </g>
     </g>
     <g id="text_23">
      <!-- 0 -->
      <g style="fill: #898781" transform="translate(40.431021 249.47141) scale(0.09 -0.09)">
       <use xlink:href="#DejaVuSans-30"/>
      </g>
     </g>
    </g>
    <g id="ytick_13">
     <g id="line2d_60">
      <path d="M 53.157271 226.58725 
L 415.800901 226.58725 
" clip-path="url(#p4815dd1d80)" style="fill: none; stroke: #e1e0d9; stroke-width: 0.75; stroke-linecap: round"/>
     </g>
     <g id="line2d_61">
      <g>
       <use xlink:href="#m3431a29848" x="53.157271" y="226.58725" style="fill: #898781; stroke: #898781; stroke-width: 0.8"/>
      </g>
     </g>
     <g id="text_24">
      <!-- 500 -->
      <g style="fill: #898781" transform="translate(28.978521 230.006547) scale(0.09 -0.09)">
       <use xlink:href="#DejaVuSans-35"/>
       <use xlink:href="#DejaVuSans-30" transform="translate(63.623047 0)"/>
       <use xlink:href="#DejaVuSans-30" transform="translate(127.246094 0)"/>
      </g>
     </g>
    </g>
    <g id="ytick_14">
     <g id="line2d_62">
      <path d="M 53.157271 207.122387 
L 415.800901 207.122387 
" clip-path="url(#p4815dd1d80)" style="fill: none; stroke: #e1e0d9; stroke-width: 0.75; stroke-linecap: round"/>
     </g>
     <g id="line2d_63">
      <g>
       <use xlink:href="#m3431a29848" x="53.157271" y="207.122387" style="fill: #898781; stroke: #898781; stroke-width: 0.8"/>
      </g>
     </g>
     <g id="text_25">
      <!-- 1000 -->
      <g style="fill: #898781" transform="translate(23.252271 210.541683) scale(0.09 -0.09)">
       <use xlink:href="#DejaVuSans-31"/>
       <use xlink:href="#DejaVuSans-30" transform="translate(63.623047 0)"/>
       <use xlink:href="#DejaVuSans-30" transform="translate(127.246094 0)"/>
       <use xlink:href="#DejaVuSans-30" transform="translate(190.869141 0)"/>
      </g>
     </g>
    </g>
    <g id="ytick_15">
     <g id="line2d_64">
      <path d="M 53.157271 187.657523 
L 415.800901 187.657523 
" clip-path="url(#p4815dd1d80)" style="fill: none; stroke: #e1e0d9; stroke-width: 0.75; stroke-linecap: round"/>
     </g>
     <g id="line2d_65">
      <g>
       <use xlink:href="#m3431a29848" x="53.157271" y="187.657523" style="fill: #898781; stroke: #898781; stroke-width: 0.8"/>
      </g>
     </g>
     <g id="text_26">
      <!-- 1500 -->
      <g style="fill: #898781" transform="translate(23.252271 191.07682) scale(0.09 -0.09)">
       <use xlink:href="#DejaVuSans-31"/>
       <use xlink:href="#DejaVuSans-35" transform="translate(63.623047 0)"/>
       <use xlink:href="#DejaVuSans-30" transform="translate(127.246094 0)"/>
       <use xlink:href="#DejaVuSans-30" transform="translate(190.869141 0)"/>
      </g>
     </g>
    </g>
    <g id="text_27">
     <!-- estimated ppm -->
     <g style="fill: #52514e" transform="translate(9.838834 276.344375) rotate(-90) scale(0.09 -0.09)">
      <use xlink:href="#DejaVuSans-65"/>
      <use xlink:href="#DejaVuSans-73" transform="translate(61.523438 0)"/>
      <use xlink:href="#DejaVuSans-74" transform="translate(113.623047 0)"/>
      <use xlink:href="#DejaVuSans-69" transform="translate(152.832031 0)"/>
      <use xlink:href="#DejaVuSans-6d" transform="translate(180.615234 0)"/>
      <use xlink:href="#DejaVuSans-61" transform="translate(278.027344 0)"/>
      <use xlink:href="#DejaVuSans-74" transform="translate(339.306641 0)"/>
      <use xlink:href="#DejaVuSans-65" transform="translate(378.515625 0)"/>
      <use xlink:href="#DejaVuSans-64" transform="translate(440.039062 0)"/>
      <use xlink:href="#DejaVuSans-20" transform="translate(503.515625 0)"/>
      <use xlink:href="#DejaVuSans-70" transform="translate(535.302734 0)"/>
      <use xlink:href="#DejaVuSans-70" transform="translate(598.779297 0)"/>
      <use xlink:href="#DejaVuSans-6d" transform="translate(662.255859 0)"/>
     </g>
    </g>
   </g>
   <g id="line2d_66">
    <path d="M 69.641073 246.052113 
L 69.650838 246.052113 
L 69.763172 187.657523 
L 69.865739 187.657523 
L 69.880392 218.298333 
L 69.953654 298.588558 
L 69.973193 194.171634 
L 70.002498 281.574321 
L 70.080647 205.858728 
L 70.105066 285.328704 
L 70.119718 212.330405 
L 70.236938 274.70011 
L 70.315087 207.702829 
L 70.334619 282.247027 
L 70.354158 238.242032 
L 70.363924 273.71402 
L 70.407881 221.116845 
L 70.461612 224.883685 
L 70.573945 187.657523 
L 70.578832 201.356505 
L 70.613016 292.710948 
L 70.691165 228.53724 
L 70.696052 209.410676 
L 70.749775 281.804396 
L 70.793732 245.841893 
L 70.886534 276.297786 
L 70.808385 219.210845 
L 70.8963 229.400701 
L 70.940257 202.798073 
L 70.920718 285.604716 
L 70.998867 228.248381 
L 71.081895 278.176534 
L 71.096548 214.696554 
L 71.1112 275.699047 
L 71.16981 206.786812 
L 71.233307 217.696868 
L 71.326108 187.657523 
L 71.330988 200.573628 
L 71.370066 299.175229 
L 71.433555 197.396962 
L 71.457981 284.093853 
L 71.497052 220.223018 
L 71.575201 231.20743 
L 71.628924 277.405726 
L 71.643576 212.816248 
L 71.682647 243.304453 
L 71.721725 278.988998 
L 71.794988 211.734391 
L 71.81452 287.252222 
L 71.87313 203.935599 
L 71.902435 235.703035 
L 71.921974 277.988115 
L 72.024541 187.657523 
L 72.058733 187.657523 
L 72.107569 300.128229 
L 72.180832 225.070159 
L 72.185718 206.582042 
L 72.205257 278.298774 
L 72.27852 268.142787 
L 72.283399 281.979579 
L 72.298052 213.941707 
L 72.366435 230.530831 
L 72.371314 212.691673 
L 72.449463 278.196778 
L 72.469002 238.013514 
L 72.51296 286.686962 
L 72.532491 204.590397 
L 72.576449 261.44337 
L 72.683903 210.6938 
L 72.61064 277.580131 
L 72.68879 235.513836 
L 72.693669 255.866687 
L 72.801123 241.759722 
L 72.893924 227.581515 
L 73.011144 187.657523 
L 73.02091 221.654464 
L 73.055102 299.431387 
L 73.074633 202.488192 
L 73.13813 267.613732 
L 73.177201 209.135443 
L 73.19674 281.797778 
L 73.25535 220.729494 
L 73.343265 278.287873 
L 73.284655 211.996388 
L 73.37257 274.001711 
L 73.411641 224.678915 
L 73.48979 239.10705 
L 73.563052 238.960285 
L 73.719343 237.974974 
L 73.987974 234.635192 
L 74.090541 232.815617 
L 74.11496 234.373585 
L 74.217527 239.070067 
L 74.29079 238.336241 
L 74.632683 233.501169 
L 74.691293 232.369872 
L 74.715712 233.906817 
L 74.959925 241.800987 
L 74.979456 242.084396 
L 75.013648 241.108038 
L 75.404379 232.583206 
L 75.414152 233.203357 
L 75.658357 241.474367 
L 75.741386 242.526637 
L 75.770691 241.579477 
L 76.146776 232.712842 
L 76.151655 233.02467 
L 76.395868 241.461131 
L 76.508201 242.814328 
L 76.53262 241.989796 
L 76.918471 232.703499 
L 77.162677 241.347845 
L 77.270131 242.68586 
L 77.294549 241.870282 
L 77.675514 232.725689 
L 77.6804 233.036738 
L 77.924606 241.458016 
L 78.03206 242.764887 
L 78.056478 241.945027 
L 78.437443 232.794595 
L 78.44233 233.106422 
L 78.686535 241.554562 
L 78.793989 242.878173 
L 78.818408 242.062984 
L 79.209145 232.788755 
L 79.453351 241.493442 
L 79.560805 242.860654 
L 79.585223 242.052473 
L 79.98084 232.732307 
L 80.225046 241.428819 
L 80.322734 242.694035 
L 80.352039 241.742982 
L 80.737883 232.698438 
L 80.74277 233.010266 
L 80.986975 241.458795 
L 81.084663 242.681967 
L 81.113968 241.720792 
L 81.494933 232.700774 
L 81.499812 233.012212 
L 81.744025 241.443223 
L 81.851472 242.750094 
L 81.875898 241.930234 
L 82.256862 232.772016 
L 82.261742 233.083453 
L 82.505954 241.521472 
L 82.613401 242.839243 
L 82.637827 242.022497 
L 83.028557 232.7144 
L 83.272763 241.383271 
L 83.37533 242.685471 
L 83.404635 241.723906 
L 83.7856 232.701942 
L 83.790487 233.013769 
L 84.034692 241.444391 
L 84.13726 242.70766 
L 84.161685 241.89364 
L 84.54265 232.772794 
L 84.547529 233.084232 
L 84.791742 241.528868 
L 84.904075 242.892187 
L 84.928494 242.070381 
L 85.319232 232.73659 
L 85.563437 241.410522 
L 85.666005 242.716614 
L 85.69531 241.756607 
L 86.076274 232.759947 
L 86.081161 233.071775 
L 86.325366 241.529647 
L 86.427934 242.80771 
L 86.452352 241.997582 
L 86.84309 232.74165 
L 87.087296 241.429987 
L 87.189863 242.741529 
L 87.219168 241.78269 
L 87.605019 232.700774 
L 87.609899 233.012601 
L 87.854112 241.456459 
L 87.951792 242.678852 
L 87.981097 241.717288 
L 88.195998 238.388018 
L 99.395383 238.277068 
L 101.007157 238.259939 
L 275.156828 238.266947 
L 275.195899 234.797919 
L 275.283814 203.965964 
L 275.35219 187.657523 
L 275.361963 218.603931 
L 275.401034 302.453501 
L 275.425452 188.898992 
L 275.488949 281.522934 
L 275.557324 209.020989 
L 275.601282 255.401866 
L 275.64036 276.907036 
L 275.655013 212.195709 
L 275.69897 225.384711 
L 275.718502 229.552138 
L 275.777112 214.860838 
L 275.865027 187.657523 
L 275.8748 218.437701 
L 275.913871 302.131552 
L 275.938289 188.406142 
L 275.982246 241.398843 
L 275.99202 203.559538 
L 276.045743 281.09821 
L 276.0897 244.983492 
L 276.099466 277.709378 
L 276.114119 211.753078 
L 276.202034 267.334606 
L 276.289949 211.213512 
L 276.245991 278.084271 
L 276.304601 272.011623 
L 276.309488 286.339709 
L 276.329027 204.137644 
L 276.407169 275.605226 
L 276.456013 210.928546 
L 276.529275 212.965739 
L 276.612303 187.657523 
L 276.622077 219.804913 
L 276.661147 304.125533 
L 276.685566 191.187671 
L 276.729523 217.698815 
L 276.778367 199.904037 
L 276.802786 287.88444 
L 276.832091 235.509165 
L 276.895587 277.225871 
L 276.91024 212.55503 
L 276.944431 266.734698 
L 277.032346 211.504317 
L 276.988389 278.191328 
L 277.046999 272.37328 
L 277.051878 286.728617 
L 277.071417 204.656578 
L 277.144679 253.197275 
L 277.18375 213.432895 
L 277.169098 275.933014 
L 277.257013 235.668387 
L 277.320509 221.157332 
L 277.41819 187.657523 
L 277.423077 202.250331 
L 277.462147 301.780796 
L 277.486573 190.154476 
L 277.540296 257.085187 
L 277.642864 275.223715 
L 277.657516 210.043284 
L 277.677055 283.523532 
L 277.76985 238.34792 
L 277.804041 213.351532 
L 277.789389 277.269472 
L 277.877304 223.020508 
L 277.921261 278.481744 
L 277.965219 213.745112 
L 277.989637 233.043356 
L 278.014063 237.14577 
L 278.077552 227.956798 
L 278.194772 187.657523 
L 278.199658 203.466107 
L 278.23385 295.598755 
L 278.253382 200.009926 
L 278.316878 253.159513 
L 278.346183 282.245469 
L 278.434098 211.029374 
L 278.482942 277.390543 
L 278.546431 243.380366 
L 278.609928 213.070849 
L 278.595275 276.925722 
L 278.653885 224.680472 
L 278.717382 279.063354 
L 278.732034 215.803326 
L 278.761339 226.704039 
L 278.819949 237.302268 
L 278.815063 220.863412 
L 278.912743 236.749855 
L 279.132531 234.083558 
L 279.230219 232.356635 
L 279.249751 233.617959 
L 279.493964 241.851596 
L 279.503729 242.00459 
L 279.5428 240.950762 
L 279.938417 232.636151 
L 279.948191 233.259416 
L 280.192396 241.593102 
L 280.270545 242.61384 
L 280.29985 241.681473 
L 280.685694 232.747101 
L 280.690581 233.060096 
L 280.934786 241.540547 
L 281.032475 242.776955 
L 281.061779 241.820063 
L 281.447623 232.765787 
L 281.45251 233.078003 
L 281.696716 241.549112 
L 281.794404 242.78552 
L 281.823709 241.828627 
L 282.209553 232.780969 
L 282.214439 233.093575 
L 282.458645 241.573248 
L 282.556333 242.813939 
L 282.585638 241.858603 
L 282.976368 232.728414 
L 282.981255 233.04102 
L 283.225461 241.509793 
L 283.323141 242.741529 
L 283.352446 241.783469 
L 283.738298 232.702331 
L 283.743184 233.014548 
L 283.98739 241.458016 
L 284.085071 242.68002 
L 284.114376 241.718456 
L 284.49534 232.693767 
L 284.500227 233.005205 
L 284.744433 241.431933 
L 284.847 242.692867 
L 284.871426 241.878457 
L 285.25239 232.744376 
L 285.257269 233.055813 
L 285.501482 241.486824 
L 285.608929 242.799145 
L 285.633355 241.980842 
L 286.019199 232.749826 
L 286.263412 241.422201 
L 286.375745 242.818999 
L 286.400163 242.001865 
L 286.786015 232.788366 
L 287.03022 241.478649 
L 287.137674 242.841579 
L 287.162093 242.03223 
L 287.55771 232.69221 
L 287.801923 241.369646 
L 287.899603 242.625519 
L 287.928908 241.670962 
L 288.309873 232.677806 
L 288.31476 232.989244 
L 288.558965 241.414804 
L 288.661533 242.673792 
L 288.685951 241.858603 
L 289.066916 232.710507 
L 289.071802 233.021555 
L 289.316008 241.436605 
L 289.428348 242.782016 
L 289.452767 241.955927 
L 289.833731 232.749436 
L 289.838618 233.060485 
L 290.082824 241.480985 
L 290.190278 242.790191 
L 290.214696 241.97111 
L 290.600547 232.728804 
L 290.844753 241.389889 
L 290.952207 242.736468 
L 290.976625 241.923226 
L 291.362476 232.711675 
L 291.367356 233.023112 
L 291.611569 241.451787 
L 291.714136 242.715446 
L 291.738554 241.901426 
L 292.119519 232.784473 
L 292.124406 233.0963 
L 292.368611 241.545997 
L 292.480945 242.912431 
L 292.50537 242.091014 
L 292.896101 232.774741 
L 293.140306 241.466191 
L 293.242874 242.781627 
L 293.272179 241.824734 
L 293.472434 236.798128 
L 293.491966 238.412544 
L 303.294479 238.301594 
L 304.974635 238.279015 
L 399.3171 238.263054 
L 399.3171 238.263054 
" clip-path="url(#p4815dd1d80)" style="fill: none; stroke: #2a78d6; stroke-width: 1.2; stroke-linecap: round"/>
   </g>
   <g id="patch_8">
    <path d="M 53.157271 314.179135 
L 53.157271 170.139146 
" style="fill: none; stroke: #c3c2b7; stroke-width: 0.75; stroke-linejoin: miter; stroke-linecap: square"/>
   </g>
   <g id="patch_9">
    <path d="M 53.157271 314.179135 
L 415.800901 314.179135 
" style="fill: none; stroke: #c3c2b7; stroke-width: 0.75; stroke-linejoin: miter; stroke-linecap: square"/>
   </g>
   <g id="text_28">
    <!-- true offset 200 ppm -->
    <g style="fill: #898781" transform="translate(317.833101 233.266168) scale(0.08 -0.08)">
     <use xlink:href="#DejaVuSans-74"/>
     <use xlink:href="#DejaVuSans-72" transform="translate(39.208984 0)"/>
     <use xlink:href="#DejaVuSans-75" transform="translate(80.322266 0)"/>
     <use xlink:href="#DejaVuSans-65" transform="translate(143.701172 0)"/>
     <use xlink:href="#DejaVuSans-20" transform="translate(205.224609 0)"/>
     <use xlink:href="#DejaVuSans-6f" transform="translate(237.011719 0)"/>
     <use xlink:href="#DejaVuSans-66" transform="translate(298.193359 0)"/>
     <use xlink:href="#DejaVuSans-66" transform="translate(333.398438 0)"/>
     <use xlink:href="#DejaVuSans-73" transform="translate(368.603516 0)"/>
     <use xlink:href="#DejaVuSans-65" transform="translate(420.703125 0)"/>
     <use xlink:href="#DejaVuSans-74" transform="translate(482.226562 0)"/>
     <use xlink:href="#DejaVuSans-20" transform="translate(521.435547 0)"/>
     <use xlink:href="#DejaVuSans-32" transform="translate(553.222656 0)"/>
     <use xlink:href="#DejaVuSans-30" transform="translate(616.845703 0)"/>
     <use xlink:href="#DejaVuSans-30" transform="translate(680.46875 0)"/>
     <use xlink:href="#DejaVuSans-20" transform="translate(744.091797 0)"/>
     <use xlink:href="#DejaVuSans-70" transform="translate(775.878906 0)"/>
     <use xlink:href="#DejaVuSans-70" transform="translate(839.355469 0)"/>
     <use xlink:href="#DejaVuSans-6d" transform="translate(902.832031 0)"/>
    </g>
   </g>
   <g id="text_29">
    <!-- servo clamp ±1500 ppm -->
    <g style="fill: #898781" transform="translate(298.806851 203.736273) scale(0.08 -0.08)">
     <defs>
      <path id="DejaVuSans-76" d="M 191 3500 
L 800 3500 
L 1894 563 
L 2988 3500 
L 3597 3500 
L 2284 0 
L 1503 0 
L 191 3500 
z
" transform="scale(0.015625)"/>
      <path id="DejaVuSans-b1" d="M 2944 4013 
L 2944 2803 
L 4684 2803 
L 4684 2272 
L 2944 2272 
L 2944 1063 
L 2419 1063 
L 2419 2272 
L 678 2272 
L 678 2803 
L 2419 2803 
L 2419 4013 
L 2944 4013 
z
M 678 531 
L 4684 531 
L 4684 0 
L 678 0 
L 678 531 
z
" transform="scale(0.015625)"/>
     </defs>
     <use xlink:href="#DejaVuSans-73"/>
     <use xlink:href="#DejaVuSans-65" transform="translate(52.099609 0)"/>
     <use xlink:href="#DejaVuSans-72" transform="translate(113.623047 0)"/>
     <use xlink:href="#DejaVuSans-76" transform="translate(154.736328 0)"/>
     <use xlink:href="#DejaVuSans-6f" transform="translate(213.916016 0)"/>
     <use xlink:href="#DejaVuSans-20" transform="translate(275.097656 0)"/>
     <use xlink:href="#DejaVuSans-63" transform="translate(306.884766 0)"/>
     <use xlink:href="#DejaVuSans-6c" transform="translate(361.865234 0)"/>
     <use xlink:href="#DejaVuSans-61" transform="translate(389.648438 0)"/>
     <use xlink:href="#DejaVuSans-6d" transform="translate(450.927734 0)"/>
     <use xlink:href="#DejaVuSans-70" transform="translate(548.339844 0)"/>
     <use xlink:href="#DejaVuSans-20" transform="translate(611.816406 0)"/>
     <use xlink:href="#DejaVuSans-b1" transform="translate(643.603516 0)"/>
     <use xlink:href="#DejaVuSans-31" transform="translate(727.392578 0)"/>
     <use xlink:href="#DejaVuSans-35" transform="translate(791.015625 0)"/>
     <use xlink:href="#DejaVuSans-30" transform="translate(854.638672 0)"/>
     <use xlink:href="#DejaVuSans-30" transform="translate(918.261719 0)"/>
     <use xlink:href="#DejaVuSans-20" transform="translate(981.884766 0)"/>
     <use xlink:href="#DejaVuSans-70" transform="translate(1013.671875 0)"/>
     <use xlink:href="#DejaVuSans-70" transform="translate(1077.148438 0)"/>
     <use xlink:href="#DejaVuSans-6d" transform="translate(1140.625 0)"/>
    </g>
   </g>
   <g id="text_30">
    <!-- Acquiring (10 Hz) rings against the clamp -->
    <g style="fill: #52514e" transform="translate(89.417041 202.057109) scale(0.08 -0.08)">
     <defs>
      <path id="DejaVuSans-67" d="M 2906 1791 
Q 2906 2416 2648 2759 
Q 2391 3103 1925 3103 
Q 1463 3103 1205 2759 
Q 947 2416 947 1791 
Q 947 1169 1205 825 
Q 1463 481 1925 481 
Q 2391 481 2648 825 
Q 2906 1169 2906 1791 
z
M 3481 434 
Q 3481 -459 3084 -895 
Q 2688 -1331 1869 -1331 
Q 1566 -1331 1297 -1286 
Q 1028 -1241 775 -1147 
L 775 -588 
Q 1028 -725 1275 -790 
Q 1522 -856 1778 -856 
Q 2344 -856 2625 -561 
Q 2906 -266 2906 331 
L 2906 616 
Q 2728 306 2450 153 
Q 2172 0 1784 0 
Q 1141 0 747 490 
Q 353 981 353 1791 
Q 353 2603 747 3093 
Q 1141 3584 1784 3584 
Q 2172 3584 2450 3431 
Q 2728 3278 2906 2969 
L 2906 3500 
L 3481 3500 
L 3481 434 
z
" transform="scale(0.015625)"/>
      <path id="DejaVuSans-48" d="M 628 4666 
L 1259 4666 
L 1259 2753 
L 3553 2753 
L 3553 4666 
L 4184 4666 
L 4184 0 
L 3553 0 
L 3553 2222 
L 1259 2222 
L 1259 0 
L 628 0 
L 628 4666 
z
" transform="scale(0.015625)"/>
      <path id="DejaVuSans-7a" d="M 353 3500 
L 3084 3500 
L 3084 2975 
L 922 459 
L 3084 459 
L 3084 0 
L 275 0 
L 275 525 
L 2438 3041 
L 353 3041 
L 353 3500 
z
" transform="scale(0.015625)"/>
      <path id="DejaVuSans-68" d="M 3513 2113 
L 3513 0 
L 2938 0 
L 2938 2094 
Q 2938 2591 2744 2837 
Q 2550 3084 2163 3084 
Q 1697 3084 1428 2787 
Q 1159 2491 1159 1978 
L 1159 0 
L 581 0 
L 581 4863 
L 1159 4863 
L 1159 2956 
Q 1366 3272 1645 3428 
Q 1925 3584 2291 3584 
Q 2894 3584 3203 3211 
Q 3513 2838 3513 2113 
z
" transform="scale(0.015625)"/>
     </defs>
     <use xlink:href="#DejaVuSans-41"/>
     <use xlink:href="#DejaVuSans-63" transform="translate(66.658203 0)"/>
     <use xlink:href="#DejaVuSans-71" transform="translate(121.638672 0)"/>
     <use xlink:href="#DejaVuSans-75" transform="translate(185.115234 0)"/>
     <use xlink:href="#DejaVuSans-69" transform="translate(248.494141 0)"/>
     <use xlink:href="#DejaVuSans-72" transform="translate(276.277344 0)"/>
     <use xlink:href="#DejaVuSans-69" transform="translate(317.390625 0)"/>
     <use xlink:href="#DejaVuSans-6e" transform="translate(345.173828 0)"/>
     <use xlink:href="#DejaVuSans-67" transform="translate(408.552734 0)"/>
     <use xlink:href="#DejaVuSans-20" transform="translate(472.029297 0)"/>
     <use xlink:href="#DejaVuSans-28" transform="translate(503.816406 0)"/>
     <use xlink:href="#DejaVuSans-31" transform="translate(542.830078 0)"/>
     <use xlink:href="#DejaVuSans-30" transform="translate(606.453125 0)"/>
     <use xlink:href="#DejaVuSans-20" transform="translate(670.076172 0)"/>
     <use xlink:href="#DejaVuSans-48" transform="translate(701.863281 0)"/>
     <use xlink:href="#DejaVuSans-7a" transform="translate(777.058594 0)"/>
     <use xlink:href="#DejaVuSans-29" transform="translate(829.548828 0)"/>
     <use xlink:href="#DejaVuSans-20" transform="translate(868.5625 0)"/>
     <use xlink:href="#DejaVuSans-72" transform="translate(900.349609 0)"/>
     <use xlink:href="#DejaVuSans-69" transform="translate(941.462891 0)"/>
     <use xlink:href="#DejaVuSans-6e" transform="translate(969.246094 0)"/>
     <use xlink:href="#DejaVuSans-67" transform="translate(1032.625 0)"/>
     <use xlink:href="#DejaVuSans-73" transform="translate(1096.101562 0)"/>
     <use xlink:href="#DejaVuSans-20" transform="translate(1148.201172 0)"/>
     <use xlink:href="#DejaVuSans-61" transform="translate(1179.988281 0)"/>
     <use xlink:href="#DejaVuSans-67" transform="translate(1241.267578 0)"/>
     <use xlink:href="#DejaVuSans-61" transform="translate(1304.744141 0)"/>
     <use xlink:href="#DejaVuSans-69" transform="translate(1366.023438 0)"/>
     <use xlink:href="#DejaVuSans-6e" transform="translate(1393.806641 0)"/>
     <use xlink:href="#DejaVuSans-73" transform="translate(1457.185547 0)"/>
     <use xlink:href="#DejaVuSans-74" transform="translate(1509.285156 0)"/>
     <use xlink:href="#DejaVuSans-20" transform="translate(1548.494141 0)"/>
     <use xlink:href="#DejaVuSans-74" transform="translate(1580.28125 0)"/>
     <use xlink:href="#DejaVuSans-68" transform="translate(1619.490234 0)"/>
     <use xlink:href="#DejaVuSans-65" transform="translate(1682.869141 0)"/>
     <use xlink:href="#DejaVuSans-20" transform="translate(1744.392578 0)"/>
     <use xlink:href="#DejaVuSans-63" transform="translate(1776.179688 0)"/>
     <use xlink:href="#DejaVuSans-6c" transform="translate(1831.160156 0)"/>
     <use xlink:href="#DejaVuSans-61" transform="translate(1858.943359 0)"/>
     <use xlink:href="#DejaVuSans-6d" transform="translate(1920.222656 0)"/>
     <use xlink:href="#DejaVuSans-70" transform="translate(2017.634766 0)"/>
    </g>
    <!-- on the ±1-frame quantized occupancy -->
    <g style="fill: #52514e" transform="translate(89.417041 211.015359) scale(0.08 -0.08)">
     <use xlink:href="#DejaVuSans-6f"/>
     <use xlink:href="#DejaVuSans-6e" transform="translate(61.181641 0)"/>
     <use xlink:href="#DejaVuSans-20" transform="translate(124.560547 0)"/>
     <use xlink:href="#DejaVuSans-74" transform="translate(156.347656 0)"/>
     <use xlink:href="#DejaVuSans-68" transform="translate(195.556641 0)"/>
     <use xlink:href="#DejaVuSans-65" transform="translate(258.935547 0)"/>
     <use xlink:href="#DejaVuSans-20" transform="translate(320.458984 0)"/>
     <use xlink:href="#DejaVuSans-b1" transform="translate(352.246094 0)"/>
     <use xlink:href="#DejaVuSans-31" transform="translate(436.035156 0)"/>
     <use xlink:href="#DejaVuSans-2d" transform="translate(499.658203 0)"/>
     <use xlink:href="#DejaVuSans-66" transform="translate(535.742188 0)"/>
     <use xlink:href="#DejaVuSans-72" transform="translate(570.947266 0)"/>
     <use xlink:href="#DejaVuSans-61" transform="translate(612.060547 0)"/>
     <use xlink:href="#DejaVuSans-6d" transform="translate(673.339844 0)"/>
     <use xlink:href="#DejaVuSans-65" transform="translate(770.751953 0)"/>
     <use xlink:href="#DejaVuSans-20" transform="translate(832.275391 0)"/>
     <use xlink:href="#DejaVuSans-71" transform="translate(864.0625 0)"/>
     <use xlink:href="#DejaVuSans-75" transform="translate(927.539062 0)"/>
     <use xlink:href="#DejaVuSans-61" transform="translate(990.917969 0)"/>
     <use xlink:href="#DejaVuSans-6e" transform="translate(1052.197266 0)"/>
     <use xlink:href="#DejaVuSans-74" transform="translate(1115.576172 0)"/>
     <use xlink:href="#DejaVuSans-69" transform="translate(1154.785156 0)"/>
     <use xlink:href="#DejaVuSans-7a" transform="translate(1182.568359 0)"/>
     <use xlink:href="#DejaVuSans-65" transform="translate(1235.058594 0)"/>
     <use xlink:href="#DejaVuSans-64" transform="translate(1296.582031 0)"/>
     <use xlink:href="#DejaVuSans-20" transform="translate(1360.058594 0)"/>
     <use xlink:href="#DejaVuSans-6f" transform="translate(1391.845703 0)"/>
     <use xlink:href="#DejaVuSans-63" transform="translate(1453.027344 0)"/>
     <use xlink:href="#DejaVuSans-63" transform="translate(1508.007812 0)"/>
     <use xlink:href="#DejaVuSans-75" transform="translate(1562.988281 0)"/>
     <use xlink:href="#DejaVuSans-70" transform="translate(1626.367188 0)"/>
     <use xlink:href="#DejaVuSans-61" transform="translate(1689.84375 0)"/>
     <use xlink:href="#DejaVuSans-6e" transform="translate(1751.123047 0)"/>
     <use xlink:href="#DejaVuSans-63" transform="translate(1814.501953 0)"/>
     <use xlink:href="#DejaVuSans-79" transform="translate(1869.482422 0)"/>
    </g>
   </g>
   <g id="text_31">
    <!-- Locked (1 Hz): settles on the true offset -->
    <g style="fill: #52514e" transform="translate(172.203581 227.365844) scale(0.08 -0.08)">
     <use xlink:href="#DejaVuSans-4c"/>
     <use xlink:href="#DejaVuSans-6f" transform="translate(53.962891 0)"/>
     <use xlink:href="#DejaVuSans-63" transform="translate(115.144531 0)"/>
     <use xlink:href="#DejaVuSans-6b" transform="translate(170.125 0)"/>
     <use xlink:href="#DejaVuSans-65" transform="translate(224.410156 0)"/>
     <use xlink:href="#DejaVuSans-64" transform="translate(285.933594 0)"/>
     <use xlink:href="#DejaVuSans-20" transform="translate(349.410156 0)"/>
     <use xlink:href="#DejaVuSans-28" transform="translate(381.197266 0)"/>
     <use xlink:href="#DejaVuSans-31" transform="translate(420.210938 0)"/>
     <use xlink:href="#DejaVuSans-20" transform="translate(483.833984 0)"/>
     <use xlink:href="#DejaVuSans-48" transform="translate(515.621094 0)"/>
     <use xlink:href="#DejaVuSans-7a" transform="translate(590.816406 0)"/>
     <use xlink:href="#DejaVuSans-29" transform="translate(643.306641 0)"/>
     <use xlink:href="#DejaVuSans-3a" transform="translate(682.320312 0)"/>
     <use xlink:href="#DejaVuSans-20" transform="translate(716.011719 0)"/>
     <use xlink:href="#DejaVuSans-73" transform="translate(747.798828 0)"/>
     <use xlink:href="#DejaVuSans-65" transform="translate(799.898438 0)"/>
     <use xlink:href="#DejaVuSans-74" transform="translate(861.421875 0)"/>
     <use xlink:href="#DejaVuSans-74" transform="translate(900.630859 0)"/>
     <use xlink:href="#DejaVuSans-6c" transform="translate(939.839844 0)"/>
     <use xlink:href="#DejaVuSans-65" transform="translate(967.623047 0)"/>
     <use xlink:href="#DejaVuSans-73" transform="translate(1029.146484 0)"/>
     <use xlink:href="#DejaVuSans-20" transform="translate(1081.246094 0)"/>
     <use xlink:href="#DejaVuSans-6f" transform="translate(1113.033203 0)"/>
     <use xlink:href="#DejaVuSans-6e" transform="translate(1174.214844 0)"/>
     <use xlink:href="#DejaVuSans-20" transform="translate(1237.59375 0)"/>
     <use xlink:href="#DejaVuSans-74" transform="translate(1269.380859 0)"/>
     <use xlink:href="#DejaVuSans-68" transform="translate(1308.589844 0)"/>
     <use xlink:href="#DejaVuSans-65" transform="translate(1371.96875 0)"/>
     <use xlink:href="#DejaVuSans-20" transform="translate(1433.492188 0)"/>
     <use xlink:href="#DejaVuSans-74" transform="translate(1465.279297 0)"/>
     <use xlink:href="#DejaVuSans-72" transform="translate(1504.488281 0)"/>
     <use xlink:href="#DejaVuSans-75" transform="translate(1545.601562 0)"/>
     <use xlink:href="#DejaVuSans-65" transform="translate(1608.980469 0)"/>
     <use xlink:href="#DejaVuSans-20" transform="translate(1670.503906 0)"/>
     <use xlink:href="#DejaVuSans-6f" transform="translate(1702.291016 0)"/>
     <use xlink:href="#DejaVuSans-66" transform="translate(1763.472656 0)"/>
     <use xlink:href="#DejaVuSans-66" transform="translate(1798.677734 0)"/>
     <use xlink:href="#DejaVuSans-73" transform="translate(1833.882812 0)"/>
     <use xlink:href="#DejaVuSans-65" transform="translate(1885.982422 0)"/>
     <use xlink:href="#DejaVuSans-74" transform="translate(1947.505859 0)"/>
    </g>
   </g>
  </g>
 </g>
 <defs>
  <clipPath id="pe1dd8e3d01">
   <rect x="53.157271" y="16.598678" width="362.64363" height="144.039989"/>
  </clipPath>
  <clipPath id="p4815dd1d80">
   <rect x="53.157271" y="170.139146" width="362.64363" height="144.039989"/>
  </clipPath>
 </defs>
</svg>
